<?xml version="1.0" encoding="utf-8"?>
<!-- Generator: Adobe Illustrator 17.0.0, SVG Export Plug-In . SVG Version: 6.00 Build 0)  -->
<!DOCTYPE svg PUBLIC "-//W3C//DTD SVG 1.1//EN" "http://www.w3.org/Graphics/SVG/1.1/DTD/svg11.dtd">
<svg version="1.1" id="Слой_1" xmlns="http://www.w3.org/2000/svg" xmlns:xlink="http://www.w3.org/1999/xlink" x="0px" y="0px"
	 width="20px" height="20px" viewBox="0 0 20 20" enable-background="new 0 0 20 20" xml:space="preserve">
<path d="M10,18.581c-0.186,0-0.353-0.068-0.5-0.2l-6.96-6.72L2.24,11.361c-0.133-0.133-0.34-0.374-0.62-0.72s-0.534-0.713-0.76-1.1
	c-0.227-0.387-0.427-0.833-0.6-1.34C0.087,7.694,0,7.18,0,6.66c0-1.64,0.474-2.92,1.42-3.84s2.253-1.386,3.92-1.4
	c0.453,0,0.92,0.08,1.4,0.24c0.48,0.16,0.927,0.38,1.34,0.66c0.413,0.28,0.773,0.533,1.08,0.76C9.467,3.307,9.747,3.56,10,3.84
	c0.267-0.267,0.547-0.52,0.84-0.76c0.294-0.24,0.653-0.493,1.081-0.76c0.426-0.267,0.872-0.486,1.34-0.66
	c0.466-0.173,0.933-0.253,1.4-0.24c1.667,0,2.974,0.467,3.92,1.4C19.526,3.754,20,5.037,20,6.67c0,1.634-0.853,3.304-2.559,5.011
	l-6.94,6.7C10.367,18.513,10.2,18.581,10,18.581z"/>
</svg>
