<?xml version="1.0" encoding="utf-8"?>
<!-- Generator: Adobe Illustrator 17.0.0, SVG Export Plug-In . SVG Version: 6.00 Build 0)  -->
<!DOCTYPE svg PUBLIC "-//W3C//DTD SVG 1.1//EN" "http://www.w3.org/Graphics/SVG/1.1/DTD/svg11.dtd">
<svg version="1.1" id="Слой_1" xmlns="http://www.w3.org/2000/svg" xmlns:xlink="http://www.w3.org/1999/xlink" x="0px" y="0px"
	 width="20px" height="20px" viewBox="0 0 20 20" enable-background="new 0 0 20 20" xml:space="preserve">
<path d="M12.323,15.354L6.97,10l5.354-5.354l0.707,0.707L8.384,10l4.646,4.646L12.323,15.354z M10,1c-4.963,0-9,4.037-9,9
	s4.037,9,9,9s9-4.037,9-9S14.963,1,10,1 M10,0c5.523,0,10,4.477,10,10s-4.477,10-10,10S0,15.523,0,10S4.477,0,10,0L10,0z"/>
</svg>
