<?xml version="1.0" encoding="utf-8"?>
<!-- Generator: Adobe Illustrator 17.0.0, SVG Export Plug-In . SVG Version: 6.00 Build 0)  -->
<!DOCTYPE svg PUBLIC "-//W3C//DTD SVG 1.1//EN" "http://www.w3.org/Graphics/SVG/1.1/DTD/svg11.dtd">
<svg version="1.1" id="Слой_1" xmlns="http://www.w3.org/2000/svg" xmlns:xlink="http://www.w3.org/1999/xlink" x="0px" y="0px"
	 width="20px" height="20px" viewBox="0 0 20 20" enable-background="new 0 0 20 20" xml:space="preserve">
<path d="M16.935,0c0.19,0,0.378,0.039,0.568,0.118c0.3,0.127,0.529,0.308,0.687,0.545c0.157,0.236,0.245,0.513,0.26,0.828v17.018
	c0,0.3-0.087,0.576-0.26,0.828c-0.174,0.252-0.403,0.433-0.687,0.544c-0.158,0.063-0.348,0.094-0.568,0.094
	c-0.426,0-0.796-0.142-1.112-0.426L10,13.964L4.178,19.55C3.862,19.85,3.499,20,3.088,20c-0.205,0-0.403-0.039-0.591-0.118
	c-0.284-0.111-0.513-0.292-0.687-0.544s-0.26-0.529-0.26-0.828V1.491c0-0.3,0.087-0.576,0.26-0.828s0.403-0.434,0.687-0.545
	C2.686,0.039,2.883,0,3.088,0H16.935z M16.769,1.704H3.231v16.402L10,11.621l1.184,1.112l5.586,5.373V1.704z"/>
</svg>
