<?xml version="1.0" encoding="utf-8"?>
<!-- Generator: Adobe Illustrator 17.0.0, SVG Export Plug-In . SVG Version: 6.00 Build 0)  -->
<!DOCTYPE svg PUBLIC "-//W3C//DTD SVG 1.1//EN" "http://www.w3.org/Graphics/SVG/1.1/DTD/svg11.dtd">
<svg version="1.1" id="Слой_1" xmlns="http://www.w3.org/2000/svg" xmlns:xlink="http://www.w3.org/1999/xlink" x="0px" y="0px"
	 width="20px" height="20px" viewBox="0 0 20 20" enable-background="new 0 0 20 20" xml:space="preserve">
<g>
	<path fill-rule="evenodd" clip-rule="evenodd" d="M0,15.979V4.112l6.904,6.001L0,15.979z M20,15.979l-6.904-5.867L20,4.108V15.979z
		 M10,11.429L0.455,3.247c0.257-0.24,0.603-0.39,0.984-0.39h17.123c0.382,0,0.729,0.147,0.987,0.387L10,11.429z M12.474,10.692
		l7.071,6.061c-0.257,0.24-0.603,0.39-0.984,0.39H1.438c-0.382,0-0.729-0.147-0.987-0.387l7.074-6.064L10,12.857L12.474,10.692z"/>
</g>
</svg>
