<?xml version="1.0" encoding="utf-8"?>
<!-- Generator: Adobe Illustrator 17.0.0, SVG Export Plug-In . SVG Version: 6.00 Build 0)  -->
<!DOCTYPE svg PUBLIC "-//W3C//DTD SVG 1.1//EN" "http://www.w3.org/Graphics/SVG/1.1/DTD/svg11.dtd">
<svg version="1.1" id="Слой_1" xmlns="http://www.w3.org/2000/svg" xmlns:xlink="http://www.w3.org/1999/xlink" x="0px" y="0px"
	 width="20px" height="20px" viewBox="0 0 20 20" enable-background="new 0 0 20 20" xml:space="preserve">
<path d="M18.13,9.944v2.221c-0.747,0.173-1.48,0.26-2.2,0.26c-0.48,1.014-1.094,2.02-1.84,3.02c-0.747,1-1.427,1.8-2.04,2.4
	c-0.613,0.6-1.087,1-1.42,1.2c-0.601,0.333-1.207,0.319-1.82-0.04c-0.2-0.12-0.42-0.28-0.66-0.48c-0.239-0.2-0.56-0.514-0.96-0.939
	c-0.399-0.427-0.779-0.907-1.14-1.44c-0.36-0.533-0.76-1.213-1.2-2.04c-0.439-0.826-0.833-1.733-1.18-2.72s-0.688-2.16-1.021-3.521
	C2.316,6.505,2.057,5.058,1.87,3.525h3.159c0.187,1.613,0.447,3.094,0.78,4.44s0.72,2.526,1.16,3.54
	c0.44,1.013,0.894,1.887,1.36,2.62c0.466,0.733,0.986,1.46,1.56,2.18c1.253-1.253,2.32-2.767,3.2-4.54
	c-1.054-0.533-1.88-1.347-2.48-2.44c-0.6-1.093-0.899-2.333-0.899-3.72c0-1.427,0.387-2.6,1.16-3.52
	c0.772-0.92,1.822-1.377,3.149-1.37s2.344,0.403,3.05,1.189c0.707,0.787,1.061,1.894,1.061,3.32c0,1.187-0.214,2.247-0.641,3.18
	l-0.22,0.04c-0.094,0.014-0.267,0.021-0.52,0.021c-0.254,0-0.487-0.021-0.7-0.061c-0.214-0.04-0.44-0.133-0.68-0.279
	c-0.24-0.146-0.428-0.341-0.561-0.58c0.227-0.773,0.34-1.46,0.34-2.061c0-0.64-0.106-1.126-0.319-1.46
	c-0.214-0.333-0.514-0.5-0.9-0.5s-0.7,0.181-0.94,0.54c-0.239,0.36-0.359,0.887-0.359,1.58c0,1.373,0.393,2.46,1.18,3.26
	c0.787,0.801,1.78,1.2,2.98,1.2C17.243,10.105,17.689,10.052,18.13,9.944z"/>
</svg>
