<?xml version="1.0" encoding="utf-8"?>
<!-- Generator: Adobe Illustrator 17.0.0, SVG Export Plug-In . SVG Version: 6.00 Build 0)  -->
<!DOCTYPE svg PUBLIC "-//W3C//DTD SVG 1.1//EN" "http://www.w3.org/Graphics/SVG/1.1/DTD/svg11.dtd">
<svg version="1.1" id="Слой_1" xmlns="http://www.w3.org/2000/svg" xmlns:xlink="http://www.w3.org/1999/xlink" x="0px" y="0px"
	 width="20px" height="20px" viewBox="0 0 20 20" enable-background="new 0 0 20 20" xml:space="preserve">
<path d="M18.57,3.62v12.76c0,0.601-0.213,1.113-0.64,1.54s-0.947,0.646-1.56,0.66H3.63c-0.6,0-1.12-0.22-1.56-0.66
	c-0.44-0.439-0.654-0.953-0.64-1.54V3.62c0-0.601,0.213-1.113,0.64-1.54c0.426-0.427,0.946-0.646,1.56-0.66h12.74
	c0.6,0,1.12,0.22,1.56,0.66C18.37,2.52,18.583,3.033,18.57,3.62z M16.63,15.92V8.68h-1.5c0.146,0.467,0.22,0.954,0.22,1.46
	c0,0.947-0.24,1.813-0.72,2.601s-1.127,1.413-1.94,1.88c-0.813,0.467-1.707,0.7-2.68,0.7c-1.467,0-2.72-0.507-3.76-1.521
	c-1.04-1.013-1.56-2.233-1.56-3.66c0-0.506,0.073-0.993,0.22-1.46H3.33v7.24c0,0.187,0.066,0.347,0.2,0.48
	c0.133,0.133,0.3,0.199,0.5,0.199h11.92c0.187,0,0.347-0.066,0.48-0.199C16.563,16.267,16.63,16.106,16.63,15.92z M13.47,9.96
	c0-0.92-0.34-1.706-1.02-2.36c-0.68-0.652-1.494-0.979-2.44-0.979c-0.947,0-1.753,0.327-2.42,0.979
	C6.923,8.254,6.583,9.04,6.57,9.96c-0.014,0.92,0.326,1.707,1.02,2.36c0.693,0.653,1.5,0.979,2.42,0.979
	c0.96,0,1.773-0.326,2.44-0.979C13.116,11.667,13.456,10.88,13.47,9.96z M16.63,5.94V4.1c0-0.199-0.074-0.38-0.22-0.54
	c-0.147-0.159-0.327-0.232-0.54-0.22h-1.96c-0.213,0-0.394,0.073-0.54,0.22c-0.147,0.147-0.22,0.327-0.22,0.54V5.94
	c0,0.227,0.073,0.413,0.22,0.56c0.146,0.146,0.327,0.22,0.54,0.22h1.96c0.213,0,0.393-0.073,0.54-0.22
	C16.556,6.354,16.63,6.167,16.63,5.94z"/>
</svg>
