<?xml version="1.0" encoding="utf-8"?>
<!-- Generator: Adobe Illustrator 17.0.0, SVG Export Plug-In . SVG Version: 6.00 Build 0)  -->
<!DOCTYPE svg PUBLIC "-//W3C//DTD SVG 1.1//EN" "http://www.w3.org/Graphics/SVG/1.1/DTD/svg11.dtd">
<svg version="1.1" id="Слой_1" xmlns="http://www.w3.org/2000/svg" xmlns:xlink="http://www.w3.org/1999/xlink" x="0px" y="0px"
	 width="20px" height="20px" viewBox="0 0 20 20" enable-background="new 0 0 20 20" xml:space="preserve">
<path d="M15.563,20c-1.152,0-2.265-0.497-3.076-1.309L2.317,8.534c-0.93-0.943-1.479-2.225-1.479-3.547C0.838,2.212,3.023,0,5.798,0
	c1.335,0,2.618,0.537,3.574,1.479l7.919,7.932c0.078,0.079,0.131,0.183,0.131,0.288c0,0.275-0.733,1.008-1.008,1.008
	c-0.118,0-0.223-0.052-0.301-0.131L8.181,2.631C7.552,2.016,6.702,1.623,5.812,1.623c-1.859,0-3.298,1.505-3.298,3.351
	c0,0.89,0.366,1.741,0.995,2.369l10.157,10.17c0.497,0.497,1.191,0.825,1.898,0.825c1.113,0,1.937-0.825,1.937-1.937
	c0-0.72-0.327-1.401-0.824-1.898L9.07,6.898C8.861,6.702,8.573,6.584,8.285,6.584c-0.497,0-0.877,0.367-0.877,0.877
	c0,0.288,0.131,0.563,0.327,0.772l5.367,5.366c0.078,0.079,0.131,0.183,0.131,0.288c0,0.275-0.746,1.021-1.021,1.021
	c-0.105,0-0.21-0.052-0.288-0.131L6.557,9.411c-0.523-0.51-0.824-1.23-0.824-1.95c0-1.44,1.126-2.565,2.566-2.565
	c0.733,0,1.44,0.301,1.95,0.825l7.605,7.605c0.824,0.812,1.309,1.924,1.309,3.076C19.162,18.442,17.605,20,15.563,20z"/>
</svg>
