<?xml version="1.0" encoding="utf-8"?>
<!-- Generator: Adobe Illustrator 17.0.0, SVG Export Plug-In . SVG Version: 6.00 Build 0)  -->
<!DOCTYPE svg PUBLIC "-//W3C//DTD SVG 1.1//EN" "http://www.w3.org/Graphics/SVG/1.1/DTD/svg11.dtd">
<svg version="1.1" id="Слой_1" xmlns="http://www.w3.org/2000/svg" xmlns:xlink="http://www.w3.org/1999/xlink" x="0px" y="0px"
	 width="20px" height="20px" viewBox="0 0 20 20" enable-background="new 0 0 20 20" xml:space="preserve">
<path fill-rule="evenodd" clip-rule="evenodd" d="M10,8.75c1.381,0,2.5-1.119,2.5-2.5s-1.119-2.5-2.5-2.5s-2.5,1.119-2.5,2.5
	S8.619,8.75,10,8.75z M3.775,7.5C3.759,7.294,3.75,7.086,3.75,6.875C3.75,3.078,6.548,0,10,0s6.25,3.078,6.25,6.875
	c0,0.211-0.009,0.419-0.025,0.625h0.025C16.25,11.257,10,20,10,20S3.75,11.278,3.75,7.5H3.775z"/>
</svg>
