<?xml version="1.0" encoding="utf-8"?>
<!-- Generator: Adobe Illustrator 17.0.0, SVG Export Plug-In . SVG Version: 6.00 Build 0)  -->
<!DOCTYPE svg PUBLIC "-//W3C//DTD SVG 1.1//EN" "http://www.w3.org/Graphics/SVG/1.1/DTD/svg11.dtd">
<svg version="1.1" id="Слой_1" xmlns="http://www.w3.org/2000/svg" xmlns:xlink="http://www.w3.org/1999/xlink" x="0px" y="0px"
	 width="20px" height="20px" viewBox="0 0 20 20" enable-background="new 0 0 20 20" xml:space="preserve">
<path d="M15.566,12.407l-5.171,5.181c-0.253,0.243-0.6,0.39-0.958,0.39c-0.358,0-0.706-0.147-0.948-0.39l-7.53-7.54
	C0.421,9.521,0,8.499,0,7.751V3.37c0-0.737,0.611-1.348,1.348-1.348h4.381c0.748,0,1.77,0.421,2.307,0.958l7.53,7.52
	c0.242,0.253,0.39,0.6,0.39,0.958S15.808,12.164,15.566,12.407z M3.37,4.044c-0.748,0-1.348,0.6-1.348,1.348S2.622,6.74,3.37,6.74
	s1.348-0.6,1.348-1.348S4.118,4.044,3.37,4.044z M19.61,12.407l-5.171,5.181c-0.253,0.243-0.6,0.39-0.958,0.39
	c-0.548,0-0.821-0.253-1.18-0.622l4.95-4.949c0.242-0.243,0.39-0.59,0.39-0.948s-0.147-0.706-0.39-0.958l-7.53-7.52
	C9.184,2.444,8.162,2.022,7.414,2.022h2.359c0.748,0,1.77,0.421,2.307,0.958l7.53,7.52c0.242,0.253,0.39,0.6,0.39,0.958
	S19.853,12.164,19.61,12.407z"/>
</svg>
