<?xml version="1.0" encoding="utf-8"?>
<!-- Generator: Adobe Illustrator 17.0.0, SVG Export Plug-In . SVG Version: 6.00 Build 0)  -->
<!DOCTYPE svg PUBLIC "-//W3C//DTD SVG 1.1//EN" "http://www.w3.org/Graphics/SVG/1.1/DTD/svg11.dtd">
<svg version="1.1" id="Слой_1" xmlns="http://www.w3.org/2000/svg" xmlns:xlink="http://www.w3.org/1999/xlink" x="0px" y="0px"
	 width="20px" height="20px" viewBox="0 0 20 20" enable-background="new 0 0 20 20" xml:space="preserve">
<path d="M17.348,3.996c0.734,0,1.363,0.261,1.886,0.784S20.012,5.932,20,6.666v9.337c0,0.735-0.255,1.363-0.766,1.886
	s-1.139,0.785-1.886,0.785H2.67c-0.735,0-1.363-0.262-1.886-0.785S0,16.738,0,16.003V6.666c0-0.734,0.261-1.363,0.784-1.886
	S1.935,3.996,2.67,3.996h2.334l0.523-1.419c0.137-0.336,0.38-0.628,0.729-0.878c0.348-0.249,0.71-0.373,1.083-0.373h5.341
	c0.361,0,0.716,0.125,1.065,0.373c0.348,0.249,0.591,0.541,0.728,0.878l0.542,1.419H17.348z M10.009,16.003
	c1.283,0,2.378-0.46,3.287-1.381c0.909-0.922,1.369-2.017,1.381-3.287c0.013-1.27-0.448-2.371-1.381-3.305
	c-0.934-0.933-2.03-1.388-3.287-1.363C8.751,6.691,7.649,7.146,6.704,8.03c-0.947,0.884-1.401,1.986-1.364,3.305
	c0.038,1.32,0.492,2.416,1.364,3.287C7.575,15.493,8.677,15.954,10.009,16.003z M10.009,8.328c0.822,0,1.525,0.293,2.111,0.878
	c0.584,0.586,0.878,1.296,0.878,2.129c0,0.834-0.293,1.538-0.878,2.11c-0.586,0.573-1.289,0.865-2.111,0.878
	c-0.821,0.013-1.531-0.28-2.128-0.878c-0.598-0.597-0.891-1.301-0.878-2.11c0.012-0.809,0.305-1.519,0.878-2.129
	C8.452,8.596,9.162,8.304,10.009,8.328z"/>
</svg>
