<?xml version="1.0" encoding="utf-8"?>
<!-- Generator: Adobe Illustrator 17.0.0, SVG Export Plug-In . SVG Version: 6.00 Build 0)  -->
<!DOCTYPE svg PUBLIC "-//W3C//DTD SVG 1.1//EN" "http://www.w3.org/Graphics/SVG/1.1/DTD/svg11.dtd">
<svg version="1.1" id="Слой_1" xmlns="http://www.w3.org/2000/svg" xmlns:xlink="http://www.w3.org/1999/xlink" x="0px" y="0px"
	 width="20px" height="20px" viewBox="0 0 20 20" enable-background="new 0 0 20 20" xml:space="preserve">
<path d="M17.1,5.31c0,1.974-0.82,3.567-2.46,4.78c-1.614,1.2-3.887,1.8-6.82,1.8H7.14c-0.24,0-0.46,0.08-0.66,0.24
	s-0.327,0.36-0.38,0.6L5.28,16.25c-0.053,0.267-0.2,0.493-0.44,0.68c-0.24,0.188-0.5,0.28-0.78,0.28H1.68
	c-0.24,0-0.44-0.073-0.6-0.22s-0.24-0.333-0.24-0.561c0-0.066,0.013-0.14,0.04-0.22L4.22,1.69c0.053-0.28,0.207-0.514,0.46-0.7
	c0.253-0.187,0.506-0.28,0.76-0.28h4.96c0.507,0,0.973,0.014,1.4,0.04s0.874,0.087,1.34,0.18c0.466,0.094,0.886,0.2,1.26,0.32
	c0.373,0.12,0.733,0.313,1.08,0.58s0.64,0.54,0.88,0.82C16.6,2.93,16.78,3.316,16.9,3.81C17.02,4.304,17.086,4.804,17.1,5.31z
	 M19.16,7.39c0,1.974-0.82,3.567-2.46,4.78c-1.627,1.187-3.907,1.78-6.84,1.78H9.18c-0.24,0-0.46,0.08-0.66,0.24
	c-0.2,0.159-0.327,0.359-0.38,0.6l-0.8,3.52c-0.067,0.267-0.22,0.493-0.46,0.681c-0.24,0.187-0.5,0.286-0.78,0.3H3.72
	c-0.227,0-0.42-0.08-0.58-0.24c-0.16-0.16-0.24-0.347-0.24-0.56c0-0.08,0.047-0.32,0.14-0.721h1.68c0.253,0,0.493-0.086,0.72-0.26
	c0.227-0.173,0.367-0.387,0.42-0.64l0.82-3.521c0.053-0.253,0.193-0.466,0.42-0.64c0.227-0.173,0.46-0.267,0.7-0.28h0.68
	c2.907,0,5.167-0.593,6.78-1.779s2.42-2.754,2.42-4.7c0-0.96-0.194-1.727-0.58-2.3C18.473,4.33,19.16,5.577,19.16,7.39z M12.42,5.69
	c0-1.188-0.887-1.78-2.66-1.78H8.98c-0.24,0-0.46,0.08-0.66,0.24C8.12,4.31,7.993,4.503,7.94,4.729l-0.7,3.08
	C7.227,7.85,7.22,7.91,7.22,7.99c0,0.187,0.06,0.333,0.18,0.439C7.52,8.537,7.673,8.597,7.86,8.61h0.58c0.52,0,1-0.047,1.44-0.141
	c0.44-0.093,0.86-0.246,1.26-0.46c0.4-0.213,0.713-0.52,0.94-0.92C12.307,6.69,12.42,6.224,12.42,5.69z"/>
</svg>
