<?xml version="1.0" encoding="utf-8"?>
<!-- Generator: Adobe Illustrator 17.0.0, SVG Export Plug-In . SVG Version: 6.00 Build 0)  -->
<!DOCTYPE svg PUBLIC "-//W3C//DTD SVG 1.1//EN" "http://www.w3.org/Graphics/SVG/1.1/DTD/svg11.dtd">
<svg version="1.1" id="Слой_1" xmlns="http://www.w3.org/2000/svg" xmlns:xlink="http://www.w3.org/1999/xlink" x="0px" y="0px"
	 width="20px" height="20px" viewBox="0 0 20 20" enable-background="new 0 0 20 20" xml:space="preserve">
<path d="M20,8.568c0,1.294-0.447,2.487-1.34,3.581c-0.894,1.093-2.107,1.96-3.64,2.599c-1.533,0.64-3.206,0.96-5.02,0.96
	c-0.52,0-1.06-0.027-1.62-0.08c-1.466,1.293-3.18,2.193-5.14,2.699c-0.36,0.107-0.78,0.187-1.26,0.24
	c-0.133,0.014-0.247-0.02-0.34-0.099c-0.094-0.081-0.16-0.187-0.2-0.321v-0.02c-0.027-0.027-0.027-0.067,0-0.12
	c0.027-0.053,0.033-0.094,0.02-0.12c-0.014-0.027,0-0.06,0.04-0.1l0.24-0.3c0.053-0.067,0.167-0.193,0.34-0.38l0.4-0.439
	c0.094-0.107,0.207-0.254,0.34-0.44c0.133-0.187,0.253-0.374,0.36-0.56c0.107-0.186,0.207-0.407,0.3-0.66l0.3-0.84
	c-1.174-0.667-2.094-1.487-2.76-2.46S0.013,9.689,0,8.568c0-0.972,0.266-1.899,0.8-2.78c0.533-0.88,1.24-1.64,2.12-2.28
	s1.947-1.146,3.2-1.52c1.253-0.373,2.546-0.56,3.88-0.56c1.813,0,3.486,0.32,5.02,0.96s2.747,1.507,3.64,2.6S20,7.275,20,8.568z"/>
</svg>
