<?xml version="1.0" encoding="utf-8"?>
<!-- Generator: Adobe Illustrator 17.0.0, SVG Export Plug-In . SVG Version: 6.00 Build 0)  -->
<!DOCTYPE svg PUBLIC "-//W3C//DTD SVG 1.1//EN" "http://www.w3.org/Graphics/SVG/1.1/DTD/svg11.dtd">
<svg version="1.1" id="Слой_1" xmlns="http://www.w3.org/2000/svg" xmlns:xlink="http://www.w3.org/1999/xlink" x="0px" y="0px"
	 width="20px" height="20px" viewBox="0 0 20 20" enable-background="new 0 0 20 20" xml:space="preserve">
<path d="M19.157,16.62c0,1.041-0.319,1.865-0.955,2.471C17.565,19.696,16.725,20,15.685,20H4.31c-1.041,0-1.881-0.304-2.518-0.91
	s-0.955-1.429-0.955-2.471c0-0.467,0.015-0.917,0.046-1.352c0.031-0.435,0.093-0.91,0.187-1.423c0.093-0.512,0.21-0.979,0.349-1.398
	c0.14-0.419,0.326-0.847,0.56-1.282c0.233-0.434,0.497-0.784,0.793-1.049C3.067,9.852,3.439,9.619,3.89,9.417
	C4.34,9.215,4.822,9.13,5.335,9.161c0.078,0,0.264,0.093,0.56,0.28C6.19,9.627,6.509,9.836,6.85,10.07
	c0.342,0.233,0.808,0.443,1.399,0.63c0.59,0.186,1.173,0.28,1.748,0.28c0.575,0,1.15-0.094,1.725-0.28
	c0.575-0.187,1.049-0.396,1.422-0.63s0.691-0.443,0.955-0.629c0.265-0.187,0.451-0.28,0.56-0.28c0.528,0,1.01,0.085,1.445,0.256
	c0.435,0.171,0.808,0.404,1.119,0.699c0.31,0.296,0.575,0.645,0.792,1.049c0.218,0.404,0.404,0.832,0.56,1.282
	c0.156,0.451,0.272,0.917,0.35,1.398c0.078,0.482,0.139,0.956,0.186,1.423C19.157,15.734,19.173,16.184,19.157,16.62z M14.985,5.012
	c0,1.368-0.489,2.541-1.468,3.52c-0.979,0.979-2.152,1.468-3.52,1.468S7.448,9.51,6.454,8.531C5.46,7.552,4.978,6.379,5.009,5.012
	c0.03-1.367,0.513-2.548,1.445-3.543C7.387,0.475,8.568-0.015,9.997,0s2.603,0.505,3.52,1.468
	C14.434,2.432,14.923,3.613,14.985,5.012z"/>
</svg>
