<?xml version="1.0" encoding="utf-8"?>
<!-- Generator: Adobe Illustrator 17.0.0, SVG Export Plug-In . SVG Version: 6.00 Build 0)  -->
<!DOCTYPE svg PUBLIC "-//W3C//DTD SVG 1.1//EN" "http://www.w3.org/Graphics/SVG/1.1/DTD/svg11.dtd">
<svg version="1.1" id="Слой_1" xmlns="http://www.w3.org/2000/svg" xmlns:xlink="http://www.w3.org/1999/xlink" x="0px" y="0px"
	 width="20px" height="20px" viewBox="0 0 20 20" enable-background="new 0 0 20 20" xml:space="preserve">
<path d="M11.43,6.08c0,0.293,0.107,0.547,0.32,0.761c0.213,0.213,0.467,0.313,0.76,0.299h6.061v11.78c0,0.307-0.1,0.56-0.3,0.76
	c-0.2,0.2-0.453,0.307-0.76,0.32h-15c-0.307,0-0.56-0.107-0.76-0.32s-0.307-0.467-0.32-0.76V1.08c0-0.306,0.107-0.56,0.32-0.76
	C1.963,0.12,2.217,0.013,2.51,0h8.92V6.08z M12.85,5.72V0.44c0.173,0.107,0.313,0.214,0.42,0.32l4.54,4.56
	c0.107,0.094,0.213,0.227,0.32,0.4H12.85z"/>
</svg>
