<?xml version="1.0" encoding="utf-8"?>
<!-- Generator: Adobe Illustrator 17.0.0, SVG Export Plug-In . SVG Version: 6.00 Build 0)  -->
<!DOCTYPE svg PUBLIC "-//W3C//DTD SVG 1.1//EN" "http://www.w3.org/Graphics/SVG/1.1/DTD/svg11.dtd">
<svg version="1.1" id="Слой_1" xmlns="http://www.w3.org/2000/svg" xmlns:xlink="http://www.w3.org/1999/xlink" x="0px" y="0px"
	 width="20px" height="20px" viewBox="0 0 20 20" enable-background="new 0 0 20 20" xml:space="preserve">
<path d="M18.566,10c0,1.56-0.38,2.993-1.14,4.3c-0.76,1.307-1.8,2.347-3.12,3.12s-2.753,1.16-4.3,1.16
	c-1.547,0-2.987-0.387-4.32-1.16s-2.367-1.813-3.1-3.12c-0.734-1.307-1.12-2.74-1.16-4.3s0.347-2.993,1.16-4.3
	c0.813-1.307,1.846-2.347,3.1-3.12s2.693-1.16,4.32-1.16c1.626,0,3.06,0.387,4.3,1.16c1.24,0.773,2.28,1.813,3.12,3.12
	S18.646,8.44,18.566,10z M10.786,9.96c-0.16-0.36-0.354-0.773-0.58-1.24c-2.32,0.693-4.827,1.04-7.52,1.04V10
	c0,0.92,0.16,1.8,0.48,2.64c0.32,0.841,0.78,1.587,1.38,2.24c0.373-0.653,0.833-1.273,1.38-1.86c0.546-0.586,1.08-1.046,1.6-1.38
	c0.52-0.333,1.006-0.633,1.46-0.899c0.453-0.267,0.82-0.447,1.1-0.54l0.42-0.141c0.026-0.013,0.073-0.026,0.14-0.04
	C10.713,10.007,10.759,9.987,10.786,9.96z M9.606,7.6c-0.894-1.586-1.807-2.993-2.74-4.22c-1.027,0.48-1.894,1.174-2.6,2.08
	C3.559,6.367,3.079,7.38,2.826,8.5C5.079,8.5,7.339,8.2,9.606,7.6z M12.846,16.74c-0.307-1.787-0.827-3.641-1.56-5.561h-0.02
	l-0.02,0.021c-0.12,0.04-0.28,0.1-0.48,0.18c-0.2,0.08-0.573,0.26-1.12,0.54s-1.06,0.587-1.54,0.92
	c-0.48,0.334-0.967,0.76-1.46,1.28c-0.493,0.52-0.873,1.066-1.14,1.64l-0.18-0.12c1.373,1.12,2.933,1.681,4.68,1.681
	C10.979,17.32,11.926,17.127,12.846,16.74z M8.246,2.9h-0.02H8.246z M14.826,4.5c-1.374-1.213-2.98-1.82-4.82-1.82
	c-0.574,0-1.154,0.074-1.74,0.221c0.973,1.253,1.887,2.673,2.74,4.26c0.52-0.2,1.006-0.427,1.46-0.68
	C12.919,6.227,13.279,6,13.546,5.8c0.267-0.2,0.506-0.413,0.72-0.64s0.353-0.38,0.42-0.46L14.826,4.5z M17.326,9.92
	c-0.027-1.72-0.58-3.246-1.66-4.58l-0.02,0.021c-0.067,0.093-0.14,0.187-0.22,0.279c-0.08,0.094-0.24,0.254-0.48,0.48
	c-0.24,0.227-0.507,0.453-0.8,0.68c-0.293,0.228-0.66,0.467-1.1,0.72c-0.44,0.254-0.934,0.494-1.48,0.721l0.5,1.06l0.06,0.2
	c0.027,0.08,0.06,0.14,0.1,0.18l0.82-0.08c0.28-0.026,0.553-0.033,0.82-0.02c0.267,0.014,0.526,0.02,0.78,0.02s0.487,0.014,0.7,0.04
	c0.213,0.027,0.427,0.047,0.64,0.061c0.213,0.014,0.393,0.04,0.54,0.08c0.146,0.04,0.28,0.06,0.4,0.06s0.213,0.021,0.28,0.061
	L17.326,9.92z M17.226,11.16c-1.56-0.44-3.08-0.547-4.56-0.32c0.653,1.773,1.127,3.521,1.42,5.24c0.826-0.561,1.52-1.267,2.08-2.12
	C16.726,13.106,17.079,12.174,17.226,11.16z"/>
</svg>
