<?xml version="1.0" encoding="utf-8"?>
<!-- Generator: Adobe Illustrator 17.0.0, SVG Export Plug-In . SVG Version: 6.00 Build 0)  -->
<!DOCTYPE svg PUBLIC "-//W3C//DTD SVG 1.1//EN" "http://www.w3.org/Graphics/SVG/1.1/DTD/svg11.dtd">
<svg version="1.1" id="Слой_1" xmlns="http://www.w3.org/2000/svg" xmlns:xlink="http://www.w3.org/1999/xlink" x="0px" y="0px"
	 width="20px" height="20px" viewBox="0 0 20 20" enable-background="new 0 0 20 20" xml:space="preserve">
<path d="M0.311,10.933l0.171,1.104l-0.171,1.088c-0.021,0.052-0.047,0.078-0.078,0.078s-0.057-0.026-0.077-0.078L0,12.037
	l0.156-1.104c0.01-0.052,0.036-0.078,0.077-0.078S0.301,10.882,0.311,10.933z M1.057,10.249l0.218,1.788l-0.218,1.757
	c-0.021,0.052-0.054,0.078-0.101,0.078s-0.07-0.026-0.07-0.078l-0.202-1.757l0.202-1.788c0-0.052,0.023-0.078,0.07-0.078
	S1.037,10.197,1.057,10.249z M1.851,9.907l0.218,2.131L1.851,14.09c0,0.062-0.031,0.093-0.093,0.093
	c-0.062,0-0.098-0.031-0.109-0.093l-0.187-2.053l0.187-2.131c0.01-0.062,0.047-0.093,0.109-0.093
	C1.819,9.813,1.851,9.844,1.851,9.907z M2.659,9.844l0.202,2.193l-0.202,2.115c-0.01,0.084-0.052,0.125-0.125,0.125
	c-0.073,0-0.109-0.041-0.109-0.125l-0.171-2.115l0.171-2.193c0-0.072,0.036-0.109,0.109-0.109C2.607,9.736,2.649,9.772,2.659,9.844z
	 M3.484,10.015l0.187,2.022l-0.187,2.131c-0.01,0.093-0.057,0.14-0.14,0.14c-0.031,0-0.062-0.01-0.093-0.031
	c-0.031-0.021-0.042-0.057-0.031-0.109l-0.187-2.131l0.187-2.022c0-0.041,0.01-0.072,0.031-0.093
	c0.021-0.021,0.052-0.036,0.093-0.047C3.427,9.875,3.473,9.923,3.484,10.015z M4.292,8.74l0.186,3.297l-0.186,2.131
	c0,0.041-0.016,0.077-0.047,0.109c-0.031,0.031-0.062,0.046-0.093,0.046c-0.093,0-0.145-0.052-0.155-0.155l-0.156-2.131L3.997,8.74
	c0.01-0.103,0.062-0.156,0.155-0.156c0.041,0,0.073,0.016,0.093,0.047C4.266,8.663,4.282,8.699,4.292,8.74z M5.117,7.994
	l0.155,4.059l-0.155,2.116c0,0.052-0.016,0.093-0.047,0.124c-0.031,0.031-0.073,0.047-0.125,0.047c-0.104,0-0.161-0.057-0.171-0.171
	l-0.14-2.116l0.14-4.059c0.01-0.114,0.067-0.171,0.171-0.171c0.052,0,0.093,0.021,0.125,0.062C5.101,7.926,5.117,7.963,5.117,7.994z
	 M5.957,7.652l0.155,4.385l-0.155,2.1c-0.011,0.125-0.07,0.186-0.179,0.186c-0.109,0-0.174-0.062-0.194-0.186l-0.14-2.1l0.14-4.385
	c0-0.052,0.021-0.099,0.062-0.14c0.041-0.041,0.086-0.062,0.133-0.062s0.085,0.021,0.117,0.062C5.925,7.553,5.946,7.6,5.957,7.652z
	 M6.812,14.137l0.125-2.1L6.812,7.496c-0.01-0.052-0.036-0.099-0.077-0.14c-0.042-0.041-0.088-0.062-0.14-0.062
	c-0.052,0-0.099,0.021-0.14,0.062c-0.041,0.042-0.062,0.089-0.062,0.14l-0.125,4.541l0.125,2.1c0.01,0.052,0.031,0.099,0.062,0.14
	c0.031,0.042,0.078,0.057,0.14,0.046C6.719,14.323,6.791,14.262,6.812,14.137z M7.651,7.621l0.125,4.417l-0.125,2.069
	c0,0.062-0.026,0.114-0.077,0.156c-0.052,0.041-0.099,0.062-0.14,0.062c-0.042,0-0.093-0.015-0.156-0.046s-0.083-0.088-0.062-0.171
	l-0.124-2.069l0.124-4.417c0-0.073,0.021-0.13,0.062-0.172C7.32,7.408,7.372,7.392,7.434,7.403s0.109,0.026,0.14,0.046
	C7.605,7.471,7.631,7.527,7.651,7.621z M8.507,7.776l0.125,4.277L8.507,14.09c0,0.062-0.026,0.119-0.078,0.172
	c-0.052,0.052-0.104,0.072-0.155,0.062c-0.052-0.01-0.109-0.031-0.171-0.062C8.04,14.23,8.014,14.174,8.025,14.09l-0.093-2.037
	l0.093-4.277c0.01-0.072,0.036-0.129,0.078-0.171c0.041-0.041,0.098-0.062,0.171-0.062c0.072,0,0.124,0.021,0.155,0.062
	C8.46,7.647,8.486,7.704,8.507,7.776z M9.378,13.873l0.093-1.82L9.362,6.967c0-0.093-0.036-0.166-0.109-0.217
	c-0.052-0.021-0.099-0.031-0.14-0.031c-0.042,0-0.088,0.01-0.14,0.031C8.901,6.802,8.865,6.874,8.865,6.967L8.849,7.014
	l-0.078,5.023l0.093,2.053c0,0.062,0.016,0.115,0.047,0.156c0.052,0.062,0.114,0.093,0.187,0.093c0.072,0,0.134-0.024,0.186-0.07
	c0.052-0.047,0.078-0.106,0.078-0.179L9.378,13.873z M10.342,12.053l-0.124,2.006c0,0.073-0.026,0.135-0.078,0.187
	c-0.052,0.052-0.114,0.077-0.187,0.077s-0.135-0.025-0.186-0.077c-0.052-0.052-0.083-0.114-0.093-0.187L9.58,12.053l0.093-5.552
	c0.01-0.083,0.044-0.148,0.101-0.194c0.057-0.046,0.114-0.07,0.171-0.07c0.057,0,0.101,0.015,0.132,0.046
	c0.083,0.042,0.129,0.115,0.14,0.218L10.342,12.053z M20,11.882c0,0.674-0.244,1.25-0.731,1.726
	c-0.487,0.478-1.063,0.715-1.726,0.715h-6.828c-0.073-0.01-0.135-0.041-0.186-0.093c-0.052-0.052-0.078-0.115-0.078-0.187V6.237
	c0-0.125,0.083-0.218,0.249-0.28c0.488-0.197,1.011-0.295,1.571-0.295c1.12,0,2.094,0.379,2.924,1.135
	c0.829,0.757,1.291,1.695,1.384,2.815c0.311-0.125,0.633-0.187,0.964-0.187c0.674,0,1.249,0.238,1.726,0.715
	S19.989,11.198,20,11.882z"/>
</svg>
