<?xml version="1.0" encoding="utf-8"?>
<!-- Generator: Adobe Illustrator 17.0.0, SVG Export Plug-In . SVG Version: 6.00 Build 0)  -->
<!DOCTYPE svg PUBLIC "-//W3C//DTD SVG 1.1//EN" "http://www.w3.org/Graphics/SVG/1.1/DTD/svg11.dtd">
<svg version="1.1" id="Слой_1" xmlns="http://www.w3.org/2000/svg" xmlns:xlink="http://www.w3.org/1999/xlink" x="0px" y="0px"
	 width="20px" height="20px" viewBox="0 0 20 20" enable-background="new 0 0 20 20" xml:space="preserve">
<path d="M19.996,8.565v2.894c0,0.109-0.031,0.21-0.094,0.303c-0.062,0.093-0.148,0.148-0.256,0.163l-2.427,0.373
	c-0.156,0.467-0.319,0.864-0.49,1.191c0.295,0.42,0.754,1.019,1.377,1.796c0.093,0.093,0.14,0.195,0.14,0.304
	c0,0.108-0.039,0.21-0.116,0.303c-0.234,0.327-0.662,0.801-1.284,1.423c-0.623,0.623-1.035,0.926-1.237,0.91
	c-0.108,0-0.217-0.039-0.327-0.117l-1.796-1.4c-0.389,0.202-0.786,0.366-1.19,0.49c-0.141,1.182-0.265,1.991-0.374,2.427
	c-0.062,0.249-0.217,0.374-0.466,0.374H8.563c-0.124,0-0.233-0.04-0.327-0.117c-0.093-0.079-0.14-0.172-0.14-0.28l-0.373-2.404
	c-0.421-0.14-0.809-0.303-1.167-0.49l-1.844,1.4c-0.093,0.078-0.202,0.117-0.327,0.117s-0.233-0.047-0.327-0.141
	c-1.089-0.995-1.805-1.726-2.147-2.193c-0.062-0.078-0.093-0.171-0.093-0.28c0-0.108,0.039-0.21,0.117-0.303
	c0.124-0.187,0.342-0.475,0.653-0.864c0.31-0.388,0.544-0.7,0.7-0.933c-0.234-0.435-0.412-0.863-0.536-1.283l-2.38-0.35
	c-0.109-0.015-0.195-0.07-0.256-0.163C0.054,11.622,0.015,11.52,0,11.412V8.518c0-0.108,0.039-0.21,0.117-0.303
	C0.195,8.121,0.272,8.067,0.35,8.052l2.427-0.374C2.9,7.289,3.072,6.893,3.29,6.488C2.932,5.991,2.466,5.392,1.89,4.691
	C1.796,4.583,1.75,4.482,1.75,4.388c0-0.093,0.039-0.194,0.117-0.303C2.1,3.774,2.527,3.307,3.15,2.685
	c0.622-0.622,1.034-0.933,1.236-0.933c0.109,0,0.226,0.039,0.35,0.117l1.796,1.4C6.906,3.067,7.295,2.903,7.7,2.778
	C7.84,1.596,7.972,0.787,8.096,0.352c0.047-0.233,0.202-0.35,0.466-0.35h2.894c0.108,0,0.21,0.031,0.303,0.093
	c0.094,0.063,0.148,0.156,0.163,0.28l0.35,2.403c0.435,0.14,0.824,0.303,1.167,0.49l1.867-1.4c0.078-0.078,0.175-0.117,0.291-0.117
	s0.23,0.039,0.338,0.117c1.12,1.042,1.835,1.781,2.147,2.216c0.063,0.078,0.094,0.171,0.094,0.28c0,0.109-0.031,0.21-0.094,0.303
	l-1.377,1.797c0.218,0.435,0.397,0.863,0.537,1.283l2.379,0.35c0.109,0.015,0.202,0.069,0.28,0.163
	C19.98,8.355,20.011,8.456,19.996,8.565z M13.323,9.988c0-0.917-0.319-1.703-0.957-2.356c-0.638-0.653-1.423-0.98-2.356-0.98
	s-1.718,0.327-2.356,0.98s-0.965,1.439-0.98,2.356c-0.016,0.918,0.31,1.703,0.98,2.357c0.668,0.653,1.454,0.98,2.356,0.98
	s1.688-0.327,2.356-0.98C13.035,11.691,13.354,10.906,13.323,9.988z"/>
</svg>
