<?xml version="1.0" encoding="utf-8"?>
<!-- Generator: Adobe Illustrator 17.0.0, SVG Export Plug-In . SVG Version: 6.00 Build 0)  -->
<!DOCTYPE svg PUBLIC "-//W3C//DTD SVG 1.1//EN" "http://www.w3.org/Graphics/SVG/1.1/DTD/svg11.dtd">
<svg version="1.1" id="Слой_1" xmlns="http://www.w3.org/2000/svg" xmlns:xlink="http://www.w3.org/1999/xlink" x="0px" y="0px"
	 width="20px" height="20px" viewBox="0 0 20 20" enable-background="new 0 0 20 20" xml:space="preserve">
<path d="M20,4.448v11.104c0,0.301-0.114,0.56-0.342,0.778c-0.229,0.218-0.488,0.332-0.778,0.342H1.104
	c-0.301,0-0.56-0.114-0.778-0.342C0.109,16.102,0,15.842,0,15.552V4.448c0-0.301,0.109-0.56,0.327-0.778
	c0.218-0.218,0.477-0.332,0.778-0.342h17.777c0.301,0,0.56,0.114,0.778,0.342C19.875,3.898,19.99,4.158,20,4.448z M3.235,7.792
	H2.131c-0.052,0-0.093,0.011-0.125,0.031C1.975,7.843,1.949,7.869,1.929,7.9L1.867,8.01C1.845,8.051,1.716,8.6,1.478,9.658
	l-0.374,1.665c0,0.042,0.021,0.077,0.062,0.109c0.041,0.031,0.077,0.047,0.109,0.047h0.544c0.145,0,0.238-0.099,0.28-0.296
	l0.125-0.606l0.279-0.295c0.28,0,0.534-0.021,0.762-0.062C3.494,10.176,3.727,10.104,3.966,10c0.238-0.103,0.42-0.254,0.544-0.451
	c0.125-0.197,0.197-0.44,0.218-0.731c0-0.218-0.042-0.399-0.125-0.544C4.521,8.129,4.401,8.025,4.246,7.963s-0.311-0.109-0.466-0.14
	C3.624,7.792,3.442,7.781,3.235,7.792z M2.799,9.58h-0.14c-0.104,0-0.156-0.052-0.156-0.156c0-0.166,0.052-0.415,0.156-0.746
	c0.031-0.083,0.077-0.14,0.14-0.171c0.062-0.031,0.14-0.041,0.234-0.031c0.445,0,0.668,0.14,0.668,0.42
	c0,0.238-0.088,0.409-0.264,0.513C3.261,9.512,3.048,9.57,2.799,9.58z M6.236,8.632c-0.217,0-0.43,0.015-0.637,0.046L5.443,8.709
	H5.381L5.319,8.74C5.277,8.761,5.256,8.766,5.256,8.756c0-0.011-0.015,0-0.046,0.031L5.163,8.834L5.117,8.896
	C5.086,8.938,5.075,8.963,5.086,8.973C5.033,9.14,5.008,9.254,5.008,9.316c0,0.062,0.025,0.088,0.077,0.077
	c0.031,0,0.093-0.01,0.187-0.031C5.366,9.342,5.422,9.321,5.443,9.3c0.176-0.041,0.342-0.062,0.497-0.062
	c0.436,0,0.654,0.104,0.654,0.311c0,0.062-0.031,0.104-0.093,0.125C6.459,9.684,6.408,9.689,6.345,9.689S6.221,9.694,6.159,9.705
	S6.045,9.72,6.003,9.72c-0.217,0.021-0.404,0.052-0.56,0.093C5.288,9.855,5.127,9.912,4.961,9.985
	c-0.166,0.072-0.301,0.181-0.404,0.327c-0.104,0.145-0.15,0.327-0.14,0.544c0.011,0.218,0.088,0.389,0.234,0.513
	c0.145,0.125,0.331,0.187,0.56,0.187c0.134,0,0.264-0.015,0.389-0.046c0.125-0.031,0.223-0.068,0.295-0.109
	c0.072-0.041,0.181-0.114,0.327-0.218C6.2,11.223,6.19,11.27,6.19,11.322c0,0.052,0.021,0.088,0.062,0.109l0.109,0.047h0.482
	L7.014,11.4c0.031-0.01,0.042-0.031,0.031-0.062c-0.01-0.031,0-0.052,0.031-0.062l0.389-1.679c0.021-0.073,0.031-0.161,0.031-0.265
	C7.496,8.865,7.076,8.632,6.236,8.632z M5.77,10.964c-0.28,0-0.42-0.083-0.42-0.249c0-0.352,0.358-0.529,1.073-0.529l0.031,0.015
	C6.423,10.71,6.195,10.964,5.77,10.964z M10.824,8.678h-0.638c-0.134,0-0.248,0.062-0.342,0.187C9.814,8.906,9.725,9.057,9.58,9.316
	C9.435,9.575,9.3,9.809,9.176,10.015c-0.125,0.208-0.197,0.322-0.218,0.342l-0.046-0.031c0-0.446-0.077-0.928-0.233-1.447
	L8.647,8.802C8.637,8.782,8.621,8.766,8.6,8.756C8.58,8.745,8.559,8.73,8.539,8.709C8.517,8.689,8.491,8.678,8.46,8.678
	c-0.031,0-0.052-0.005-0.062-0.015c-0.011-0.011-0.042-0.011-0.093,0c-0.052,0.01-0.077,0.005-0.077-0.016H8.072
	c-0.218,0-0.327,0.062-0.327,0.187V8.88c0.031,0.311,0.103,0.746,0.218,1.307c0.114,0.56,0.187,0.974,0.217,1.244
	c0.011,0.093,0.016,0.161,0.016,0.202c0,0.115-0.088,0.296-0.264,0.544c-0.177,0.249-0.264,0.415-0.264,0.498
	c0,0.083,0.118,0.124,0.358,0.124c0.352,0,0.57-0.072,0.653-0.217l2.131-3.609c0.052-0.114,0.077-0.191,0.077-0.233
	C10.887,8.699,10.865,8.678,10.824,8.678z M12.924,7.807h-1.12c-0.103,0-0.186,0.068-0.248,0.203
	c-0.042,0.072-0.177,0.627-0.405,1.664l-0.358,1.649c0,0.125,0.125,0.187,0.374,0.187h0.217l0.093-0.016
	c0.062-0.01,0.083-0.015,0.062-0.015c-0.021,0,0.005-0.011,0.078-0.031c0.072-0.021,0.093-0.031,0.062-0.031
	c-0.03,0-0.015-0.021,0.047-0.062c0.062-0.042,0.072-0.062,0.031-0.062l0.171-0.794c0.011-0.062,0.042-0.114,0.093-0.155
	c0.052-0.042,0.109-0.062,0.171-0.062c0.27,0,0.524-0.021,0.762-0.062c0.238-0.042,0.472-0.109,0.699-0.203
	c0.229-0.093,0.41-0.243,0.544-0.45c0.135-0.207,0.202-0.451,0.202-0.731c0-0.207-0.041-0.383-0.124-0.529
	c-0.084-0.145-0.203-0.254-0.358-0.327c-0.156-0.073-0.306-0.114-0.451-0.125L12.924,7.807z M12.473,9.596h-0.125
	c-0.114,0-0.171-0.057-0.171-0.172c0-0.156,0.057-0.399,0.171-0.731c0.031-0.093,0.072-0.15,0.125-0.172
	c0.052-0.021,0.134-0.031,0.249-0.031c0.446,0,0.668,0.14,0.668,0.42c0,0.239-0.088,0.41-0.264,0.513
	C12.95,9.528,12.732,9.585,12.473,9.596z M15.926,8.632c-0.156,0-0.368,0.015-0.638,0.046c-0.229,0.042-0.365,0.088-0.412,0.14
	c-0.046,0.052-0.08,0.109-0.101,0.171c-0.052,0.134-0.077,0.238-0.077,0.311c0,0.073,0.026,0.109,0.077,0.109L15.132,9.3
	c0.166-0.041,0.332-0.062,0.497-0.062c0.425,0,0.638,0.104,0.638,0.311c0,0.073-0.026,0.114-0.077,0.125
	c-0.031,0-0.197,0.021-0.498,0.062c-0.217,0.021-0.404,0.046-0.56,0.077c-0.156,0.031-0.321,0.088-0.497,0.172
	c-0.177,0.083-0.306,0.197-0.389,0.342c-0.084,0.145-0.13,0.327-0.14,0.544c-0.01,0.218,0.068,0.383,0.234,0.497
	c0.166,0.115,0.352,0.177,0.56,0.187c0.134,0,0.264-0.015,0.389-0.046c0.125-0.031,0.223-0.068,0.295-0.109
	c0.072-0.041,0.181-0.114,0.327-0.218l-0.031,0.14c0,0.031,0.005,0.057,0.016,0.077c0.01,0.021,0.031,0.036,0.062,0.047
	c0.031,0.01,0.052,0.021,0.062,0.031c0.011,0.01,0.042,0.015,0.093,0.015c0.052,0,0.083,0.005,0.093,0.016h0.14
	c0.249,0,0.389-0.073,0.42-0.218l0.389-1.695c0.021-0.084,0.031-0.172,0.031-0.265C17.185,8.865,16.765,8.632,15.926,8.632z
	 M15.444,10.98c-0.27,0-0.405-0.088-0.405-0.264c0-0.352,0.358-0.529,1.073-0.529l0.016,0.015
	C16.107,10.721,15.879,10.98,15.444,10.98z M18.725,7.838h-0.482c-0.145,0-0.238,0.115-0.28,0.342
	c-0.062,0.259-0.171,0.746-0.327,1.462c-0.155,0.715-0.279,1.265-0.373,1.649v0.031c0,0.093,0.046,0.145,0.14,0.156h0.513
	c0.052,0,0.103-0.016,0.156-0.047c0.052-0.031,0.083-0.077,0.093-0.14l0.715-3.25V7.994c0-0.041-0.016-0.077-0.047-0.109
	S18.766,7.838,18.725,7.838z"/>
</svg>
