<?xml version="1.0" encoding="utf-8"?>
<!-- Generator: Adobe Illustrator 17.0.0, SVG Export Plug-In . SVG Version: 6.00 Build 0)  -->
<!DOCTYPE svg PUBLIC "-//W3C//DTD SVG 1.1//EN" "http://www.w3.org/Graphics/SVG/1.1/DTD/svg11.dtd">
<svg version="1.1" id="Слой_1" xmlns="http://www.w3.org/2000/svg" xmlns:xlink="http://www.w3.org/1999/xlink" x="0px" y="0px"
	 width="20px" height="20px" viewBox="0 0 20 20" enable-background="new 0 0 20 20" xml:space="preserve">
<path d="M18.79,4.558c-0.494,0.721-1.094,1.341-1.8,1.86v0.46c0,0.974-0.14,1.94-0.42,2.9c-0.28,0.96-0.707,1.887-1.28,2.779
	c-0.574,0.894-1.26,1.674-2.06,2.341c-0.8,0.666-1.76,1.213-2.88,1.64c-1.12,0.427-2.327,0.627-3.62,0.6
	c-2.014,0-3.854-0.54-5.52-1.62c0.253,0.04,0.54,0.061,0.86,0.061c1.68,0,3.173-0.514,4.48-1.54c-0.787-0.026-1.487-0.267-2.1-0.72
	c-0.614-0.453-1.04-1.047-1.28-1.78c0.253,0.026,0.48,0.04,0.68,0.04c0.32,0,0.64-0.04,0.96-0.12c-0.84-0.173-1.534-0.587-2.08-1.24
	c-0.547-0.653-0.82-1.42-0.82-2.3v-0.04c0.506,0.28,1.053,0.434,1.64,0.46c-0.493-0.333-0.887-0.76-1.18-1.28
	c-0.293-0.52-0.44-1.1-0.44-1.739c0-0.641,0.167-1.24,0.5-1.801c0.906,1.107,2,1.994,3.28,2.66c1.28,0.667,2.667,1.034,4.16,1.101
	c-0.067-0.28-0.1-0.554-0.1-0.82c0-1,0.353-1.847,1.06-2.54c0.707-0.693,1.553-1.047,2.54-1.06c1.053,0,1.933,0.38,2.64,1.14
	c0.813-0.16,1.573-0.453,2.28-0.88c-0.267,0.854-0.793,1.52-1.58,2C17.403,5.039,18.097,4.852,18.79,4.558z"/>
</svg>
