<?xml version="1.0" encoding="utf-8"?>
<!-- Generator: Adobe Illustrator 17.0.0, SVG Export Plug-In . SVG Version: 6.00 Build 0)  -->
<!DOCTYPE svg PUBLIC "-//W3C//DTD SVG 1.1//EN" "http://www.w3.org/Graphics/SVG/1.1/DTD/svg11.dtd">
<svg version="1.1" id="Слой_1" xmlns="http://www.w3.org/2000/svg" xmlns:xlink="http://www.w3.org/1999/xlink" x="0px" y="0px"
	 width="20px" height="20px" viewBox="0 0 20 20" enable-background="new 0 0 20 20" xml:space="preserve">
<path d="M2.917,2.486v1.68H0v-1.68H2.917z M11.249,9.16v1.657H0V9.16H11.249z M4.574,15.835v1.657H0v-1.657H4.574z M7.491,0.829
	c0.234,0,0.435,0.078,0.607,0.233c0.171,0.156,0.249,0.358,0.234,0.607v3.314c0,0.233-0.079,0.435-0.234,0.606
	C7.942,5.762,7.74,5.839,7.491,5.823H4.177c-0.234,0-0.436-0.078-0.607-0.234C3.399,5.434,3.322,5.233,3.337,4.983V1.669
	c0-0.234,0.078-0.435,0.234-0.607c0.156-0.171,0.358-0.249,0.607-0.233H7.491z M9.171,14.155c0.218,0,0.412,0.085,0.584,0.256
	c0.171,0.171,0.256,0.366,0.256,0.583v3.338c0,0.217-0.085,0.412-0.256,0.583c-0.172,0.171-0.366,0.257-0.584,0.257H5.834
	c-0.218,0-0.412-0.086-0.583-0.257c-0.172-0.171-0.257-0.366-0.257-0.583v-3.338c0-0.233,0.085-0.427,0.257-0.583
	c0.171-0.156,0.365-0.241,0.583-0.256H9.171z M20,2.486v1.68H8.751v-1.68H20z M20,15.835v1.657h-9.592v-1.657H20z M15.846,7.504
	c0.217,0,0.412,0.078,0.584,0.233c0.171,0.156,0.248,0.35,0.233,0.584v3.337c0,0.234-0.078,0.428-0.233,0.583
	c-0.156,0.156-0.35,0.242-0.584,0.257h-3.337c-0.234,0-0.428-0.085-0.584-0.257c-0.156-0.171-0.241-0.365-0.256-0.583V8.321
	c0-0.218,0.085-0.412,0.256-0.584c0.171-0.171,0.366-0.249,0.584-0.233H15.846z M20,9.16v1.657h-2.917V9.16H20z"/>
</svg>
