<?xml version="1.0" encoding="utf-8"?>
<!-- Generator: Adobe Illustrator 17.0.0, SVG Export Plug-In . SVG Version: 6.00 Build 0)  -->
<!DOCTYPE svg PUBLIC "-//W3C//DTD SVG 1.1//EN" "http://www.w3.org/Graphics/SVG/1.1/DTD/svg11.dtd">
<svg version="1.1" id="Слой_1" xmlns="http://www.w3.org/2000/svg" xmlns:xlink="http://www.w3.org/1999/xlink" x="0px" y="0px"
	 width="20px" height="20px" viewBox="0 0 20 20" enable-background="new 0 0 20 20" xml:space="preserve">
<path d="M9.01,9.59c0,0.267,0.12,0.533,0.36,0.8c0.24,0.268,0.526,0.514,0.86,0.74c0.333,0.227,0.673,0.5,1.02,0.82
	c0.347,0.319,0.633,0.713,0.86,1.18s0.347,0.993,0.36,1.58c0,0.667-0.18,1.307-0.54,1.92c-0.534,0.907-1.32,1.58-2.36,2.021
	c-1.04,0.439-2.146,0.652-3.32,0.64c-0.987,0-1.907-0.16-2.76-0.48c-0.854-0.319-1.487-0.826-1.9-1.52
	c-0.28-0.453-0.42-0.94-0.42-1.46c0-0.613,0.167-1.173,0.5-1.68s0.773-0.934,1.32-1.28c0.973-0.613,2.473-0.986,4.5-1.12
	c-0.24-0.32-0.414-0.593-0.52-0.82c-0.107-0.227-0.167-0.5-0.18-0.819c0-0.267,0.08-0.587,0.24-0.96c-0.347,0.04-0.6,0.06-0.76,0.06
	c-1.107,0-2.033-0.36-2.78-1.08c-0.747-0.72-1.127-1.633-1.14-2.74c0-0.6,0.133-1.187,0.4-1.76s0.633-1.06,1.1-1.46
	c0.573-0.493,1.253-0.86,2.04-1.1c0.787-0.24,1.6-0.36,2.44-0.36h4.66l-1.54,0.98H9.99c0.546,0.467,0.96,0.96,1.24,1.479
	c0.28,0.521,0.42,1.12,0.42,1.8c0,0.533-0.087,1.014-0.26,1.44c-0.173,0.427-0.394,0.773-0.66,1.04s-0.527,0.507-0.78,0.72
	c-0.253,0.214-0.474,0.44-0.66,0.68C9.103,9.09,9.01,9.337,9.01,9.59z M7.41,18.269c0.426,0,0.84-0.047,1.24-0.14
	c0.4-0.094,0.767-0.24,1.1-0.439c0.333-0.2,0.606-0.474,0.82-0.82s0.313-0.753,0.3-1.22c0-0.187-0.027-0.367-0.08-0.54
	c-0.053-0.174-0.107-0.334-0.16-0.48s-0.153-0.3-0.3-0.46c-0.147-0.16-0.253-0.286-0.32-0.38c-0.067-0.093-0.214-0.227-0.44-0.4
	c-0.227-0.173-0.36-0.279-0.4-0.319s-0.193-0.146-0.46-0.32c-0.267-0.173-0.407-0.273-0.42-0.3c-0.107-0.014-0.28-0.021-0.52-0.021
	c-0.4,0-0.793,0.027-1.18,0.08c-0.387,0.054-0.787,0.147-1.2,0.28c-0.414,0.134-0.773,0.3-1.08,0.5s-0.56,0.479-0.76,0.84
	c-0.2,0.36-0.3,0.754-0.3,1.18c0,0.521,0.126,0.98,0.38,1.381c0.253,0.399,0.593,0.706,1.02,0.92c0.427,0.213,0.873,0.38,1.34,0.5
	C6.457,18.229,6.93,18.283,7.41,18.269z M7.39,8.53c0.28,0,0.566-0.066,0.86-0.2c0.293-0.133,0.54-0.293,0.74-0.48
	c0.4-0.426,0.6-1.02,0.6-1.779c0-0.427-0.067-0.887-0.2-1.38C9.257,4.197,9.077,3.71,8.85,3.229C8.623,2.75,8.31,2.37,7.91,2.09
	s-0.833-0.433-1.3-0.46c-0.32,0-0.626,0.073-0.92,0.22C5.396,1.997,5.15,2.19,4.95,2.429C4.603,2.87,4.43,3.464,4.43,4.21
	c0,0.347,0.033,0.714,0.1,1.1C4.597,5.697,4.717,6.077,4.89,6.45c0.173,0.373,0.367,0.72,0.58,1.04
	c0.213,0.319,0.493,0.566,0.84,0.739C6.657,8.403,7.017,8.503,7.39,8.53z M16.45,8.49h2.38v1.2h-2.38v2.439h-1.18V9.69h-2.36v-1.2
	h2.36V6.07h1.18V8.49z"/>
</svg>
