<?xml version="1.0" encoding="utf-8"?>
<!-- Generator: Adobe Illustrator 17.0.0, SVG Export Plug-In . SVG Version: 6.00 Build 0)  -->
<!DOCTYPE svg PUBLIC "-//W3C//DTD SVG 1.1//EN" "http://www.w3.org/Graphics/SVG/1.1/DTD/svg11.dtd">
<svg version="1.1" id="Слой_1" xmlns="http://www.w3.org/2000/svg" xmlns:xlink="http://www.w3.org/1999/xlink" x="0px" y="0px"
	 width="20px" height="20px" viewBox="0 0 20 20" enable-background="new 0 0 20 20" xml:space="preserve">
<path d="M18.57,14.28c0,1.187-0.42,2.2-1.26,3.04s-1.847,1.26-3.02,1.26c-0.974,0-1.848-0.3-2.62-0.9
	c-0.573,0.12-1.127,0.181-1.66,0.181c-1.067,0-2.087-0.207-3.061-0.62c-0.973-0.413-1.813-0.974-2.52-1.681
	c-0.707-0.706-1.26-1.54-1.66-2.5C2.371,12.1,2.164,11.08,2.15,10c0-0.547,0.061-1.106,0.181-1.68C1.73,7.547,1.43,6.68,1.43,5.72
	c0-1.187,0.42-2.2,1.26-3.04S4.537,1.42,5.71,1.42c0.973,0,1.847,0.3,2.62,0.9C8.903,2.2,9.463,2.14,10.01,2.14
	c1.053,0,2.066,0.207,3.04,0.62c0.973,0.414,1.813,0.974,2.52,1.681c0.707,0.706,1.261,1.54,1.66,2.5
	c0.4,0.96,0.606,1.979,0.62,3.06c0,0.547-0.06,1.106-0.18,1.68C18.27,12.453,18.57,13.32,18.57,14.28z M14.53,11.86
	c0-0.373-0.073-0.714-0.22-1.021s-0.327-0.56-0.54-0.76s-0.486-0.38-0.82-0.54c-0.333-0.16-0.64-0.286-0.92-0.38
	C11.75,9.066,11.423,8.98,11.05,8.9L9.39,8.5C9.284,8.474,9.157,8.434,9.01,8.38C8.864,8.327,8.75,8.267,8.67,8.2
	S8.53,8.054,8.49,7.96c-0.04-0.093-0.066-0.2-0.079-0.32c0-0.573,0.532-0.859,1.6-0.859c0.32,0,0.606,0.04,0.86,0.12
	c0.253,0.08,0.453,0.187,0.6,0.319l0.42,0.38c0.133,0.12,0.286,0.228,0.46,0.32c0.173,0.094,0.354,0.14,0.54,0.14
	c0.347,0,0.627-0.119,0.84-0.359s0.32-0.526,0.32-0.86c0-0.413-0.214-0.78-0.64-1.1c-0.428-0.32-0.954-0.573-1.58-0.76
	C11.204,4.793,10.53,4.707,9.81,4.72c-0.507,0-1,0.061-1.479,0.181C7.85,5.02,7.403,5.193,6.99,5.42S6.25,5.967,6.01,6.38
	S5.643,7.273,5.63,7.82c0,0.453,0.066,0.854,0.2,1.199C5.963,9.367,6.176,9.646,6.47,9.86c0.293,0.213,0.587,0.394,0.88,0.54
	s0.68,0.267,1.16,0.359l1.62,0.4c0.68,0.16,1.1,0.293,1.26,0.399c0.24,0.147,0.36,0.367,0.36,0.66c0,0.294-0.153,0.54-0.46,0.74
	c-0.308,0.2-0.693,0.294-1.16,0.28c-0.387,0-0.728-0.061-1.021-0.181c-0.293-0.119-0.54-0.267-0.739-0.439
	c-0.2-0.173-0.367-0.34-0.5-0.5c-0.134-0.16-0.308-0.3-0.521-0.42s-0.413-0.181-0.6-0.181c-0.374,0-0.653,0.114-0.84,0.341
	c-0.188,0.227-0.28,0.5-0.28,0.819c0,0.693,0.453,1.28,1.359,1.761c0.907,0.479,1.987,0.727,3.24,0.739
	c0.547,0,1.066-0.066,1.561-0.199c0.493-0.134,0.953-0.334,1.38-0.601s0.753-0.613,0.979-1.04S14.503,12.42,14.53,11.86z"/>
</svg>
