<?xml version="1.0" encoding="utf-8"?>
<!-- Generator: Adobe Illustrator 17.0.0, SVG Export Plug-In . SVG Version: 6.00 Build 0)  -->
<!DOCTYPE svg PUBLIC "-//W3C//DTD SVG 1.1//EN" "http://www.w3.org/Graphics/SVG/1.1/DTD/svg11.dtd">
<svg version="1.1" id="Слой_1" xmlns="http://www.w3.org/2000/svg" xmlns:xlink="http://www.w3.org/1999/xlink" x="0px" y="0px"
	 width="20px" height="20px" viewBox="0 0 20 20" enable-background="new 0 0 20 20" xml:space="preserve">
<path d="M15.426,10.002c0,0.218-0.086,0.413-0.257,0.584L8.098,17.68c-0.172,0.156-0.373,0.234-0.607,0.234
	c-0.234,0-0.428-0.078-0.584-0.234c-0.155-0.156-0.233-0.35-0.233-0.583V13.34H0.84c-0.234,0-0.428-0.085-0.584-0.257
	C0.101,12.911,0.015,12.718,0,12.499V7.505c0-0.234,0.085-0.428,0.256-0.584c0.171-0.155,0.366-0.24,0.584-0.256h5.834V2.908
	c0-0.218,0.078-0.412,0.233-0.584c0.156-0.171,0.35-0.249,0.584-0.234c0.234,0.016,0.435,0.094,0.607,0.234l7.071,7.094
	C15.339,9.575,15.426,9.769,15.426,10.002z M20,5.428v9.148c0,1.043-0.367,1.93-1.097,2.661c-0.732,0.731-1.619,1.097-2.661,1.097
	h-4.154c-0.108,0-0.21-0.039-0.303-0.117s-0.133-0.179-0.117-0.303l-0.024-0.257c-0.015-0.14-0.015-0.256,0-0.349l0.047-0.304
	c0.015-0.108,0.054-0.194,0.116-0.256c0.063-0.062,0.156-0.085,0.28-0.07h4.154c0.575,0,1.065-0.21,1.47-0.63
	c0.405-0.421,0.614-0.911,0.631-1.471V5.428c0-0.575-0.21-1.065-0.631-1.47c-0.42-0.404-0.91-0.614-1.47-0.63h-4.201
	c-0.093,0-0.14-0.015-0.14-0.047c0-0.031-0.039-0.054-0.117-0.07c-0.078-0.016-0.109-0.055-0.093-0.117
	c0.015-0.062,0.008-0.124-0.024-0.187l-0.024-0.257c-0.015-0.14-0.015-0.257,0-0.35l0.047-0.303
	c0.015-0.109,0.054-0.195,0.116-0.257c0.063-0.062,0.156-0.085,0.28-0.07h4.154c1.042,0,1.929,0.366,2.661,1.097
	C19.633,3.499,20,4.386,20,5.428z"/>
</svg>
