<?xml version="1.0" encoding="utf-8"?>
<!-- Generator: Adobe Illustrator 17.0.0, SVG Export Plug-In . SVG Version: 6.00 Build 0)  -->
<!DOCTYPE svg PUBLIC "-//W3C//DTD SVG 1.1//EN" "http://www.w3.org/Graphics/SVG/1.1/DTD/svg11.dtd">
<svg version="1.1" id="Слой_1" xmlns="http://www.w3.org/2000/svg" xmlns:xlink="http://www.w3.org/1999/xlink" x="0px" y="0px"
	 width="20px" height="20px" viewBox="0 0 20 20" enable-background="new 0 0 20 20" xml:space="preserve">
<path d="M20,7.847c0,0.173-0.108,0.366-0.323,0.582l-4.37,4.241l1.034,6.007c0.014,0.057,0.022,0.144,0.022,0.258
	c0,0.401-0.166,0.603-0.496,0.603c-0.144,0-0.301-0.05-0.473-0.151l-5.404-2.842l-5.382,2.842c-0.187,0.101-0.355,0.151-0.506,0.151
	c-0.151,0-0.269-0.065-0.355-0.194c-0.086-0.13-0.129-0.265-0.129-0.409c0-0.058,0.007-0.144,0.021-0.258l1.034-6.007l-4.37-4.241
	C0.1,8.213,0,8.019,0,7.847C0,7.545,0.223,7.36,0.668,7.288l6.028-0.862l2.712-5.468c0.159-0.33,0.352-0.495,0.582-0.495
	s0.431,0.165,0.603,0.495l2.691,5.468l6.028,0.862C19.77,7.36,20,7.545,20,7.847z M13.649,12.131l3.681-3.552l-5.059-0.753
	L9.989,3.24l-2.26,4.586L2.648,8.579l3.681,3.552L5.446,17.19l4.543-2.39l4.543,2.39L13.649,12.131z"/>
</svg>
