<?xml version="1.0" encoding="utf-8"?>
<!-- Generator: Adobe Illustrator 17.0.0, SVG Export Plug-In . SVG Version: 6.00 Build 0)  -->
<!DOCTYPE svg PUBLIC "-//W3C//DTD SVG 1.1//EN" "http://www.w3.org/Graphics/SVG/1.1/DTD/svg11.dtd">
<svg version="1.1" id="Слой_1" xmlns="http://www.w3.org/2000/svg" xmlns:xlink="http://www.w3.org/1999/xlink" x="0px" y="0px"
	 width="20px" height="20px" viewBox="0 0 20 20" enable-background="new 0 0 20 20" xml:space="preserve">
<path d="M20,9.815c0,0.422-0.102,0.807-0.307,1.157c-0.205,0.349-0.482,0.626-0.831,0.831c0.024,0.216,0.036,0.422,0.036,0.614
	c0,0.807-0.228,1.578-0.686,2.312c-0.458,0.735-1.12,1.386-1.988,1.951c-0.843,0.554-1.801,0.976-2.872,1.265
	c-1.073,0.289-2.202,0.437-3.388,0.443c-1.187,0.005-2.316-0.142-3.388-0.443c-1.073-0.302-2.03-0.723-2.873-1.265
	c-0.867-0.565-1.53-1.21-1.987-1.933c-0.458-0.723-0.693-1.5-0.705-2.331c0-0.205,0.018-0.427,0.054-0.669
	c-0.325-0.205-0.584-0.482-0.776-0.831C0.096,10.568,0,10.201,0,9.815c0-0.626,0.222-1.163,0.669-1.608
	C1.114,7.761,1.65,7.538,2.276,7.538c0.554,0,1.054,0.187,1.5,0.56c1.662-1.06,3.65-1.614,5.963-1.662l1.355-4.264
	c0.024-0.096,0.084-0.168,0.181-0.217c0.096-0.048,0.192-0.06,0.288-0.036l3.487,0.831c0.145-0.337,0.373-0.614,0.686-0.831
	c0.313-0.217,0.663-0.318,1.048-0.307c0.518,0,0.957,0.181,1.319,0.542c0.362,0.362,0.542,0.807,0.542,1.337s-0.18,0.97-0.542,1.319
	c-0.362,0.349-0.801,0.53-1.319,0.542c-0.518,0.012-0.958-0.162-1.319-0.524c-0.362-0.361-0.549-0.8-0.56-1.319l-3.179-0.74
	l-1.175,3.686c2.205,0.096,4.09,0.656,5.656,1.68c0.421-0.397,0.927-0.596,1.517-0.596c0.626,0,1.162,0.223,1.608,0.669
	C19.778,8.652,20,9.189,20,9.815z M0.777,9.815c0,0.458,0.168,0.831,0.505,1.12c0.337-0.88,0.946-1.668,1.825-2.367
	C2.866,8.4,2.589,8.315,2.276,8.315c-0.409,0-0.765,0.145-1.066,0.434C0.91,9.038,0.765,9.393,0.777,9.815z M15.791,16.049
	c0.759-0.494,1.337-1.054,1.734-1.681c0.397-0.626,0.595-1.277,0.595-1.951c0-0.674-0.198-1.325-0.595-1.951
	c-0.398-0.626-0.979-1.189-1.744-1.689c-0.765-0.499-1.653-0.882-2.665-1.147c-1.011-0.265-2.065-0.403-3.162-0.416
	C8.859,7.201,7.805,7.34,6.793,7.629C5.782,7.918,4.89,8.304,4.119,8.786C3.373,9.28,2.8,9.839,2.403,10.465
	c-0.398,0.626-0.603,1.277-0.614,1.951c-0.012,0.675,0.192,1.325,0.614,1.951c0.422,0.626,0.993,1.187,1.716,1.681
	c0.783,0.494,1.674,0.879,2.674,1.156c1,0.277,2.054,0.416,3.162,0.416s2.162-0.139,3.162-0.416
	C14.117,16.927,15.008,16.543,15.791,16.049z M8.383,11.332c0,0.374-0.139,0.693-0.416,0.958c-0.278,0.265-0.605,0.401-0.985,0.406
	c-0.38,0.007-0.702-0.129-0.967-0.406c-0.266-0.277-0.404-0.596-0.416-0.958c0-0.386,0.139-0.716,0.416-0.993
	c0.277-0.277,0.602-0.416,0.976-0.416c0.373,0,0.698,0.139,0.976,0.416C8.245,10.616,8.383,10.947,8.383,11.332z M12.683,14.711
	c0.072-0.072,0.162-0.109,0.271-0.109c0.109,0,0.198,0.036,0.271,0.109s0.109,0.162,0.109,0.271c0,0.109-0.036,0.206-0.109,0.289
	c-0.663,0.663-1.734,0.993-3.216,0.993H9.991c-1.481,0-2.553-0.331-3.216-0.993c-0.072-0.084-0.109-0.181-0.109-0.289
	c0-0.109,0.036-0.198,0.109-0.271c0.072-0.072,0.162-0.109,0.271-0.109c0.109,0,0.198,0.036,0.271,0.109
	c0.518,0.518,1.41,0.777,2.674,0.777h0.019C11.274,15.488,12.165,15.229,12.683,14.711z M13.026,9.924
	c0.373,0,0.699,0.139,0.976,0.416c0.277,0.277,0.413,0.605,0.407,0.985s-0.142,0.702-0.407,0.967
	c-0.265,0.265-0.59,0.401-0.976,0.406c-0.386,0.007-0.716-0.129-0.993-0.406c-0.278-0.277-0.416-0.603-0.416-0.976
	s0.144-0.699,0.433-0.976S12.665,9.924,13.026,9.924z M16.784,2.39c-0.313,0-0.573,0.109-0.777,0.325
	c-0.205,0.217-0.313,0.476-0.325,0.777c-0.012,0.301,0.096,0.56,0.325,0.777c0.228,0.216,0.488,0.325,0.777,0.325
	c0.289,0,0.548-0.109,0.777-0.325c0.228-0.217,0.331-0.476,0.307-0.777c-0.025-0.301-0.127-0.56-0.307-0.777
	C17.381,2.498,17.121,2.39,16.784,2.39z M18.645,11.008c0.386-0.313,0.579-0.711,0.579-1.193c0-0.409-0.145-0.765-0.434-1.066
	c-0.288-0.302-0.644-0.446-1.066-0.434c-0.326,0-0.614,0.097-0.867,0.289C17.735,9.303,18.332,10.104,18.645,11.008z"/>
</svg>
