<?xml version="1.0" encoding="utf-8"?>
<!-- Generator: Adobe Illustrator 17.0.0, SVG Export Plug-In . SVG Version: 6.00 Build 0)  -->
<!DOCTYPE svg PUBLIC "-//W3C//DTD SVG 1.1//EN" "http://www.w3.org/Graphics/SVG/1.1/DTD/svg11.dtd">
<svg version="1.1" id="Слой_1" xmlns="http://www.w3.org/2000/svg" xmlns:xlink="http://www.w3.org/1999/xlink" x="0px" y="0px"
	 width="20px" height="20px" viewBox="0 0 20 20" enable-background="new 0 0 20 20" xml:space="preserve">
<path d="M15.719,7.859c0,1.026-0.353,1.98-1.06,2.86c-0.707,0.88-1.66,1.573-2.86,2.08c-1.2,0.507-2.514,0.76-3.94,0.76
	c-0.64,0-1.293-0.06-1.96-0.181c-0.933,0.653-1.967,1.134-3.101,1.44c-0.28,0.067-0.6,0.127-0.959,0.18H1.8
	c-0.081,0-0.16-0.033-0.24-0.1c-0.081-0.067-0.12-0.146-0.12-0.24c-0.013-0.013-0.02-0.033-0.02-0.059s0.007-0.054,0.02-0.081
	c0.013-0.026,0.02-0.046,0.02-0.059l0.02-0.06l0.081-0.12l0.059-0.059c0.041-0.04,0.054-0.054,0.041-0.04l0.56-0.601
	c0.066-0.067,0.146-0.18,0.24-0.34c0.093-0.16,0.186-0.299,0.28-0.42c0.093-0.12,0.166-0.286,0.22-0.5
	c-0.92-0.533-1.64-1.187-2.16-1.96C0.28,9.585,0.013,8.751,0,7.859c0-1.04,0.353-2,1.06-2.88c0.707-0.88,1.66-1.573,2.861-2.08
	c1.2-0.507,2.513-0.76,3.94-0.76s2.74,0.253,3.94,0.76c1.2,0.507,2.153,1.2,2.86,2.08C15.366,5.858,15.719,6.818,15.719,7.859z
	 M20,10.698c0,0.894-0.267,1.733-0.8,2.52c-0.534,0.787-1.254,1.44-2.16,1.96c0.066,0.187,0.14,0.354,0.22,0.5
	c0.08,0.146,0.173,0.286,0.28,0.42l0.54,0.66c0.12,0.146,0.207,0.24,0.26,0.28l0.1,0.1l0.08,0.12l0.06,0.2
	c0,0.013-0.007,0.033-0.02,0.06c-0.027,0.107-0.073,0.193-0.14,0.26c-0.067,0.067-0.153,0.094-0.26,0.081
	c-0.361-0.054-0.68-0.114-0.96-0.181c-1.134-0.307-2.167-0.787-3.1-1.44c-0.667,0.12-1.32,0.18-1.96,0.18
	c-2.013,0-3.766-0.493-5.26-1.48c0.426,0.041,0.753,0.06,0.98,0.06c1.2,0,2.347-0.167,3.44-0.5c1.093-0.334,2.08-0.813,2.96-1.44
	c0.92-0.693,1.633-1.486,2.14-2.38c0.507-0.894,0.754-1.833,0.74-2.82c0-0.574-0.086-1.14-0.26-1.701
	c0.96,0.521,1.72,1.181,2.28,1.981C19.72,8.938,20,9.791,20,10.698z"/>
</svg>
