<?xml version="1.0" encoding="utf-8"?>
<!-- Generator: Adobe Illustrator 17.0.0, SVG Export Plug-In . SVG Version: 6.00 Build 0)  -->
<!DOCTYPE svg PUBLIC "-//W3C//DTD SVG 1.1//EN" "http://www.w3.org/Graphics/SVG/1.1/DTD/svg11.dtd">
<svg version="1.1" id="Слой_1" xmlns="http://www.w3.org/2000/svg" xmlns:xlink="http://www.w3.org/1999/xlink" x="0px" y="0px"
	 width="20px" height="20px" viewBox="0 0 20 20" enable-background="new 0 0 20 20" xml:space="preserve">
<path d="M19.971,5.119c0.162,0.448-0.361,1.467-1.566,3.058c-0.162,0.224-0.386,0.522-0.672,0.895
	c-0.547,0.697-0.858,1.15-0.932,1.361c-0.124,0.286-0.081,0.565,0.131,0.839c0.124,0.148,0.41,0.435,0.858,0.858h0.019v0.018
	l0.019,0.019c0.982,0.907,1.647,1.672,1.995,2.294l0.075,0.13c0.025,0.05,0.044,0.143,0.056,0.28c0.012,0.137,0.012,0.255,0,0.354
	c-0.012,0.1-0.1,0.193-0.261,0.28c-0.162,0.086-0.367,0.13-0.616,0.13l-2.666,0.056c-0.162,0.025-0.354,0.006-0.578-0.056
	c-0.224-0.063-0.404-0.137-0.541-0.224l-0.205-0.13c-0.212-0.149-0.454-0.373-0.728-0.671c-0.274-0.299-0.51-0.566-0.708-0.802
	c-0.199-0.236-0.41-0.435-0.634-0.596c-0.224-0.162-0.423-0.218-0.597-0.168c-0.012,0-0.037,0.013-0.074,0.037
	c-0.037,0.025-0.1,0.075-0.187,0.149c-0.087,0.075-0.162,0.174-0.224,0.299c-0.062,0.124-0.118,0.304-0.168,0.541
	c-0.05,0.236-0.075,0.51-0.075,0.82c0,0.099-0.013,0.193-0.037,0.28c-0.025,0.087-0.05,0.149-0.075,0.187l-0.037,0.056
	c-0.124,0.137-0.311,0.211-0.56,0.224H9.79c-0.497,0.037-1.001-0.019-1.511-0.168c-0.51-0.149-0.97-0.33-1.38-0.541
	c-0.41-0.211-0.764-0.442-1.063-0.69c-0.298-0.249-0.547-0.448-0.746-0.596L4.83,13.38l-0.28-0.299
	c-0.124-0.137-0.373-0.453-0.746-0.951c-0.373-0.497-0.74-1.02-1.1-1.567c-0.361-0.546-0.783-1.28-1.268-2.2
	C0.951,7.443,0.497,6.499,0.075,5.529C0.025,5.417,0,5.324,0,5.25c0-0.075,0.012-0.131,0.037-0.168l0.037-0.056
	c0.112-0.137,0.31-0.205,0.597-0.205l2.853-0.019c0.087,0.013,0.168,0.037,0.243,0.075c0.075,0.037,0.131,0.062,0.168,0.075
	L3.99,4.989c0.112,0.075,0.193,0.187,0.243,0.335C4.37,5.672,4.531,6.033,4.718,6.405l0.429,0.839l0.168,0.299
	c0.198,0.422,0.392,0.783,0.578,1.081C6.079,8.923,6.247,9.16,6.396,9.334c0.149,0.174,0.292,0.31,0.429,0.41
	c0.137,0.1,0.255,0.149,0.355,0.149c0.099,0,0.193-0.018,0.28-0.056l0.056-0.056C7.54,9.756,7.583,9.681,7.646,9.557
	c0.062-0.124,0.105-0.285,0.13-0.484l0.093-0.858c0.037-0.373,0.037-0.802,0-1.287C7.857,6.642,7.825,6.387,7.776,6.163
	s-0.093-0.385-0.13-0.484L7.571,5.567C7.397,5.331,7.105,5.182,6.695,5.119c-0.1-0.025-0.081-0.112,0.056-0.261
	c0.112-0.124,0.242-0.229,0.392-0.317c0.36-0.174,1.187-0.254,2.48-0.242c0.572,0.013,1.038,0.056,1.399,0.13
	c0.149,0.037,0.267,0.087,0.355,0.149c0.087,0.063,0.161,0.143,0.224,0.243c0.062,0.099,0.093,0.211,0.093,0.335
	c0,0.125,0.012,0.286,0.037,0.485c0.025,0.198,0.025,0.385,0,0.559c-0.025,0.174-0.037,0.422-0.037,0.746v0.858l-0.019,0.429
	c-0.013,0.212-0.013,0.38,0,0.504l0.037,0.411c0.012,0.149,0.05,0.286,0.112,0.41c0.062,0.125,0.142,0.212,0.242,0.261l0.168,0.037
	c0.062,0.013,0.155-0.025,0.28-0.112c0.124-0.087,0.255-0.205,0.392-0.354s0.317-0.385,0.541-0.708
	c0.224-0.323,0.46-0.697,0.709-1.119c0.41-0.721,0.783-1.498,1.119-2.331c0.025-0.075,0.056-0.137,0.093-0.187
	c0.037-0.049,0.075-0.086,0.112-0.112l0.037-0.037l0.205-0.056c0.1-0.025,0.168-0.025,0.205,0l2.983-0.018
	c0.274-0.037,0.497-0.031,0.672,0.018c0.174,0.05,0.28,0.112,0.317,0.187L19.971,5.119z"/>
</svg>
