<?xml version="1.0" encoding="utf-8"?>
<!-- Generator: Adobe Illustrator 17.0.0, SVG Export Plug-In . SVG Version: 6.00 Build 0)  -->
<!DOCTYPE svg PUBLIC "-//W3C//DTD SVG 1.1//EN" "http://www.w3.org/Graphics/SVG/1.1/DTD/svg11.dtd">
<svg version="1.1" id="Слой_1" xmlns="http://www.w3.org/2000/svg" xmlns:xlink="http://www.w3.org/1999/xlink" x="0px" y="0px"
	 width="20px" height="20px" viewBox="0 0 20 20" enable-background="new 0 0 20 20" xml:space="preserve">
<path d="M13.333,9.038v1.923c0,0.075-0.025,0.144-0.074,0.206c-0.05,0.062-0.106,0.1-0.168,0.112l-1.606,0.261
	c-0.074,0.237-0.187,0.498-0.336,0.784c0.236,0.337,0.548,0.735,0.934,1.195c0.049,0.075,0.074,0.15,0.074,0.224
	c0,0.074-0.025,0.138-0.074,0.187c-0.162,0.212-0.448,0.523-0.859,0.934c-0.41,0.41-0.685,0.616-0.821,0.616
	c-0.074,0-0.144-0.025-0.206-0.075l-1.194-0.933c-0.261,0.137-0.53,0.242-0.803,0.317c-0.074,0.747-0.156,1.289-0.243,1.625
	c-0.049,0.161-0.156,0.242-0.317,0.242H5.696c-0.075,0-0.144-0.025-0.206-0.074c-0.062-0.05-0.093-0.112-0.093-0.187l-0.242-1.587
	c-0.236-0.074-0.498-0.187-0.784-0.336l-1.232,0.933c-0.05,0.05-0.115,0.075-0.196,0.075c-0.081,0-0.159-0.025-0.233-0.075
	c-0.996-0.933-1.495-1.494-1.495-1.68c0-0.062,0.025-0.125,0.075-0.187c0.062-0.1,0.205-0.286,0.429-0.56
	c0.224-0.274,0.386-0.486,0.486-0.635c-0.162-0.299-0.286-0.585-0.374-0.859l-1.587-0.242c-0.062-0.012-0.118-0.043-0.168-0.093
	C0.025,11.099,0,11.031,0,10.943V9.019c0-0.074,0.025-0.143,0.074-0.205c0.05-0.062,0.106-0.1,0.168-0.112l1.606-0.261
	c0.087-0.236,0.199-0.498,0.336-0.785C1.948,7.32,1.637,6.922,1.251,6.461c-0.05-0.075-0.075-0.149-0.075-0.224
	c0-0.074,0.025-0.137,0.075-0.187C1.4,5.839,1.687,5.527,2.11,5.117C2.533,4.706,2.807,4.5,2.931,4.5
	c0.075,0,0.15,0.025,0.224,0.075l1.195,0.933c0.236-0.124,0.505-0.236,0.803-0.336C5.229,4.426,5.31,3.891,5.396,3.567
	c0.038-0.162,0.138-0.243,0.299-0.243h1.942c0.074,0,0.143,0.025,0.205,0.074c0.062,0.05,0.1,0.112,0.112,0.187l0.243,1.587
	C8.434,5.247,8.69,5.353,8.963,5.49l1.232-0.915c0.062-0.05,0.134-0.075,0.215-0.075c0.081,0,0.153,0.025,0.215,0.075
	c1.008,0.933,1.512,1.494,1.512,1.68c0,0.063-0.025,0.125-0.074,0.187l-0.448,0.56c-0.212,0.261-0.367,0.473-0.467,0.635
	c0.162,0.336,0.28,0.622,0.355,0.859l1.587,0.224c0.062,0.025,0.118,0.062,0.168,0.112C13.308,8.882,13.333,8.952,13.333,9.038z
	 M9.337,9.99c0-0.734-0.261-1.363-0.784-1.886C8.03,7.582,7.401,7.32,6.667,7.32c-0.735,0-1.363,0.261-1.887,0.784
	C4.257,8.627,3.996,9.256,3.996,9.99c0,0.735,0.261,1.363,0.784,1.887c0.524,0.523,1.152,0.784,1.887,0.784
	c0.734,0,1.363-0.261,1.886-0.784C9.076,11.353,9.337,10.725,9.337,9.99z M20,3.921v1.457c0,0.112-0.517,0.224-1.55,0.336
	c-0.074,0.187-0.175,0.367-0.299,0.541c0.348,0.785,0.523,1.264,0.523,1.438c0,0.025-0.013,0.049-0.037,0.074
	c-0.847,0.486-1.277,0.728-1.289,0.728c-0.062,0-0.224-0.161-0.486-0.486c-0.261-0.324-0.442-0.56-0.542-0.71
	c-0.137,0.013-0.242,0.019-0.317,0.019c-0.075,0-0.181-0.006-0.318-0.019c-0.087,0.15-0.268,0.386-0.542,0.71
	c-0.274,0.324-0.423,0.486-0.448,0.486s-0.46-0.242-1.307-0.728c-0.037-0.025-0.056-0.049-0.056-0.074
	c0-0.175,0.181-0.653,0.542-1.438c-0.125-0.174-0.23-0.354-0.318-0.541c-1.033-0.112-1.55-0.224-1.55-0.336V3.921
	c0-0.112,0.517-0.218,1.55-0.317c0.087-0.199,0.193-0.38,0.318-0.542c-0.361-0.784-0.542-1.263-0.542-1.438
	c0-0.025,0.019-0.05,0.056-0.075l0.971-0.56c0.199-0.112,0.305-0.168,0.318-0.168c0.049,0,0.205,0.162,0.467,0.486
	c0.261,0.324,0.442,0.56,0.542,0.71c0.149-0.025,0.255-0.037,0.318-0.037c0.062,0,0.168,0.013,0.317,0.037
	c0.349-0.498,0.666-0.89,0.953-1.177l0.074-0.019c0.025,0,0.454,0.243,1.289,0.728c0.024,0.025,0.037,0.05,0.037,0.075
	c0,0.174-0.175,0.653-0.523,1.438c0.112,0.162,0.211,0.343,0.299,0.542C19.483,3.704,20,3.809,20,3.921z M20,14.603v1.457
	c0,0.112-0.517,0.217-1.55,0.317c-0.074,0.187-0.175,0.367-0.299,0.542c0.348,0.784,0.523,1.264,0.523,1.438
	c0,0.025-0.013,0.05-0.037,0.075c-0.847,0.498-1.277,0.747-1.289,0.747c-0.062,0-0.224-0.168-0.486-0.505l-0.542-0.691
	c-0.137,0.012-0.242,0.019-0.317,0.019c-0.075,0-0.181-0.007-0.318-0.019c-0.087,0.137-0.268,0.367-0.542,0.691
	c-0.274,0.324-0.429,0.492-0.467,0.505c-0.013,0-0.442-0.249-1.289-0.747c-0.037-0.025-0.056-0.05-0.056-0.075
	c0-0.174,0.181-0.653,0.542-1.438c-0.125-0.175-0.23-0.355-0.318-0.542c-1.033-0.1-1.55-0.205-1.55-0.317v-1.457
	c0-0.112,0.517-0.224,1.55-0.337c0.087-0.199,0.193-0.379,0.318-0.541c-0.361-0.785-0.542-1.264-0.542-1.438
	c0-0.024,0.019-0.049,0.056-0.074l0.971-0.56c0.199-0.112,0.305-0.169,0.318-0.169c0.049,0,0.205,0.163,0.467,0.486
	c0.261,0.324,0.442,0.561,0.542,0.71l0.318-0.018l0.317,0.018c0.349-0.498,0.666-0.89,0.953-1.176l0.074-0.019
	c0.025,0,0.454,0.243,1.289,0.729c0.024,0.025,0.037,0.05,0.037,0.074c0,0.175-0.175,0.653-0.523,1.438
	c0.112,0.162,0.211,0.342,0.299,0.541C19.483,14.379,20,14.491,20,14.603z M17.348,4.65c0-0.361-0.137-0.672-0.411-0.933
	c-0.274-0.261-0.585-0.392-0.933-0.392c-0.349,0-0.66,0.131-0.934,0.392c-0.274,0.261-0.408,0.576-0.402,0.943
	c0.007,0.367,0.141,0.682,0.402,0.943c0.261,0.261,0.572,0.392,0.934,0.392c0.361,0,0.678-0.131,0.952-0.392
	C17.23,5.341,17.36,5.023,17.348,4.65z M17.348,15.331c0-0.361-0.137-0.679-0.411-0.952c-0.274-0.274-0.585-0.404-0.933-0.392
	c-0.349,0.012-0.66,0.143-0.934,0.392c-0.274,0.249-0.405,0.566-0.392,0.952c0,0.362,0.131,0.672,0.392,0.934
	c0.261,0.261,0.572,0.392,0.934,0.392c0.361,0,0.678-0.131,0.952-0.392C17.23,16.004,17.36,15.693,17.348,15.331z"/>
</svg>
