<?xml version="1.0" encoding="utf-8"?>
<!-- Generator: Adobe Illustrator 17.0.0, SVG Export Plug-In . SVG Version: 6.00 Build 0)  -->
<!DOCTYPE svg PUBLIC "-//W3C//DTD SVG 1.1//EN" "http://www.w3.org/Graphics/SVG/1.1/DTD/svg11.dtd">
<svg version="1.1" id="Слой_1" xmlns="http://www.w3.org/2000/svg" xmlns:xlink="http://www.w3.org/1999/xlink" x="0px" y="0px"
	 width="20px" height="20px" viewBox="0 0 20 20" enable-background="new 0 0 20 20" xml:space="preserve">
<path d="M19.983,9.999c0,1.818-0.443,3.489-1.328,5.012c-0.886,1.523-2.098,2.735-3.636,3.636S11.809,20,10.007,20
	c-1.803,0-3.481-0.451-5.035-1.353c-1.554-0.901-2.758-2.113-3.613-3.636c-0.855-1.522-1.305-3.194-1.352-5.012
	s0.404-3.488,1.352-5.011s2.152-2.735,3.613-3.636C6.433,0.451,8.111,0,10.007,0s3.566,0.451,5.012,1.352
	c1.445,0.902,2.657,2.114,3.636,3.636C19.634,6.511,20.077,8.181,19.983,9.999z M14.995,7.506c0-0.762-0.241-1.469-0.723-2.121
	c-0.482-0.653-1.08-1.158-1.795-1.515c-0.715-0.358-1.453-0.536-2.215-0.536c-2.113,0-3.722,0.925-4.825,2.774
	c-0.14,0.218-0.109,0.404,0.093,0.56l1.725,1.282C7.318,8.01,7.396,8.042,7.49,8.042c0.139,0,0.249-0.054,0.326-0.163
	c0.466-0.59,0.842-0.99,1.131-1.201c0.287-0.21,0.649-0.315,1.083-0.315c0.435,0,0.817,0.118,1.143,0.35
	c0.326,0.233,0.489,0.489,0.489,0.769c0,0.326-0.086,0.591-0.257,0.793c-0.171,0.202-0.466,0.396-0.885,0.582
	C9.976,9.106,9.471,9.48,9.005,9.977c-0.466,0.497-0.691,1.041-0.676,1.631v0.467c0,0.124,0.039,0.225,0.117,0.303
	s0.178,0.117,0.304,0.117h2.494c0.124,0,0.226-0.039,0.304-0.117s0.117-0.186,0.117-0.326c0-0.139,0.093-0.341,0.28-0.606
	c0.186-0.264,0.419-0.482,0.699-0.653l0.653-0.373c0.156-0.094,0.35-0.241,0.582-0.443c0.233-0.202,0.428-0.412,0.583-0.63
	c0.155-0.217,0.28-0.481,0.373-0.792C14.925,8.244,14.98,7.894,14.995,7.506z M11.662,16.247v-2.494
	c0-0.124-0.039-0.225-0.117-0.303s-0.179-0.117-0.304-0.117H8.749c-0.125,0-0.226,0.039-0.304,0.117s-0.117,0.178-0.117,0.303v2.494
	c0,0.124,0.039,0.225,0.117,0.303c0.078,0.078,0.178,0.117,0.304,0.117h2.494c0.124,0,0.226-0.039,0.304-0.117
	C11.624,16.472,11.662,16.371,11.662,16.247z"/>
</svg>
