<?xml version="1.0" encoding="utf-8"?>
<!-- Generator: Adobe Illustrator 17.0.0, SVG Export Plug-In . SVG Version: 6.00 Build 0)  -->
<!DOCTYPE svg PUBLIC "-//W3C//DTD SVG 1.1//EN" "http://www.w3.org/Graphics/SVG/1.1/DTD/svg11.dtd">
<svg version="1.1" id="Слой_1" xmlns="http://www.w3.org/2000/svg" xmlns:xlink="http://www.w3.org/1999/xlink" x="0px" y="0px"
	 width="20px" height="20px" viewBox="0 0 20 20" enable-background="new 0 0 20 20" xml:space="preserve">
<path d="M20,8.57c0,1.294-0.447,2.487-1.34,3.581c-0.894,1.093-2.107,1.96-3.64,2.599c-1.533,0.64-3.206,0.96-5.02,0.96
	c-0.52,0-1.06-0.027-1.62-0.08c-1.466,1.293-3.18,2.193-5.14,2.699c-0.36,0.094-0.78,0.173-1.26,0.24H1.92
	c-0.107,0-0.207-0.04-0.3-0.12c-0.093-0.08-0.153-0.18-0.18-0.3v-0.02c-0.027-0.027-0.027-0.074,0-0.14
	c0.027-0.067,0.033-0.1,0.02-0.1c-0.014,0,0-0.033,0.04-0.1l0.24-0.3c0.053-0.067,0.167-0.193,0.34-0.38l0.4-0.439
	c0.094-0.107,0.207-0.254,0.34-0.44c0.133-0.187,0.253-0.374,0.36-0.56c0.107-0.186,0.207-0.407,0.3-0.66l0.3-0.84
	c-1.174-0.667-2.094-1.487-2.76-2.46S0.013,9.69,0,8.57c0-1.293,0.446-2.486,1.34-3.58s2.107-1.96,3.64-2.6S8.186,1.43,10,1.43
	c1.813,0,3.486,0.32,5.02,0.96s2.747,1.507,3.64,2.6S20,7.277,20,8.57z M10,2.85c-1.52,0-2.94,0.26-4.26,0.78S3.373,4.85,2.6,5.73
	C1.826,6.61,1.433,7.557,1.42,8.57c0,0.827,0.266,1.62,0.8,2.38c0.533,0.76,1.287,1.414,2.26,1.96l0.959,0.561L5.14,14.55
	c-0.173,0.667-0.434,1.3-0.78,1.899c1.134-0.466,2.161-1.099,3.08-1.899l0.48-0.42l0.62,0.059c0.52,0.067,1.007,0.1,1.46,0.1
	c1.52,0,2.939-0.26,4.259-0.78s2.367-1.22,3.14-2.1c0.773-0.88,1.166-1.826,1.18-2.84c0.013-1.013-0.38-1.96-1.18-2.839
	c-0.8-0.88-1.847-1.58-3.14-2.1S11.546,2.85,10,2.85z"/>
</svg>
