<?xml version="1.0" encoding="utf-8"?>
<!-- Generator: Adobe Illustrator 17.0.0, SVG Export Plug-In . SVG Version: 6.00 Build 0)  -->
<!DOCTYPE svg PUBLIC "-//W3C//DTD SVG 1.1//EN" "http://www.w3.org/Graphics/SVG/1.1/DTD/svg11.dtd">
<svg version="1.1" id="Слой_1" xmlns="http://www.w3.org/2000/svg" xmlns:xlink="http://www.w3.org/1999/xlink" x="0px" y="0px"
	 width="20px" height="20px" viewBox="0 0 20 20" enable-background="new 0 0 20 20" xml:space="preserve">
<path d="M17.77,14.27c-0.28,0.934-0.733,1.86-1.36,2.78c-0.96,1.467-1.92,2.2-2.88,2.2c-0.359,0-0.88-0.12-1.56-0.36
	c-0.641-0.239-1.193-0.359-1.66-0.359s-1.004,0.126-1.61,0.38c-0.606,0.253-1.097,0.38-1.47,0.38c-1.134,0-2.25-0.97-3.35-2.91
	c-1.101-1.939-1.65-3.81-1.65-5.61c0-1.692,0.42-3.079,1.26-4.159s1.9-1.62,3.181-1.62c0.532,0,1.187,0.113,1.96,0.34
	c0.772,0.227,1.286,0.34,1.54,0.34c0.333,0,0.873-0.127,1.619-0.38c0.747-0.253,1.387-0.38,1.921-0.38c0.88,0,1.673,0.24,2.38,0.72
	c0.386,0.267,0.772,0.64,1.159,1.12c-0.6,0.493-1.026,0.934-1.279,1.32c-0.48,0.693-0.721,1.46-0.721,2.3
	c0,0.934,0.254,1.767,0.761,2.5C16.516,13.604,17.103,14.07,17.77,14.27z M13.59,1.17c0,0.453-0.11,0.96-0.33,1.521
	c-0.221,0.56-0.57,1.073-1.05,1.539c-0.4,0.4-0.801,0.674-1.2,0.82c-0.268,0.08-0.653,0.141-1.16,0.18
	c0.026-1.106,0.316-2.06,0.87-2.859c0.553-0.8,1.482-1.354,2.79-1.66c0.013,0.027,0.026,0.066,0.04,0.12
	c0.013,0.054,0.02,0.094,0.02,0.12v0.12C13.57,1.11,13.577,1.144,13.59,1.17z"/>
</svg>
