<?xml version="1.0" encoding="utf-8"?>
<!-- Generator: Adobe Illustrator 17.0.0, SVG Export Plug-In . SVG Version: 6.00 Build 0)  -->
<!DOCTYPE svg PUBLIC "-//W3C//DTD SVG 1.1//EN" "http://www.w3.org/Graphics/SVG/1.1/DTD/svg11.dtd">
<svg version="1.1" id="Слой_1" xmlns="http://www.w3.org/2000/svg" xmlns:xlink="http://www.w3.org/1999/xlink" x="0px" y="0px"
	 width="20px" height="20px" viewBox="0 0 20 20" enable-background="new 0 0 20 20" xml:space="preserve">
<path d="M20,15.833C20,18.138,18.138,20,15.833,20s-4.167-1.862-4.167-4.167c0-0.143,0.013-0.3,0.026-0.442l-4.688-2.344
	c-0.742,0.69-1.744,1.12-2.838,1.12C1.862,14.167,0,12.304,0,10s1.862-4.167,4.167-4.167c1.094,0,2.096,0.43,2.838,1.12l4.688-2.344
	c-0.013-0.142-0.026-0.299-0.026-0.442C11.667,1.862,13.529,0,15.833,0S20,1.862,20,4.167s-1.862,4.167-4.167,4.167
	c-1.094,0-2.096-0.43-2.838-1.12L8.307,9.558C8.321,9.7,8.333,9.857,8.333,10s-0.013,0.3-0.026,0.442l4.688,2.344
	c0.742-0.69,1.744-1.12,2.838-1.12C18.138,11.667,20,13.529,20,15.833z"/>
</svg>
