<?xml version="1.0" encoding="utf-8"?>
<!-- Generator: Adobe Illustrator 17.0.0, SVG Export Plug-In . SVG Version: 6.00 Build 0)  -->
<!DOCTYPE svg PUBLIC "-//W3C//DTD SVG 1.1//EN" "http://www.w3.org/Graphics/SVG/1.1/DTD/svg11.dtd">
<svg version="1.1" id="Слой_1" xmlns="http://www.w3.org/2000/svg" xmlns:xlink="http://www.w3.org/1999/xlink" x="0px" y="0px"
	 width="20px" height="20px" viewBox="0 0 20 20" enable-background="new 0 0 20 20" xml:space="preserve">
<path d="M20.003,15.802c0,0.255-0.051,0.585-0.152,0.992c-0.101,0.408-0.204,0.73-0.305,0.967c-0.187,0.475-0.763,0.985-1.73,1.527
	C16.933,19.763,16.059,20,15.194,20c-0.271,0-0.526-0.017-0.763-0.051c-0.237-0.034-0.508-0.093-0.814-0.178
	c-0.305-0.085-0.526-0.153-0.662-0.204l-1.501-0.534c-0.916-0.339-1.739-0.738-2.468-1.196c-1.222-0.747-2.477-1.764-3.766-3.053
	c-1.29-1.289-2.308-2.545-3.053-3.766c-0.459-0.73-0.849-1.552-1.171-2.468L0.741,7.837c-0.136-0.39-0.237-0.653-0.305-0.789
	C0.368,6.913,0.3,6.692,0.232,6.387L0.054,5.572C0.004,5.335-0.014,5.089,0.004,4.834c0-0.882,0.245-1.764,0.737-2.646
	c0.526-0.95,1.026-1.527,1.501-1.731c0.238-0.101,0.56-0.203,0.967-0.305C3.616,0.051,3.947,0,4.202,0
	c0.136,0,0.237,0.017,0.305,0.051c0.169,0.051,0.423,0.416,0.763,1.094c0.101,0.17,0.237,0.425,0.407,0.764
	c0.17,0.34,0.34,0.636,0.509,0.89c0.169,0.255,0.314,0.509,0.432,0.764c0.034,0.034,0.119,0.153,0.255,0.356S7.11,4.292,7.179,4.427
	C7.246,4.563,7.28,4.699,7.28,4.834c0,0.187-0.136,0.425-0.407,0.713C6.602,5.835,6.305,6.09,5.983,6.31
	C5.661,6.532,5.372,6.785,5.117,7.074c-0.254,0.288-0.39,0.5-0.407,0.636c0,0.085,0.026,0.195,0.077,0.33l0.101,0.281
	c0.017,0.051,0.085,0.17,0.204,0.356c0.118,0.186,0.178,0.271,0.178,0.254c0.712,1.307,1.534,2.427,2.468,3.36
	c0.933,0.933,2.044,1.755,3.333,2.467c0.017,0,0.101,0.052,0.255,0.153c0.152,0.101,0.271,0.17,0.356,0.203l0.28,0.127
	c0.103,0.051,0.212,0.068,0.331,0.051c0.169,0,0.381-0.126,0.636-0.381s0.509-0.551,0.763-0.89c0.255-0.34,0.518-0.637,0.789-0.89
	c0.271-0.255,0.509-0.39,0.712-0.408c0.119,0,0.246,0.034,0.382,0.103c0.136,0.067,0.305,0.17,0.509,0.305
	c0.203,0.136,0.322,0.221,0.356,0.254l1.654,0.942c0.322,0.186,0.585,0.33,0.789,0.432c0.662,0.323,1.018,0.568,1.069,0.738
	C19.986,15.564,20.003,15.666,20.003,15.802z"/>
</svg>
