<?xml version="1.0" encoding="utf-8"?>
<!-- Generator: Adobe Illustrator 17.0.0, SVG Export Plug-In . SVG Version: 6.00 Build 0)  -->
<!DOCTYPE svg PUBLIC "-//W3C//DTD SVG 1.1//EN" "http://www.w3.org/Graphics/SVG/1.1/DTD/svg11.dtd">
<svg version="1.1" id="Слой_1" xmlns="http://www.w3.org/2000/svg" xmlns:xlink="http://www.w3.org/1999/xlink" x="0px" y="0px"
	 width="20px" height="20px" viewBox="0 0 20 20" enable-background="new 0 0 20 20" xml:space="preserve">
<path d="M20,4.448v11.104c0,0.301-0.114,0.56-0.342,0.778c-0.229,0.218-0.488,0.332-0.778,0.342H1.104
	c-0.301,0-0.56-0.114-0.778-0.342C0.109,16.102,0,15.842,0,15.552V4.448c0-0.301,0.109-0.56,0.327-0.778
	c0.218-0.218,0.477-0.332,0.778-0.342h17.777c0.301,0,0.56,0.114,0.778,0.342C19.875,3.898,19.99,4.158,20,4.448z M4.603,10.249
	L4.106,7.698c-0.062-0.321-0.28-0.482-0.653-0.482H1.135L1.104,7.341C2.908,7.797,4.075,8.766,4.603,10.249z M6.159,7.216
	l-1.4,3.811l-0.156-0.778c-0.145-0.405-0.389-0.778-0.731-1.12C3.53,8.787,3.151,8.533,2.737,8.367l1.166,4.417h1.525l2.255-5.568
	H6.159z M7.372,12.799h1.431l0.902-5.583H8.274L7.372,12.799z M14.028,7.356c-0.394-0.155-0.824-0.233-1.291-0.233
	c-0.705,0-1.286,0.171-1.742,0.513s-0.684,0.788-0.684,1.337c-0.011,0.581,0.409,1.084,1.26,1.509
	c0.28,0.134,0.472,0.254,0.576,0.358c0.103,0.104,0.16,0.213,0.171,0.327c0,0.176-0.088,0.311-0.264,0.404
	c-0.176,0.093-0.374,0.14-0.591,0.14c-0.498,0-0.949-0.099-1.353-0.295l-0.202-0.093l-0.202,1.26
	c0.435,0.197,0.974,0.295,1.617,0.295c0.746,0,1.348-0.171,1.804-0.513c0.456-0.342,0.69-0.809,0.7-1.4
	c0-0.612-0.405-1.115-1.214-1.509c-0.29-0.145-0.497-0.264-0.622-0.358c-0.125-0.093-0.187-0.204-0.187-0.334
	s0.073-0.241,0.218-0.334c0.145-0.093,0.347-0.14,0.607-0.14c0.404-0.01,0.762,0.057,1.073,0.202l0.14,0.078L14.028,7.356z
	 M17.714,7.216H16.61c-0.374,0-0.623,0.161-0.746,0.482l-2.147,5.101h1.509l0.311-0.84h1.835c0.031,0.125,0.088,0.405,0.171,0.84
	h1.338L17.714,7.216z M17.139,10.809h-1.198c0.083-0.207,0.275-0.721,0.576-1.54l0.187-0.529l0.109,0.467L17.139,10.809z"/>
</svg>
