<?xml version="1.0" encoding="utf-8"?>
<!-- Generator: Adobe Illustrator 17.0.0, SVG Export Plug-In . SVG Version: 6.00 Build 0)  -->
<!DOCTYPE svg PUBLIC "-//W3C//DTD SVG 1.1//EN" "http://www.w3.org/Graphics/SVG/1.1/DTD/svg11.dtd">
<svg version="1.1" id="Слой_1" xmlns="http://www.w3.org/2000/svg" xmlns:xlink="http://www.w3.org/1999/xlink" x="0px" y="0px"
	 width="20px" height="20px" viewBox="0 0 20 20" enable-background="new 0 0 20 20" xml:space="preserve">
<path d="M20,7.847c0,0.173-0.108,0.366-0.322,0.582l-4.37,4.241l1.033,6.007c0.015,0.057,0.022,0.144,0.022,0.258
	c0,0.158-0.043,0.294-0.129,0.409c-0.087,0.115-0.205,0.175-0.356,0.183c-0.151,0.007-0.312-0.039-0.484-0.14L9.99,16.545
	l-5.382,2.842c-0.187,0.101-0.356,0.151-0.506,0.151c-0.151,0-0.269-0.065-0.356-0.194c-0.086-0.13-0.129-0.265-0.129-0.409
	c0-0.058,0.007-0.144,0.022-0.258l1.033-6.007l-4.37-4.241C0.101,8.213,0,8.019,0,7.847C0,7.545,0.223,7.36,0.668,7.288l6.028-0.862
	l2.713-5.468C9.566,0.628,9.76,0.463,9.99,0.463c0.229,0,0.43,0.165,0.603,0.495l2.691,5.468l6.028,0.862
	C19.77,7.36,20,7.545,20,7.847z"/>
</svg>
