<?xml version="1.0" encoding="utf-8"?>
<!-- Generator: Adobe Illustrator 17.0.0, SVG Export Plug-In . SVG Version: 6.00 Build 0)  -->
<!DOCTYPE svg PUBLIC "-//W3C//DTD SVG 1.1//EN" "http://www.w3.org/Graphics/SVG/1.1/DTD/svg11.dtd">
<svg version="1.1" id="Слой_1" xmlns="http://www.w3.org/2000/svg" xmlns:xlink="http://www.w3.org/1999/xlink" x="0px" y="0px"
	 width="20px" height="20px" viewBox="0 0 20 20" enable-background="new 0 0 20 20" xml:space="preserve">
<path d="M20,13.342c0,1.842-1.496,3.263-3.333,3.263H12.5c-0.462,0-0.883-0.229-0.883-0.692v-2.292c0-0.342,0.329-0.767,0.675-0.767
	h1.275c0.613,0,0.783-0.35,0.379-0.863l-3.213-4.06c-0.404-0.512-1.067-0.495-1.471,0.018L6.05,11.983
	c-0.404,0.512-0.233,0.871,0.379,0.871h1.279c0.342,0,0.575,0.425,0.575,0.767v2.292c0,0.463-0.325,0.692-0.783,0.692H4.167
	C1.863,16.605,0,14.813,0,12.509c0-2.088,1.533-3.773,3.537-4.077C4.258,5.532,6.875,3.395,10,3.395c3.679,0,6.667,2.961,6.667,6.64
	C18.504,10.035,20,11.505,20,13.342z"/>
</svg>
