<?xml version="1.0" encoding="utf-8"?>
<!-- Generator: Adobe Illustrator 17.0.0, SVG Export Plug-In . SVG Version: 6.00 Build 0)  -->
<!DOCTYPE svg PUBLIC "-//W3C//DTD SVG 1.1//EN" "http://www.w3.org/Graphics/SVG/1.1/DTD/svg11.dtd">
<svg version="1.1" id="Слой_1" xmlns="http://www.w3.org/2000/svg" xmlns:xlink="http://www.w3.org/1999/xlink" x="0px" y="0px"
	 width="20px" height="20px" viewBox="0 0 20 20" enable-background="new 0 0 20 20" xml:space="preserve">
<path d="M6.182,10c-1.121,0.038-2.042,0.479-2.763,1.326h-1.4c-0.561,0-1.04-0.137-1.438-0.41c-0.398-0.274-0.591-0.685-0.579-1.232
	c0-2.453,0.43-3.679,1.289-3.679c0.049,0,0.205,0.069,0.467,0.206c0.262,0.137,0.598,0.286,1.009,0.448
	c0.41,0.161,0.821,0.236,1.232,0.224c0.473,0,0.939-0.081,1.4-0.243C5.36,6.9,5.341,7.131,5.341,7.33
	C5.341,8.301,5.622,9.191,6.182,10z M6.667,3.334c0,0.734-0.261,1.363-0.784,1.886S4.731,6.004,3.997,6.004
	c-0.735,0-1.363-0.261-1.887-0.784C1.588,4.697,1.326,4.068,1.326,3.334c0-0.735,0.261-1.364,0.784-1.886
	c0.524-0.523,1.152-0.784,1.887-0.784c0.734,0,1.363,0.261,1.886,0.784S6.667,2.599,6.667,3.334z M17.348,16.648
	c0,0.822-0.255,1.476-0.765,1.961c-0.511,0.486-1.183,0.728-2.017,0.728H5.454c-0.847,0-1.52-0.242-2.017-0.728
	s-0.753-1.139-0.765-1.961c0-0.373,0.012-0.734,0.037-1.083c0.024-0.348,0.074-0.728,0.149-1.139
	c0.075-0.411,0.162-0.79,0.262-1.139c0.099-0.349,0.248-0.685,0.448-1.008c0.199-0.324,0.417-0.604,0.654-0.84
	c0.236-0.236,0.535-0.423,0.896-0.561c0.361-0.137,0.747-0.205,1.158-0.205c0.074,0,0.224,0.074,0.448,0.224
	c0.224,0.15,0.479,0.312,0.765,0.486c0.286,0.175,0.653,0.343,1.102,0.505c0.448,0.162,0.922,0.236,1.419,0.223
	c0.498-0.012,0.965-0.087,1.4-0.223c0.436-0.138,0.809-0.305,1.121-0.505l0.765-0.486c0.199-0.125,0.343-0.199,0.43-0.224
	c0.435,0,0.827,0.068,1.176,0.205c0.348,0.138,0.641,0.324,0.878,0.561c0.236,0.236,0.454,0.517,0.653,0.84
	c0.199,0.324,0.349,0.66,0.448,1.008c0.1,0.349,0.193,0.728,0.28,1.139c0.087,0.411,0.137,0.791,0.149,1.139L17.348,16.648z
	 M14.006,7.33c0,1.108-0.392,2.054-1.176,2.839c-0.784,0.784-1.724,1.17-2.82,1.157c-1.096-0.012-2.042-0.398-2.838-1.157
	C6.375,9.409,5.983,8.463,5.995,7.33c0.012-1.133,0.404-2.073,1.177-2.82C7.943,3.763,8.89,3.371,10.01,3.334
	c1.121-0.038,2.06,0.354,2.82,1.176C13.589,5.332,13.981,6.272,14.006,7.33z M18.674,3.334c0,0.734-0.261,1.363-0.784,1.886
	s-1.152,0.784-1.886,0.784c-0.735,0-1.363-0.261-1.886-0.784c-0.523-0.523-0.784-1.152-0.784-1.886c0-0.735,0.261-1.364,0.784-1.886
	c0.523-0.523,1.151-0.784,1.886-0.784c0.734,0,1.363,0.261,1.886,0.784S18.674,2.599,18.674,3.334z M20,9.683
	c0,0.535-0.193,0.946-0.579,1.232c-0.386,0.286-0.865,0.423-1.438,0.41h-1.4c-0.71-0.846-1.625-1.288-2.745-1.326
	c0.56-0.808,0.84-1.699,0.84-2.67c0-0.199-0.019-0.429-0.056-0.691c0.46,0.162,0.922,0.243,1.382,0.243
	c0.411,0,0.827-0.074,1.251-0.224c0.422-0.15,0.759-0.299,1.008-0.448c0.248-0.149,0.398-0.218,0.448-0.206
	C19.571,6.004,20,7.23,20,9.683z"/>
</svg>
