<?xml version="1.0" encoding="utf-8"?>
<!-- Generator: Adobe Illustrator 17.0.0, SVG Export Plug-In . SVG Version: 6.00 Build 0)  -->
<!DOCTYPE svg PUBLIC "-//W3C//DTD SVG 1.1//EN" "http://www.w3.org/Graphics/SVG/1.1/DTD/svg11.dtd">
<svg version="1.1" id="Слой_1" xmlns="http://www.w3.org/2000/svg" xmlns:xlink="http://www.w3.org/1999/xlink" x="0px" y="0px"
	 width="20px" height="20px" viewBox="0 0 20 20" enable-background="new 0 0 20 20" xml:space="preserve">
<path d="M20,13.075c0,1.838-1.496,3.406-3.333,3.406h-12.5c-2.304,0-4.167-1.94-4.167-4.24c0-2.087,1.533-3.849,3.537-4.153
	c0.487-1.962,1.85-3.602,3.646-4.443c0.096-0.042,0.246-0.067,0.346-0.067c0.437,0,0.904,0.345,0.904,0.72V7.84
	c0,0.346-0.379,0.725-0.725,0.725H6.433c-0.617,0-0.788,0.394-0.383,0.91l3.212,4.059c0.404,0.513,1.067,0.494,1.471-0.018
	l3.212-4.032c0.404-0.517,0.233-0.92-0.379-0.92h-1.275c-0.346,0-0.525-0.379-0.525-0.725V4.298c0-0.446,0.325-0.996,1.046-0.692
	c2.3,1.05,3.879,3.403,3.879,6.099C18.529,9.705,20,11.233,20,13.075z"/>
</svg>
