<?xml version="1.0" encoding="utf-8"?>
<!-- Generator: Adobe Illustrator 17.0.0, SVG Export Plug-In . SVG Version: 6.00 Build 0)  -->
<!DOCTYPE svg PUBLIC "-//W3C//DTD SVG 1.1//EN" "http://www.w3.org/Graphics/SVG/1.1/DTD/svg11.dtd">
<svg version="1.1" id="Слой_1" xmlns="http://www.w3.org/2000/svg" xmlns:xlink="http://www.w3.org/1999/xlink" x="0px" y="0px"
	 width="20px" height="20px" viewBox="0 0 20 20" enable-background="new 0 0 20 20" xml:space="preserve">
<path d="M20,10c0,0.385-0.301,0.721-0.685,0.769L6.767,12.236c0.06,0.276,0.156,0.553,0.156,0.841c0,0.277-0.168,0.529-0.288,0.769
	h11.057c0.421,0,0.769,0.349,0.769,0.769c0,0.421-0.349,0.769-0.769,0.769H5.385c-0.421,0-0.769-0.349-0.769-0.769
	c0-0.372,0.541-1.274,0.733-1.646L3.221,3.077H0.769C0.349,3.077,0,2.728,0,2.308s0.349-0.769,0.769-0.769h3.077
	c0.805,0,0.829,0.962,0.95,1.538h14.435C19.651,3.077,20,3.426,20,3.846V10z M6.154,18.462c-0.842,0-1.538-0.697-1.538-1.538
	s0.697-1.538,1.538-1.538s1.538,0.697,1.538,1.538S6.995,18.462,6.154,18.462z M16.923,18.462c-0.842,0-1.538-0.697-1.538-1.538
	s0.697-1.538,1.538-1.538s1.538,0.697,1.538,1.538S17.765,18.462,16.923,18.462z"/>
</svg>
