<?xml version="1.0" encoding="utf-8"?>
<!-- Generator: Adobe Illustrator 17.0.0, SVG Export Plug-In . SVG Version: 6.00 Build 0)  -->
<!DOCTYPE svg PUBLIC "-//W3C//DTD SVG 1.1//EN" "http://www.w3.org/Graphics/SVG/1.1/DTD/svg11.dtd">
<svg version="1.1" id="Слой_1" xmlns="http://www.w3.org/2000/svg" xmlns:xlink="http://www.w3.org/1999/xlink" x="0px" y="0px"
	 width="20px" height="20px" viewBox="0 0 20 20" enable-background="new 0 0 20 20" xml:space="preserve">
<path d="M7.86,2.138c1.414,0,2.727,0.253,3.94,0.76c1.213,0.507,2.166,1.2,2.86,2.08s1.047,1.84,1.06,2.88
	c0.014,1.039-0.339,1.993-1.06,2.86s-1.673,1.56-2.86,2.08c-1.187,0.52-2.5,0.773-3.94,0.76c-0.64,0-1.293-0.06-1.96-0.181
	c-0.933,0.653-1.967,1.134-3.101,1.44c-0.28,0.067-0.6,0.127-0.959,0.18H1.8c-0.081,0-0.16-0.033-0.24-0.1
	c-0.081-0.067-0.12-0.146-0.12-0.24c-0.013-0.013-0.02-0.033-0.02-0.059s0.007-0.054,0.02-0.081c0.013-0.026,0.02-0.046,0.02-0.059
	l0.02-0.06l0.081-0.12l0.059-0.059c0.041-0.04,0.054-0.054,0.041-0.04l0.56-0.601c0.066-0.067,0.146-0.18,0.24-0.34
	c0.093-0.16,0.186-0.299,0.28-0.42c0.093-0.12,0.166-0.286,0.22-0.5c-0.92-0.533-1.64-1.187-2.16-1.96
	C0.28,9.585,0.013,8.751,0,7.859c0-1.04,0.353-2,1.06-2.88c0.707-0.88,1.66-1.573,2.861-2.08C5.12,2.391,6.433,2.138,7.86,2.138z
	 M7.86,3.558c-1.134,0-2.2,0.194-3.2,0.58c-1,0.387-1.787,0.913-2.36,1.58c-0.574,0.667-0.867,1.38-0.88,2.14
	c0,0.6,0.199,1.187,0.6,1.759c0.4,0.574,0.953,1.06,1.66,1.46l1.08,0.64l-0.38,0.92c0.253-0.146,0.48-0.286,0.68-0.42l0.5-0.36
	l0.6,0.12c0.573,0.107,1.14,0.16,1.7,0.16c1.134,0,2.193-0.194,3.18-0.58c0.986-0.387,1.773-0.913,2.36-1.58
	c0.586-0.667,0.88-1.374,0.88-2.12c0-0.747-0.294-1.461-0.88-2.14c-0.587-0.68-1.374-1.207-2.36-1.58
	C10.053,3.765,8.993,3.571,7.86,3.558z M17.04,15.178c0.066,0.187,0.14,0.354,0.22,0.5c0.08,0.146,0.173,0.286,0.28,0.42l0.54,0.66
	c0.12,0.146,0.207,0.24,0.26,0.28l0.1,0.1l0.08,0.12l0.06,0.2c0,0.013-0.007,0.033-0.02,0.06c-0.027,0.107-0.073,0.193-0.14,0.26
	c-0.067,0.067-0.153,0.094-0.26,0.081c-0.361-0.054-0.68-0.114-0.96-0.181c-1.134-0.307-2.167-0.787-3.1-1.44
	c-0.667,0.12-1.32,0.18-1.96,0.18c-2.013,0-3.766-0.493-5.26-1.48c0.426,0.041,0.753,0.06,0.98,0.06c1.2,0,2.347-0.167,3.44-0.5
	c1.093-0.334,2.08-0.813,2.96-1.44c0.92-0.693,1.633-1.486,2.14-2.38c0.507-0.894,0.754-1.833,0.74-2.82
	c0-0.574-0.086-1.14-0.26-1.701c0.96,0.521,1.72,1.181,2.28,1.981c0.56,0.8,0.84,1.65,0.84,2.55s-0.267,1.743-0.8,2.53
	C18.666,14.005,17.946,14.658,17.04,15.178z"/>
</svg>
