<?xml version="1.0" encoding="utf-8"?>
<!-- Generator: Adobe Illustrator 17.0.0, SVG Export Plug-In . SVG Version: 6.00 Build 0)  -->
<!DOCTYPE svg PUBLIC "-//W3C//DTD SVG 1.1//EN" "http://www.w3.org/Graphics/SVG/1.1/DTD/svg11.dtd">
<svg version="1.1" id="Слой_1" xmlns="http://www.w3.org/2000/svg" xmlns:xlink="http://www.w3.org/1999/xlink" x="0px" y="0px"
	 width="20px" height="20px" viewBox="0 0 20 20" enable-background="new 0 0 20 20" xml:space="preserve">
<path d="M19.29,4.28v14.3c0,0.387-0.146,0.719-0.44,0.999C18.557,19.86,18.223,20,17.85,20H2.13c-0.387,0-0.72-0.14-1-0.42
	s-0.42-0.613-0.42-0.999V4.28c0-0.387,0.14-0.72,0.42-1s0.614-0.42,1-0.42h1.44V1.78c0-0.48,0.173-0.9,0.52-1.26
	c0.347-0.36,0.767-0.533,1.261-0.52H6.07c0.493,0,0.913,0.173,1.261,0.52c0.347,0.347,0.52,0.767,0.52,1.26v1.08h4.28V1.78
	c0-0.48,0.18-0.9,0.54-1.26c0.361-0.36,0.78-0.533,1.261-0.52h0.7c0.493,0,0.913,0.173,1.26,0.52s0.527,0.767,0.54,1.26v1.08h1.42
	c0.387,0,0.719,0.14,0.999,0.42C19.13,3.561,19.277,3.894,19.29,4.28z M2.13,18.581h15.72V7.14H2.13V18.581z M6.43,5.001V1.78
	c0-0.107-0.033-0.193-0.1-0.26c-0.067-0.066-0.154-0.1-0.26-0.1H5.35c-0.107,0-0.194,0.033-0.26,0.1
	c-0.067,0.067-0.1,0.153-0.1,0.26v3.22c0,0.107,0.033,0.193,0.1,0.26s0.153,0.1,0.26,0.1H6.07c0.107,0,0.194-0.033,0.26-0.1
	S6.43,5.107,6.43,5.001z M14.99,5.001V1.78c0-0.107-0.033-0.193-0.1-0.26c-0.067-0.066-0.153-0.1-0.26-0.1h-0.7
	c-0.107,0-0.194,0.033-0.26,0.1c-0.067,0.067-0.1,0.153-0.1,0.26v3.22c0,0.107,0.033,0.193,0.1,0.26c0.067,0.067,0.153,0.1,0.26,0.1
	h0.7c0.107,0,0.193-0.033,0.26-0.1C14.956,5.194,14.99,5.107,14.99,5.001z"/>
</svg>
