<?xml version="1.0" encoding="utf-8"?>
<!-- Generator: Adobe Illustrator 17.0.0, SVG Export Plug-In . SVG Version: 6.00 Build 0)  -->
<!DOCTYPE svg PUBLIC "-//W3C//DTD SVG 1.1//EN" "http://www.w3.org/Graphics/SVG/1.1/DTD/svg11.dtd">
<svg version="1.1" id="Слой_1" xmlns="http://www.w3.org/2000/svg" xmlns:xlink="http://www.w3.org/1999/xlink" x="0px" y="0px"
	 width="20px" height="20px" viewBox="0 0 20 20" enable-background="new 0 0 20 20" xml:space="preserve">
<path d="M19.983,9.999c0,1.818-0.442,3.489-1.328,5.012c-0.886,1.523-2.098,2.735-3.636,3.636S11.809,20,10.007,20
	c-1.803,0-3.481-0.451-5.035-1.353c-1.555-0.901-2.759-2.113-3.614-3.636c-0.855-1.522-1.305-3.194-1.352-5.012
	s0.404-3.488,1.352-5.011c0.948-1.523,2.152-2.735,3.614-3.636C6.433,0.451,8.111,0,10.007,0s3.566,0.451,5.012,1.352
	c1.445,0.902,2.658,2.114,3.636,3.636C19.634,6.511,20.078,8.181,19.983,9.999z M13.317,16.247v-2.074
	c0-0.124-0.039-0.226-0.117-0.304s-0.171-0.117-0.28-0.117h-1.259V7.086c0-0.124-0.039-0.225-0.117-0.303s-0.178-0.117-0.303-0.117
	h-4.15c-0.124,0-0.226,0.039-0.303,0.117C6.712,6.861,6.674,6.961,6.674,7.086v2.075c0,0.124,0.038,0.225,0.117,0.303
	C6.868,9.541,6.969,9.58,7.094,9.58h1.236v4.172H7.094c-0.124,0-0.226,0.039-0.303,0.117c-0.079,0.078-0.117,0.179-0.117,0.304
	v2.074c0,0.124,0.038,0.225,0.117,0.303c0.077,0.078,0.178,0.117,0.303,0.117h5.827c0.109,0,0.202-0.039,0.28-0.117
	C13.279,16.472,13.317,16.371,13.317,16.247z M11.662,4.592V2.517c0-0.124-0.039-0.225-0.117-0.303
	c-0.078-0.078-0.178-0.117-0.303-0.117H8.749c-0.124,0-0.226,0.039-0.304,0.117C8.367,2.292,8.329,2.393,8.329,2.517v2.075
	c0,0.124,0.038,0.225,0.116,0.303c0.078,0.078,0.179,0.116,0.304,0.116h2.494c0.124,0,0.225-0.038,0.303-0.116
	C11.623,4.817,11.662,4.716,11.662,4.592z"/>
</svg>
