<?xml version="1.0" encoding="utf-8"?>
<!-- Generator: Adobe Illustrator 17.0.0, SVG Export Plug-In . SVG Version: 6.00 Build 0)  -->
<!DOCTYPE svg PUBLIC "-//W3C//DTD SVG 1.1//EN" "http://www.w3.org/Graphics/SVG/1.1/DTD/svg11.dtd">
<svg version="1.1" id="Слой_1" xmlns="http://www.w3.org/2000/svg" xmlns:xlink="http://www.w3.org/1999/xlink" x="0px" y="0px"
	 width="20px" height="20px" viewBox="0 0 20 20" enable-background="new 0 0 20 20" xml:space="preserve">
<path d="M18.958,17.194l-1.801,1.789C16.495,19.645,15.601,20,14.669,20c-0.944,0-1.838-0.367-2.5-1.042l-2.524-2.536
	c-0.661-0.662-1.017-1.557-1.017-2.488c0-0.968,0.392-1.888,1.079-2.562l-1.079-1.078c-0.674,0.687-1.581,1.078-2.549,1.078
	c-0.931,0-1.838-0.367-2.5-1.029L1.03,7.794C0.356,7.12,0,6.237,0,5.294c0-0.932,0.38-1.838,1.042-2.488l1.801-1.789
	C3.505,0.355,4.399,0,5.331,0c0.944,0,1.838,0.367,2.5,1.042l2.524,2.536c0.661,0.662,1.017,1.557,1.017,2.488
	c0,0.968-0.392,1.888-1.079,2.562l1.079,1.078c0.674-0.687,1.581-1.078,2.549-1.078c0.931,0,1.838,0.367,2.5,1.029l2.549,2.549
	c0.674,0.674,1.03,1.557,1.03,2.5C20,15.638,19.62,16.544,18.958,17.194z M8.689,5.232L6.164,2.696
	C5.944,2.476,5.637,2.353,5.331,2.353S4.718,2.476,4.498,2.684L2.696,4.473C2.475,4.694,2.353,4.988,2.353,5.294
	c0,0.319,0.122,0.613,0.343,0.833l2.549,2.549c0.221,0.221,0.527,0.331,0.833,0.331c0.356,0,0.637-0.122,0.883-0.38
	C6.556,8.223,6.078,7.88,6.078,7.255c0-0.649,0.527-1.176,1.176-1.176c0.625,0,0.968,0.478,1.373,0.883
	c0.257-0.246,0.404-0.527,0.404-0.895C9.032,5.76,8.909,5.453,8.689,5.232z M17.304,13.872l-2.549-2.549
	c-0.221-0.221-0.527-0.343-0.833-0.343c-0.356,0-0.637,0.134-0.883,0.391c0.405,0.405,0.883,0.748,0.883,1.373
	c0,0.649-0.527,1.176-1.176,1.176c-0.625,0-0.968-0.478-1.373-0.883c-0.257,0.246-0.404,0.527-0.404,0.895
	c0,0.306,0.122,0.613,0.343,0.833l2.524,2.536c0.221,0.221,0.527,0.331,0.833,0.331s0.613-0.111,0.833-0.319l1.802-1.789
	c0.221-0.221,0.343-0.515,0.343-0.821C17.647,14.387,17.525,14.093,17.304,13.872z"/>
</svg>
