<?xml version="1.0" encoding="utf-8"?>
<!-- Generator: Adobe Illustrator 17.0.0, SVG Export Plug-In . SVG Version: 6.00 Build 0)  -->
<!DOCTYPE svg PUBLIC "-//W3C//DTD SVG 1.1//EN" "http://www.w3.org/Graphics/SVG/1.1/DTD/svg11.dtd">
<svg version="1.1" id="Слой_1" xmlns="http://www.w3.org/2000/svg" xmlns:xlink="http://www.w3.org/1999/xlink" x="0px" y="0px"
	 width="20px" height="20px" viewBox="0 0 20 20" enable-background="new 0 0 20 20" xml:space="preserve">
<path d="M8.16,16.949c0,0.031,0.007,0.113,0.022,0.251c0.015,0.137,0.015,0.244,0,0.32l-0.046,0.32
	c-0.015,0.137-0.054,0.22-0.114,0.251c-0.06,0.031-0.153,0.054-0.274,0.069H3.68c-1.021,0-1.89-0.358-2.606-1.074
	C0.358,16.37,0,15.501,0,14.48V5.52C0,4.499,0.358,3.63,1.074,2.914S2.659,1.84,3.68,1.84h4.068c0.122,0,0.221,0.038,0.298,0.114
	C8.122,2.031,8.16,2.129,8.16,2.251l0.022,0.252c0.015,0.137,0.015,0.252,0,0.343L8.137,3.143C8.122,3.25,8.083,3.333,8.023,3.394
	C7.962,3.455,7.87,3.478,7.748,3.463H3.68c-0.565,0-1.044,0.206-1.441,0.617C1.843,4.491,1.638,4.971,1.623,5.52v8.96
	c0,0.565,0.206,1.044,0.617,1.441c0.412,0.396,0.892,0.602,1.441,0.617h4.114c0.092,0,0.145,0.016,0.16,0.046
	C7.97,16.613,8,16.636,8.046,16.651c0.046,0.016,0.076,0.054,0.091,0.114C8.152,16.827,8.16,16.888,8.16,16.949z M20,10
	c0,0.214-0.084,0.405-0.251,0.572l-6.926,6.948c-0.167,0.153-0.358,0.229-0.571,0.229c-0.214,0-0.405-0.076-0.572-0.229
	c-0.167-0.153-0.251-0.343-0.251-0.571v-3.68H5.714c-0.214,0-0.404-0.084-0.571-0.252c-0.168-0.167-0.252-0.357-0.252-0.571V7.554
	c0-0.229,0.084-0.419,0.252-0.572C5.311,6.831,5.5,6.747,5.714,6.731h5.714v-3.68c0-0.213,0.084-0.404,0.251-0.572
	c0.167-0.167,0.358-0.244,0.572-0.229c0.213,0.015,0.404,0.092,0.571,0.229l6.926,6.948C19.916,9.581,20,9.772,20,10z"/>
</svg>
