<?xml version="1.0" encoding="utf-8"?>
<!-- Generator: Adobe Illustrator 17.0.0, SVG Export Plug-In . SVG Version: 6.00 Build 0)  -->
<!DOCTYPE svg PUBLIC "-//W3C//DTD SVG 1.1//EN" "http://www.w3.org/Graphics/SVG/1.1/DTD/svg11.dtd">
<svg version="1.1" id="Слой_1" xmlns="http://www.w3.org/2000/svg" xmlns:xlink="http://www.w3.org/1999/xlink" x="0px" y="0px"
	 width="20px" height="20px" viewBox="0 0 20 20" enable-background="new 0 0 20 20" xml:space="preserve">
<path d="M20,6.5c0,1.413-0.5,2.613-1.5,3.6c-1,0.987-2.193,1.48-3.58,1.48l-4.88,3.56c-0.08,0.96-0.487,1.773-1.22,2.44
	c-0.733,0.666-1.58,1-2.54,1c-0.907,0-1.707-0.287-2.4-0.86s-1.133-1.286-1.32-2.14L0,14.56v-4.8l4.34,1.76
	c0.587-0.359,1.233-0.539,1.94-0.539c0.093,0,0.22,0.007,0.38,0.02l3.18-4.54c0.013-1.387,0.513-2.573,1.5-3.56
	c0.987-0.987,2.18-1.48,3.58-1.48s2.593,0.5,3.58,1.5C19.486,3.92,19.986,5.113,20,6.5z M9.06,14.78c0-0.773-0.273-1.434-0.82-1.98
	c-0.547-0.546-1.2-0.819-1.96-0.819c-0.2,0-0.4,0.026-0.6,0.079l1.16,0.46c0.573,0.228,0.98,0.627,1.22,1.2
	c0.24,0.573,0.24,1.134,0,1.681c-0.227,0.573-0.62,0.979-1.18,1.22s-1.127,0.24-1.7,0c-0.16-0.054-0.394-0.14-0.7-0.26
	s-0.533-0.214-0.68-0.28c0.24,0.453,0.58,0.813,1.02,1.08s0.927,0.399,1.46,0.399c0.773,0,1.427-0.267,1.96-0.8
	C8.773,16.227,9.046,15.566,9.06,14.78z M18.32,6.5c0-0.934-0.333-1.733-1-2.4c-0.667-0.666-1.47-1-2.41-1s-1.744,0.334-2.41,1
	c-0.667,0.667-1,1.471-1,2.41c0,0.94,0.333,1.744,1,2.41c0.667,0.667,1.47,1,2.41,1s1.743-0.333,2.41-1
	C17.986,8.254,18.32,7.447,18.32,6.5z M17.66,6.5c0,0.747-0.267,1.387-0.8,1.92s-1.173,0.8-1.92,0.8S13.546,8.953,13,8.42
	c-0.547-0.533-0.807-1.173-0.78-1.92c0.026-0.746,0.286-1.387,0.78-1.92c0.493-0.533,1.14-0.8,1.94-0.8c0.8,0,1.44,0.267,1.92,0.8
	S17.606,5.754,17.66,6.5z"/>
</svg>
