<?xml version="1.0" encoding="utf-8"?>
<!-- Generator: Adobe Illustrator 17.0.0, SVG Export Plug-In . SVG Version: 6.00 Build 0)  -->
<!DOCTYPE svg PUBLIC "-//W3C//DTD SVG 1.1//EN" "http://www.w3.org/Graphics/SVG/1.1/DTD/svg11.dtd">
<svg version="1.1" id="Слой_1" xmlns="http://www.w3.org/2000/svg" xmlns:xlink="http://www.w3.org/1999/xlink" x="0px" y="0px"
	 width="20px" height="20px" viewBox="0 0 20 20" enable-background="new 0 0 20 20" xml:space="preserve">
<path d="M20,4.448v11.104c0,0.301-0.114,0.56-0.342,0.778c-0.229,0.218-0.488,0.332-0.778,0.342H1.104
	c-0.301,0-0.56-0.114-0.778-0.342C0.109,16.102,0,15.842,0,15.552V4.448c0-0.301,0.109-0.56,0.327-0.778
	c0.218-0.218,0.477-0.332,0.778-0.342h17.777c0.301,0,0.56,0.114,0.778,0.342C19.875,3.898,19.99,4.158,20,4.448z M17.885,10
	c0-0.86-0.207-1.649-0.622-2.364c-0.415-0.715-0.99-1.291-1.726-1.726c-0.737-0.436-1.525-0.648-2.364-0.638
	c-1.048,0-1.996,0.321-2.846,0.964c0.725,0.674,1.218,1.493,1.477,2.457h-0.435c-0.26-0.86-0.715-1.592-1.368-2.193
	C9.337,7.102,8.88,7.833,8.631,8.694H8.196c0.249-0.964,0.741-1.783,1.478-2.457C8.823,5.604,7.875,5.288,6.828,5.288
	c-0.851,0-1.639,0.207-2.364,0.622C3.738,6.325,3.162,6.9,2.737,7.636C2.312,8.373,2.105,9.16,2.115,10
	c0.011,0.84,0.218,1.628,0.622,2.364c0.405,0.737,0.98,1.311,1.727,1.726c0.746,0.415,1.534,0.627,2.364,0.638
	c1.047,0,1.996-0.321,2.846-0.964c-0.695-0.642-1.172-1.405-1.431-2.286h0.436c0.27,0.798,0.71,1.472,1.322,2.021
	c0.611-0.55,1.052-1.223,1.321-2.021h0.436c-0.27,0.881-0.746,1.643-1.431,2.286c0.85,0.643,1.798,0.964,2.846,0.964
	c0.85,0,1.638-0.213,2.364-0.638c0.725-0.424,1.301-1,1.726-1.726C17.688,11.638,17.895,10.851,17.885,10z M4.168,8.865h0.746
	l-0.374,2.287H4.059l0.264-1.758l-0.606,1.758H3.375L3.344,9.409l-0.295,1.742H2.582l0.389-2.287H3.67l0.016,1.415L4.168,8.865z
	 M6.361,9.798c0,0.031-0.01,0.156-0.031,0.373l-0.155,0.98H5.77l0.016-0.203c-0.115,0.156-0.286,0.233-0.513,0.233
	c-0.135,0-0.244-0.046-0.327-0.14c-0.084-0.093-0.125-0.213-0.125-0.358c0-0.228,0.077-0.404,0.233-0.529
	c0.156-0.125,0.368-0.187,0.638-0.187h0.186c0-0.01,0.005-0.026,0.016-0.046c0.01-0.021,0.01-0.031,0-0.031
	c-0.011,0-0.011-0.011,0-0.031c0-0.114-0.104-0.172-0.311-0.172c-0.166,0-0.337,0.027-0.513,0.078c0-0.021,0.021-0.156,0.062-0.405
	C5.361,9.3,5.557,9.269,5.724,9.269C6.148,9.269,6.361,9.446,6.361,9.798z M5.817,10.327H5.708c-0.27,0-0.404,0.088-0.404,0.264
	c0,0.135,0.054,0.202,0.163,0.202c0.109,0,0.194-0.046,0.257-0.14S5.817,10.451,5.817,10.327z M7.714,9.3L7.652,9.72
	C7.517,9.699,7.397,9.689,7.294,9.689c-0.156,0-0.233,0.052-0.233,0.156c0,0.042,0.01,0.078,0.031,0.109
	c0.021,0.031,0.083,0.062,0.187,0.093c0.238,0.104,0.358,0.275,0.358,0.513c0,0.415-0.254,0.622-0.762,0.622
	c-0.197,0-0.363-0.015-0.497-0.046L6.439,10.7c0.166,0.052,0.311,0.077,0.435,0.077c0.187,0,0.28-0.057,0.28-0.171
	c0-0.042-0.016-0.073-0.047-0.093l-0.186-0.109c-0.249-0.124-0.374-0.295-0.374-0.513c0-0.415,0.244-0.623,0.731-0.623
	C7.455,9.269,7.6,9.279,7.714,9.3z M8.476,9.3h0.248L8.662,9.751H8.414c-0.011,0.093-0.031,0.208-0.062,0.342
	s-0.052,0.249-0.062,0.342l-0.016,0.156c0,0.093,0.052,0.14,0.156,0.14c0.052,0,0.099-0.005,0.14-0.016L8.507,11.12
	c-0.125,0.041-0.239,0.062-0.342,0.062c-0.249,0-0.383-0.134-0.404-0.404c0-0.072,0.025-0.238,0.077-0.497l0.218-1.26h0.482
	L8.476,9.3z M10.234,9.938c0,0.125-0.016,0.275-0.047,0.451H9.223c-0.021,0.125,0.005,0.218,0.077,0.28
	c0.072,0.062,0.181,0.093,0.327,0.093c0.176,0,0.347-0.042,0.513-0.125l-0.077,0.466c-0.177,0.052-0.342,0.077-0.498,0.077
	c-0.55,0-0.824-0.274-0.824-0.824c0-0.321,0.077-0.585,0.233-0.793S9.331,9.259,9.58,9.269c0.207,0,0.368,0.058,0.482,0.172
	C10.177,9.554,10.234,9.72,10.234,9.938z M9.254,10.015h0.529v-0.03c0.01-0.021,0.015-0.042,0.015-0.062
	c0-0.021-0.005-0.042-0.015-0.062C9.772,9.839,9.766,9.819,9.766,9.798c0-0.021-0.01-0.042-0.031-0.062
	C9.715,9.715,9.689,9.699,9.658,9.689c-0.031-0.01-0.062-0.015-0.093-0.015C9.399,9.673,9.295,9.787,9.254,10.015z M11.446,9.285
	c-0.072,0.135-0.134,0.317-0.186,0.544c-0.125-0.011-0.218,0.057-0.28,0.202c-0.062,0.145-0.13,0.519-0.202,1.12H10.28l0.031-0.125
	c0.125-0.757,0.207-1.333,0.249-1.727h0.451L10.98,9.58c0.083-0.125,0.156-0.207,0.218-0.249C11.26,9.29,11.343,9.274,11.446,9.285z
	 M13.064,8.927l-0.077,0.497C12.831,9.342,12.686,9.3,12.55,9.3c-0.176,0-0.321,0.084-0.435,0.249
	c-0.114,0.166-0.171,0.368-0.171,0.607c0,0.176,0.036,0.311,0.109,0.404c0.072,0.093,0.187,0.146,0.342,0.156
	c0.124,0,0.264-0.041,0.42-0.125l-0.093,0.513c-0.166,0.052-0.311,0.077-0.436,0.077c-0.259,0-0.466-0.087-0.622-0.264
	c-0.156-0.176-0.233-0.415-0.233-0.715c0-0.404,0.103-0.736,0.311-0.995c0.207-0.26,0.472-0.389,0.794-0.389
	C12.691,8.818,12.867,8.855,13.064,8.927z M14.479,9.798c0,0.103-0.011,0.228-0.031,0.373c-0.084,0.456-0.135,0.783-0.156,0.98
	h-0.404l0.015-0.203c-0.114,0.156-0.286,0.233-0.513,0.233c-0.134,0-0.244-0.046-0.327-0.14s-0.119-0.213-0.109-0.358
	c0-0.228,0.072-0.404,0.218-0.529c0.145-0.125,0.352-0.187,0.622-0.187h0.202c0.01-0.041,0.015-0.077,0.015-0.109
	c0-0.114-0.103-0.172-0.311-0.172c-0.166,0-0.337,0.027-0.513,0.078c0-0.021,0.026-0.156,0.077-0.405
	c0.218-0.062,0.41-0.093,0.576-0.093C14.267,9.269,14.479,9.446,14.479,9.798z M13.935,10.327h-0.093
	c-0.279,0-0.42,0.088-0.42,0.264c0,0.135,0.052,0.202,0.156,0.202c0.103,0,0.192-0.046,0.264-0.14
	C13.914,10.56,13.945,10.451,13.935,10.327z M15.692,9.285c-0.072,0.145-0.13,0.327-0.171,0.544
	c-0.135-0.011-0.228,0.057-0.28,0.202c-0.052,0.145-0.124,0.519-0.217,1.12h-0.482l0.015-0.125c0.114-0.601,0.203-1.177,0.264-1.727
	h0.451c0,0.062-0.015,0.156-0.046,0.28c0.093-0.125,0.171-0.207,0.233-0.249C15.521,9.29,15.599,9.274,15.692,9.285z M16.921,8.865
	h0.482l-0.373,2.287h-0.451l0.031-0.172c-0.135,0.135-0.291,0.202-0.467,0.202s-0.316-0.072-0.42-0.217
	c-0.103-0.145-0.156-0.327-0.156-0.544c0-0.311,0.078-0.581,0.234-0.809c0.155-0.228,0.342-0.337,0.56-0.327
	c0.176,0,0.327,0.083,0.451,0.249L16.921,8.865z M16.703,10.093c0-0.238-0.089-0.358-0.265-0.358c-0.103,0-0.191,0.057-0.264,0.171
	c-0.072,0.115-0.109,0.264-0.109,0.451c0,0.238,0.083,0.358,0.249,0.358c0.114,0,0.207-0.057,0.279-0.171
	S16.703,10.28,16.703,10.093z"/>
</svg>
