<?xml version="1.0" encoding="utf-8"?>
<!-- Generator: Adobe Illustrator 17.0.0, SVG Export Plug-In . SVG Version: 6.00 Build 0)  -->
<!DOCTYPE svg PUBLIC "-//W3C//DTD SVG 1.1//EN" "http://www.w3.org/Graphics/SVG/1.1/DTD/svg11.dtd">
<svg version="1.1" id="Слой_1" xmlns="http://www.w3.org/2000/svg" xmlns:xlink="http://www.w3.org/1999/xlink" x="0px" y="0px"
	 width="20px" height="20px" viewBox="0 0 20 20" enable-background="new 0 0 20 20" xml:space="preserve">
<path d="M17.8,4.113c-0.2,1.253-0.614,3.693-1.24,7.32c-0.04,0.227-0.14,0.433-0.3,0.619c-0.16,0.188-0.32,0.341-0.48,0.46
	c-0.16,0.12-0.367,0.234-0.62,0.341c-1.867,0.933-4.133,1.26-6.8,0.979c-1.854-0.2-3.32-0.72-4.4-1.56
	c-0.107-0.08-0.2-0.174-0.28-0.28s-0.147-0.24-0.2-0.4c-0.053-0.159-0.087-0.286-0.1-0.38l-0.06-0.439
	c-0.027-0.2-0.047-0.327-0.06-0.38l-0.62-3.48c-0.08-0.453-0.167-1.007-0.26-1.66c-0.094-0.653-0.174-1.24-0.24-1.76
	c0.026-0.187,0.093-0.366,0.2-0.54c0.106-0.173,0.22-0.313,0.34-0.42s0.293-0.22,0.52-0.34c0.227-0.12,0.393-0.2,0.5-0.24l0.54-0.2
	c0.933-0.347,2.1-0.586,3.5-0.72c2.813-0.28,5.327-0.093,7.54,0.56c1.146,0.334,1.946,0.787,2.4,1.36
	c0.12,0.146,0.18,0.333,0.18,0.56C17.86,3.74,17.84,3.94,17.8,4.113z M15.78,14.853c-0.067,0.187-0.127,0.467-0.18,0.84
	s-0.107,0.687-0.16,0.939c-0.053,0.254-0.153,0.514-0.3,0.78c-0.147,0.267-0.367,0.48-0.66,0.64c-0.64,0.36-1.347,0.627-2.12,0.801
	c-0.773,0.173-1.52,0.253-2.24,0.239c-0.72-0.013-1.474-0.08-2.26-0.199c-0.333-0.067-0.634-0.134-0.9-0.2
	c-0.267-0.067-0.553-0.167-0.86-0.3c-0.307-0.134-0.58-0.301-0.82-0.5c-0.24-0.2-0.434-0.428-0.58-0.681
	c-0.187-0.72-0.394-1.807-0.62-3.26l0.06-0.18l0.2-0.101c1.653,1.107,3.54,1.66,5.66,1.66c2.12,0,4.007-0.553,5.66-1.66
	c0.16,0.04,0.247,0.127,0.26,0.261c0.013,0.133-0.007,0.3-0.06,0.5C15.806,14.632,15.78,14.773,15.78,14.853z M15.14,3.292
	c-0.147-0.2-0.354-0.366-0.62-0.5c-0.267-0.133-0.48-0.213-0.64-0.24l-0.8-0.14c-2.16-0.347-4.267-0.34-6.32,0.021
	c-0.32,0.053-0.567,0.1-0.74,0.14s-0.374,0.12-0.6,0.24S5.007,3.092,4.86,3.292C5.073,3.506,5.353,3.679,5.7,3.813
	c0.347,0.133,0.62,0.213,0.82,0.239l0.98,0.12c1.693,0.228,3.36,0.233,5,0.021l1-0.141c0.2-0.026,0.467-0.106,0.8-0.239
	C14.633,3.679,14.913,3.506,15.14,3.292z M12.48,9.353c-0.107-0.801-0.527-1.413-1.26-1.841c-0.733-0.426-1.467-0.473-2.2-0.14
	C8.553,7.573,8.18,7.9,7.9,8.353C7.62,8.806,7.487,9.285,7.5,9.792c0.04,0.681,0.333,1.26,0.88,1.74
	c0.546,0.479,1.16,0.69,1.84,0.63c0.68-0.06,1.247-0.377,1.7-0.95S12.56,10.02,12.48,9.353z M11.24,9.573
	c0.053,0.467-0.133,0.847-0.56,1.14c-0.427,0.294-0.847,0.313-1.26,0.061c-0.28-0.12-0.473-0.333-0.58-0.641
	C8.733,9.825,8.726,9.52,8.82,9.212c0.093-0.307,0.287-0.52,0.58-0.64c0.267-0.133,0.54-0.18,0.82-0.14
	c0.28,0.04,0.513,0.173,0.7,0.399C11.107,9.059,11.213,9.306,11.24,9.573z"/>
</svg>
