<?xml version="1.0" encoding="utf-8"?>
<!-- Generator: Adobe Illustrator 17.0.0, SVG Export Plug-In . SVG Version: 6.00 Build 0)  -->
<!DOCTYPE svg PUBLIC "-//W3C//DTD SVG 1.1//EN" "http://www.w3.org/Graphics/SVG/1.1/DTD/svg11.dtd">
<svg version="1.1" id="Слой_1" xmlns="http://www.w3.org/2000/svg" xmlns:xlink="http://www.w3.org/1999/xlink" x="0px" y="0px"
	 width="20px" height="20px" viewBox="0 0 20 20" enable-background="new 0 0 20 20" xml:space="preserve">
<path d="M20.008,10c0,0.72-0.007,1.28-0.02,1.68c-0.014,0.4-0.04,0.907-0.08,1.521s-0.127,1.16-0.26,1.64
	c-0.12,0.547-0.374,1.007-0.76,1.38c-0.387,0.374-0.854,0.587-1.4,0.641c-1.64,0.187-4.133,0.279-7.48,0.279s-5.84-0.093-7.48-0.279
	c-0.534-0.054-1-0.267-1.4-0.641c-0.4-0.373-0.66-0.833-0.78-1.38c-0.093-0.479-0.173-1.026-0.24-1.64
	c-0.067-0.613-0.094-1.12-0.08-1.521c0.013-0.399,0.006-0.96-0.02-1.68c-0.027-0.72-0.02-1.28,0.02-1.68
	c0.04-0.4,0.066-0.907,0.08-1.521c0.013-0.613,0.1-1.16,0.26-1.64c0.12-0.547,0.373-1.007,0.76-1.38
	c0.386-0.373,0.853-0.587,1.4-0.641c1.64-0.187,4.133-0.279,7.48-0.279s5.84,0.093,7.48,0.279c0.533,0.054,1,0.268,1.4,0.641
	s0.66,0.833,0.78,1.38c0.106,0.479,0.187,1.026,0.24,1.64s0.08,1.12,0.08,1.521C19.988,8.72,19.994,9.28,20.008,10z M14.288,10
	c0-0.28-0.107-0.48-0.32-0.6l-5.72-3.58C8.021,5.674,7.781,5.667,7.528,5.8c-0.253,0.134-0.38,0.34-0.38,0.62v7.16
	c0,0.28,0.126,0.486,0.38,0.62c0.12,0.054,0.233,0.08,0.34,0.08c0.146,0,0.273-0.033,0.38-0.101l5.72-3.58
	C14.181,10.48,14.288,10.28,14.288,10z"/>
</svg>
