<?xml version="1.0" encoding="utf-8"?>
<!-- Generator: Adobe Illustrator 17.0.0, SVG Export Plug-In . SVG Version: 6.00 Build 0)  -->
<!DOCTYPE svg PUBLIC "-//W3C//DTD SVG 1.1//EN" "http://www.w3.org/Graphics/SVG/1.1/DTD/svg11.dtd">
<svg version="1.1" id="Слой_1" xmlns="http://www.w3.org/2000/svg" xmlns:xlink="http://www.w3.org/1999/xlink" x="0px" y="0px"
	 width="20px" height="20px" viewBox="0 0 20 20" enable-background="new 0 0 20 20" xml:space="preserve">
<path d="M5.57,3.709c0,0.547-0.193,1-0.58,1.36s-0.887,0.54-1.5,0.54H3.47c-0.613,0-1.107-0.18-1.48-0.54
	c-0.374-0.36-0.56-0.813-0.56-1.36c0-0.546,0.193-1,0.58-1.359c0.387-0.36,0.887-0.54,1.5-0.54s1.106,0.18,1.48,0.54
	C5.363,2.709,5.556,3.164,5.57,3.709z M5.33,7.13v11.06H1.65V7.13H5.33z M18.57,11.85v6.34h-3.66v-5.92c0-0.787-0.153-1.4-0.46-1.84
	c-0.307-0.44-0.78-0.66-1.42-0.66c-0.467,0-0.854,0.127-1.16,0.38c-0.307,0.254-0.547,0.573-0.72,0.96
	c-0.08,0.227-0.12,0.527-0.12,0.9v6.18H7.35c0.013-2.974,0.02-5.38,0.02-7.22V7.669L7.35,7.13h3.68v1.6h-0.02
	c0.146-0.24,0.3-0.446,0.46-0.62c0.16-0.173,0.367-0.366,0.62-0.58c0.253-0.213,0.58-0.373,0.98-0.479
	c0.4-0.107,0.827-0.167,1.28-0.181c1.267,0,2.287,0.42,3.06,1.261C18.183,8.97,18.57,10.209,18.57,11.85z"/>
</svg>
