<?xml version="1.0" encoding="utf-8"?>
<!-- Generator: Adobe Illustrator 17.0.0, SVG Export Plug-In . SVG Version: 6.00 Build 0)  -->
<!DOCTYPE svg PUBLIC "-//W3C//DTD SVG 1.1//EN" "http://www.w3.org/Graphics/SVG/1.1/DTD/svg11.dtd">
<svg version="1.1" id="Слой_1" xmlns="http://www.w3.org/2000/svg" xmlns:xlink="http://www.w3.org/1999/xlink" x="0px" y="0px"
	 width="20px" height="20px" viewBox="0 0 20 20" enable-background="new 0 0 20 20" xml:space="preserve">
<path fill-rule="evenodd" clip-rule="evenodd" d="M6.25,3.75C5,3.75,3.75,5,3.75,6.25H2.5c0-1.875,1.875-3.75,3.75-3.75V3.75z
	 M6.875,12.5c3.107,0,5.625-2.518,5.625-5.625S9.982,1.25,6.875,1.25S1.25,3.768,1.25,6.875S3.768,12.5,6.875,12.5z M6.875,13.75
	C3.078,13.75,0,10.672,0,6.875S3.078,0,6.875,0s6.875,3.078,6.875,6.875c0,1.524-0.496,2.932-1.335,4.072l0.139,0.314L20,18.75
	L18.75,20l-7.5-7.5l-0.197-0.165C9.895,13.223,8.447,13.75,6.875,13.75z"/>
</svg>
