<?xml version="1.0" encoding="utf-8"?>
<!-- Generator: Adobe Illustrator 17.0.0, SVG Export Plug-In . SVG Version: 6.00 Build 0)  -->
<!DOCTYPE svg PUBLIC "-//W3C//DTD SVG 1.1//EN" "http://www.w3.org/Graphics/SVG/1.1/DTD/svg11.dtd">
<svg version="1.1" id="Слой_1" xmlns="http://www.w3.org/2000/svg" xmlns:xlink="http://www.w3.org/1999/xlink" x="0px" y="0px"
	 width="20px" height="20px" viewBox="0 0 20 20" enable-background="new 0 0 20 20" xml:space="preserve">
<path d="M0,3.736h5.809c0.56,0,1.061,0.047,1.505,0.14C7.757,3.969,8.171,4.121,8.556,4.33c0.385,0.21,0.677,0.525,0.875,0.945
	c0.198,0.42,0.298,0.922,0.298,1.505c0,1.178-0.56,2.035-1.68,2.572c0.746,0.199,1.306,0.572,1.68,1.12
	c0.373,0.549,0.566,1.213,0.577,1.995c0,0.478-0.082,0.921-0.245,1.329c-0.164,0.408-0.379,0.747-0.648,1.015
	c-0.268,0.268-0.589,0.496-0.962,0.683c-0.374,0.186-0.764,0.326-1.173,0.419c-0.408,0.094-0.846,0.134-1.312,0.123H0V3.736z
	 M2.712,8.705h2.73c0.513,0,0.915-0.116,1.207-0.349c0.291-0.233,0.443-0.607,0.455-1.12c0-0.933-0.619-1.399-1.855-1.399H2.712
	V8.705z M2.712,13.954h2.887c1.33,0,1.995-0.548,1.995-1.645c0-1.166-0.648-1.75-1.942-1.75H2.712V13.954z M15.748,14.426
	c0.408,0,0.805-0.098,1.19-0.297c0.385-0.198,0.63-0.484,0.735-0.857h2.152c-0.642,1.994-2.03,2.992-4.165,2.992
	c-1.388,0-2.496-0.425-3.324-1.277c-0.828-0.852-1.242-1.983-1.242-3.394c0-1.353,0.425-2.479,1.277-3.377
	c0.851-0.898,1.948-1.347,3.289-1.347c0.898,0,1.68,0.222,2.345,0.665c0.665,0.443,1.166,1.027,1.505,1.75
	c0.338,0.724,0.502,1.534,0.49,2.432c0,0.105-0.006,0.257-0.018,0.455H13.56c0,0.723,0.186,1.283,0.56,1.68
	C14.493,14.246,15.036,14.438,15.748,14.426z M18.04,4.559h-4.987v1.207h4.987V4.559z M15.59,8.723
	c-0.595,0-1.073,0.169-1.434,0.507c-0.362,0.338-0.56,0.805-0.595,1.399h3.972C17.416,9.358,16.768,8.723,15.59,8.723z"/>
</svg>
