<?xml version="1.0" encoding="utf-8"?>
<!-- Generator: Adobe Illustrator 17.0.0, SVG Export Plug-In . SVG Version: 6.00 Build 0)  -->
<!DOCTYPE svg PUBLIC "-//W3C//DTD SVG 1.1//EN" "http://www.w3.org/Graphics/SVG/1.1/DTD/svg11.dtd">
<svg version="1.1" id="Слой_1" xmlns="http://www.w3.org/2000/svg" xmlns:xlink="http://www.w3.org/1999/xlink" x="0px" y="0px"
	 width="20px" height="20px" viewBox="0 0 20 20" enable-background="new 0 0 20 20" xml:space="preserve">
<path d="M3.3,6.727c0.307,0,0.573,0.113,0.8,0.34s0.333,0.493,0.32,0.8v4.8c0,0.32-0.107,0.594-0.32,0.82
	c-0.214,0.227-0.479,0.34-0.8,0.34s-0.594-0.113-0.82-0.34s-0.34-0.5-0.34-0.82v-4.8c0-0.307,0.113-0.573,0.34-0.8
	S2.98,6.727,3.3,6.727z M12.541,2.426c0.786,0.414,1.42,0.98,1.899,1.7c0.48,0.72,0.72,1.527,0.72,2.42H4.84
	c0-0.88,0.233-1.687,0.7-2.42c0.466-0.733,1.106-1.3,1.92-1.7l-0.78-1.46c-0.054-0.106-0.04-0.18,0.04-0.22
	c0.106-0.053,0.187-0.033,0.24,0.06l0.8,1.48c0.706-0.32,1.453-0.48,2.24-0.48c0.786,0,1.533,0.16,2.239,0.48l0.801-1.48
	c0.053-0.093,0.126-0.116,0.22-0.069c0.093,0.047,0.113,0.123,0.06,0.229L12.541,2.426z M15.121,6.946v7.42
	c0,0.347-0.12,0.64-0.36,0.88s-0.527,0.36-0.86,0.36h-0.84v2.54c0,0.319-0.106,0.586-0.32,0.8c-0.213,0.213-0.486,0.326-0.819,0.34
	c-0.334,0.013-0.607-0.1-0.82-0.34c-0.214-0.24-0.327-0.507-0.34-0.8v-2.54H9.22v2.54c0,0.319-0.107,0.586-0.32,0.8
	c-0.213,0.213-0.483,0.323-0.81,0.33c-0.327,0.006-0.597-0.104-0.811-0.33c-0.213-0.227-0.326-0.493-0.34-0.8l-0.02-2.54H6.1
	c-0.347,0-0.634-0.12-0.86-0.36s-0.347-0.533-0.359-0.88v-7.42H15.121z M7.64,4.687c0.12,0,0.22-0.047,0.3-0.141
	c0.08-0.093,0.127-0.193,0.141-0.3C8.093,4.14,8.046,4.033,7.94,3.926c-0.106-0.106-0.207-0.146-0.3-0.12
	c-0.094,0.027-0.193,0.067-0.3,0.12c-0.107,0.054-0.147,0.16-0.12,0.32c0.026,0.16,0.066,0.26,0.12,0.3
	C7.393,4.586,7.494,4.633,7.64,4.687z M12.36,4.687c0.12,0,0.221-0.047,0.3-0.141c0.08-0.093,0.12-0.193,0.12-0.3
	s-0.04-0.213-0.12-0.32c-0.079-0.106-0.18-0.146-0.3-0.12c-0.12,0.027-0.227,0.067-0.319,0.12c-0.094,0.054-0.134,0.16-0.12,0.32
	c0.013,0.16,0.053,0.26,0.12,0.3C12.107,4.586,12.213,4.633,12.36,4.687z M17.86,7.866v4.8c0,0.32-0.113,0.594-0.34,0.82
	s-0.497,0.34-0.81,0.34c-0.313,0-0.584-0.113-0.811-0.34s-0.34-0.5-0.34-0.82v-4.8c0-0.32,0.113-0.587,0.34-0.8
	c0.227-0.214,0.497-0.323,0.811-0.33c0.313-0.007,0.583,0.104,0.81,0.33S17.86,7.56,17.86,7.866z"/>
</svg>
