<?xml version="1.0" encoding="utf-8"?>
<!-- Generator: Adobe Illustrator 17.0.0, SVG Export Plug-In . SVG Version: 6.00 Build 0)  -->
<!DOCTYPE svg PUBLIC "-//W3C//DTD SVG 1.1//EN" "http://www.w3.org/Graphics/SVG/1.1/DTD/svg11.dtd">
<svg version="1.1" id="Слой_1" xmlns="http://www.w3.org/2000/svg" xmlns:xlink="http://www.w3.org/1999/xlink" x="0px" y="0px"
	 width="20px" height="20px" viewBox="0 0 20 20" enable-background="new 0 0 20 20" xml:space="preserve">
<path d="M18.27,14.24c0,1.747-0.093,3.046-0.28,3.899c-0.107,0.44-0.327,0.813-0.66,1.12c-0.333,0.307-0.713,0.474-1.14,0.5
	C14.83,19.92,12.77,20,10.01,20c-2.76,0-4.827-0.08-6.2-0.24c-0.427-0.04-0.807-0.207-1.14-0.5c-0.333-0.293-0.547-0.667-0.64-1.12
	c-0.2-0.826-0.3-2.12-0.3-3.88s0.1-3.066,0.3-3.92C2.124,9.9,2.337,9.527,2.67,9.22C3.003,8.913,3.383,8.74,3.81,8.7
	c1.373-0.146,3.44-0.22,6.2-0.22c2.76,0,4.82,0.073,6.18,0.22c0.44,0.054,0.82,0.227,1.14,0.52c0.32,0.294,0.54,0.667,0.66,1.12
	C18.177,11.167,18.27,12.467,18.27,14.24z M5.25,11.46h1.2v-1.04H2.97v1.04h1.18v6.36h1.1V11.46z M7.13,0h1.14L6.93,4.46V7.48H5.81
	V4.46C5.703,3.9,5.477,3.106,5.13,2.08C4.85,1.32,4.604,0.627,4.39,0h1.2l0.78,2.94L7.13,0z M8.47,17.82h1V12.3h-1v4.22
	c-0.227,0.308-0.44,0.461-0.64,0.461c-0.133,0-0.207-0.073-0.22-0.221c-0.014-0.026-0.02-0.16-0.02-0.399V12.3h-1v4.36
	c0,0.373,0.033,0.646,0.1,0.82c0.093,0.279,0.313,0.42,0.66,0.42s0.72-0.228,1.12-0.681V17.82z M11.27,3.72v1.94
	c0,0.613-0.107,1.054-0.32,1.32C10.67,7.367,10.277,7.56,9.77,7.56S8.87,7.367,8.59,6.98c-0.2-0.28-0.3-0.721-0.3-1.32V3.72
	c0-0.6,0.1-1.033,0.3-1.3c0.28-0.387,0.673-0.58,1.18-0.58s0.9,0.193,1.18,0.58C11.163,2.687,11.27,3.12,11.27,3.72z M10.25,5.86
	V3.52c0-0.52-0.16-0.779-0.48-0.779C9.45,2.74,9.29,3,9.29,3.52V5.86c0,0.52,0.16,0.779,0.48,0.779
	C10.09,6.64,10.25,6.38,10.25,5.86z M13.27,16.16v-2.2c0-0.547-0.033-0.913-0.1-1.1c-0.134-0.413-0.394-0.62-0.78-0.62
	s-0.74,0.2-1.06,0.6v-2.42h-1v7.4h1v-0.54c0.333,0.413,0.68,0.62,1.04,0.62c0.4,0,0.667-0.207,0.8-0.62
	C13.237,17.08,13.27,16.707,13.27,16.16z M12.27,13.88v2.36c0,0.493-0.146,0.74-0.44,0.74c-0.173,0-0.34-0.08-0.5-0.24v-3.36
	c0.16-0.16,0.327-0.24,0.5-0.24C12.124,13.14,12.27,13.387,12.27,13.88z M15.01,1.9v5.58h-1.02V6.86
	c-0.4,0.467-0.787,0.699-1.16,0.699c-0.333,0-0.553-0.14-0.66-0.42c-0.054-0.173-0.08-0.453-0.08-0.84V1.9h1.02v4.5
	c0.026,0.159,0.106,0.239,0.24,0.239c0.2,0,0.413-0.159,0.64-0.479V1.9H15.01z M17.03,16.04V15.9h-1.02
	c0,0.387-0.007,0.613-0.02,0.68c-0.054,0.267-0.2,0.4-0.44,0.4c-0.347,0-0.52-0.254-0.52-0.761V15.24h2V14.1
	c0-0.586-0.1-1.02-0.3-1.3c-0.293-0.373-0.69-0.56-1.19-0.56s-0.897,0.187-1.19,0.56c-0.2,0.28-0.3,0.714-0.3,1.3v1.92
	c0,0.587,0.106,1.021,0.32,1.301c0.293,0.387,0.7,0.58,1.22,0.58s0.913-0.2,1.18-0.601c0.133-0.2,0.213-0.399,0.24-0.6
	C17.023,16.634,17.03,16.413,17.03,16.04z M16.03,13.9v0.5h-1v-0.5c0-0.507,0.167-0.761,0.5-0.761
	C15.863,13.14,16.03,13.394,16.03,13.9z"/>
</svg>
