<?xml version="1.0" encoding="utf-8"?>
<!-- Generator: Adobe Illustrator 17.0.0, SVG Export Plug-In . SVG Version: 6.00 Build 0)  -->
<!DOCTYPE svg PUBLIC "-//W3C//DTD SVG 1.1//EN" "http://www.w3.org/Graphics/SVG/1.1/DTD/svg11.dtd">
<svg version="1.1" id="Слой_1" xmlns="http://www.w3.org/2000/svg" xmlns:xlink="http://www.w3.org/1999/xlink" x="0px" y="0px"
	 width="20px" height="20px" viewBox="0 0 20 20" enable-background="new 0 0 20 20" xml:space="preserve">
<path d="M19.99,0.837L17.133,17.98c-0.034,0.212-0.168,0.39-0.357,0.502c-0.1,0.056-0.223,0.089-0.346,0.089
	c-0.089,0-0.179-0.022-0.268-0.056l-5.056-2.065l-2.701,3.292C8.271,19.911,8.07,20,7.858,20c-0.078,0-0.168-0.011-0.246-0.045
	c-0.279-0.1-0.469-0.369-0.469-0.67V15.39l9.643-11.819L4.856,13.895l-4.408-1.808c-0.257-0.1-0.424-0.334-0.447-0.613
	c-0.011-0.268,0.123-0.525,0.357-0.659L18.93,0.1C19.041,0.033,19.164,0,19.287,0c0.145,0,0.29,0.045,0.402,0.123
	C19.923,0.29,20.034,0.558,19.99,0.837z"/>
</svg>
