<?xml version="1.0" encoding="utf-8"?>
<!-- Generator: Adobe Illustrator 17.0.0, SVG Export Plug-In . SVG Version: 6.00 Build 0)  -->
<!DOCTYPE svg PUBLIC "-//W3C//DTD SVG 1.1//EN" "http://www.w3.org/Graphics/SVG/1.1/DTD/svg11.dtd">
<svg version="1.1" id="Слой_1" xmlns="http://www.w3.org/2000/svg" xmlns:xlink="http://www.w3.org/1999/xlink" x="0px" y="0px"
	 width="20px" height="20px" viewBox="0 0 20 20" enable-background="new 0 0 20 20" xml:space="preserve">
<path d="M10.014,0c1.802,0,3.472,0.451,5.011,1.352c1.538,0.902,2.751,2.114,3.636,3.636c0.886,1.523,1.329,3.193,1.329,5.011
	s-0.443,3.489-1.329,5.012c-0.886,1.523-2.098,2.735-3.636,3.636S11.816,20,10.014,20c-1.803,0-3.482-0.451-5.035-1.353
	s-2.758-2.113-3.613-3.636c-0.855-1.522-1.305-3.194-1.353-5.012c-0.046-1.818,0.404-3.488,1.353-5.011
	c0.948-1.523,2.152-2.735,3.613-3.636C6.439,0.451,8.117,0,10.014,0z M11.645,11.748l0.233-8.065c0-0.109-0.046-0.187-0.14-0.233
	c-0.078-0.077-0.178-0.117-0.303-0.117H8.568c-0.124,0-0.226,0.039-0.304,0.117C8.172,3.496,8.126,3.574,8.126,3.683l0.233,8.065
	c0,0.093,0.038,0.171,0.117,0.232c0.077,0.063,0.186,0.094,0.326,0.094h2.401c0.124,0,0.225-0.031,0.303-0.094
	C11.583,11.919,11.629,11.841,11.645,11.748z M11.668,16.223v-2.471c0-0.124-0.039-0.225-0.116-0.303
	c-0.079-0.078-0.172-0.117-0.28-0.117H8.778c-0.124,0-0.226,0.039-0.303,0.117c-0.079,0.078-0.125,0.178-0.14,0.303v2.471
	c0,0.125,0.046,0.226,0.14,0.304c0.093,0.078,0.193,0.124,0.303,0.139h2.494c0.108,0,0.201-0.046,0.28-0.139
	C11.629,16.433,11.668,16.332,11.668,16.223z"/>
</svg>
