<?xml version="1.0" encoding="utf-8"?>
<!-- Generator: Adobe Illustrator 17.0.0, SVG Export Plug-In . SVG Version: 6.00 Build 0)  -->
<!DOCTYPE svg PUBLIC "-//W3C//DTD SVG 1.1//EN" "http://www.w3.org/Graphics/SVG/1.1/DTD/svg11.dtd">
<svg version="1.1" id="Слой_1" xmlns="http://www.w3.org/2000/svg" xmlns:xlink="http://www.w3.org/1999/xlink" x="0px" y="0px"
	 width="20px" height="20px" viewBox="0 0 20 20" enable-background="new 0 0 20 20" xml:space="preserve">
<path d="M20,6.66c0,1.64-0.853,3.314-2.559,5.02l-6.94,6.7c-0.133,0.133-0.3,0.2-0.5,0.2s-0.367-0.068-0.5-0.2l-6.96-6.72
	L2.24,11.361c-0.133-0.133-0.34-0.374-0.62-0.72s-0.534-0.713-0.76-1.1c-0.227-0.387-0.427-0.833-0.6-1.34
	C0.087,7.694,0,7.18,0,6.66c0-1.64,0.474-2.92,1.42-3.84s2.253-1.386,3.92-1.4c0.453,0,0.92,0.08,1.4,0.24
	c0.48,0.16,0.927,0.38,1.34,0.66c0.413,0.28,0.773,0.533,1.08,0.76C9.467,3.307,9.747,3.56,10,3.84
	c0.267-0.267,0.547-0.52,0.84-0.76c0.294-0.24,0.653-0.493,1.081-0.76c0.426-0.267,0.872-0.486,1.34-0.66
	c0.466-0.173,0.933-0.253,1.4-0.24c1.667,0,2.974,0.467,3.92,1.4C19.526,3.754,20,5.034,20,6.66z M18.58,6.66
	c0-0.613-0.08-1.146-0.24-1.6c-0.16-0.453-0.366-0.82-0.619-1.1c-0.254-0.28-0.561-0.5-0.92-0.66c-0.36-0.16-0.707-0.28-1.04-0.36
	c-0.334-0.08-0.7-0.107-1.1-0.08c-0.4,0.027-0.813,0.12-1.239,0.28c-0.427,0.16-0.84,0.4-1.24,0.72c-0.4,0.32-0.72,0.587-0.96,0.8
	c-0.24,0.214-0.466,0.44-0.68,0.68C10.407,5.514,10.227,5.6,10,5.6S9.593,5.514,9.46,5.34c-0.187-0.2-0.413-0.426-0.68-0.68
	c-0.267-0.253-0.587-0.52-0.96-0.8C7.447,3.58,7.034,3.34,6.58,3.141c-0.453-0.2-0.867-0.293-1.24-0.28s-0.74,0.04-1.1,0.08
	C3.88,2.98,3.534,3.1,3.2,3.3C2.867,3.5,2.56,3.72,2.28,3.96C2,4.201,1.794,4.567,1.66,5.06c-0.133,0.494-0.213,1.027-0.24,1.6
	c0,1.24,0.7,2.56,2.1,3.96L10,16.86l6.48-6.24C17.88,9.22,18.58,7.901,18.58,6.66z"/>
</svg>
