<?xml version="1.0" encoding="utf-8"?>
<!-- Generator: Adobe Illustrator 17.0.0, SVG Export Plug-In . SVG Version: 6.00 Build 0)  -->
<!DOCTYPE svg PUBLIC "-//W3C//DTD SVG 1.1//EN" "http://www.w3.org/Graphics/SVG/1.1/DTD/svg11.dtd">
<svg version="1.1" id="Слой_1" xmlns="http://www.w3.org/2000/svg" xmlns:xlink="http://www.w3.org/1999/xlink" x="0px" y="0px"
	 width="20px" height="20px" viewBox="0 0 20 20" enable-background="new 0 0 20 20" xml:space="preserve">
<path d="M19.512,13.017l-6.482,6.494C12.713,19.815,12.277,20,11.828,20c-0.449,0-0.884-0.185-1.188-0.489L1.201,10.06
	C0.528,9.4,0,8.119,0,7.181V1.69C0,0.766,0.765,0,1.69,0h5.492C8.119,0,9.4,0.528,10.073,1.201l9.439,9.426
	C19.815,10.944,20,11.38,20,11.828C20,12.277,19.815,12.713,19.512,13.017z M4.224,2.535c-0.937,0-1.69,0.753-1.69,1.69
	s0.753,1.69,1.69,1.69s1.69-0.753,1.69-1.69S5.162,2.535,4.224,2.535z"/>
</svg>
