<?xml version="1.0" encoding="utf-8"?>
<!-- Generator: Adobe Illustrator 19.0.0, SVG Export Plug-In . SVG Version: 6.00 Build 0)  -->
<svg version="1.1" id="Слой_1" xmlns="http://www.w3.org/2000/svg" xmlns:xlink="http://www.w3.org/1999/xlink" x="0px" y="0px"
	 viewBox="-45 84 114 80" style="enable-background:new -45 84 114 80;" xml:space="preserve">
<style type="text/css">
	.st0{fill:#373435;}
	.st1{fill:#ED3237;}
	.st2{fill:#FFFFFF;}
</style>
<g>
	<path class="st0" d="M-19.9,145.7L-19.9,145.7c0.1,0.1,0.1,0.2,0.1,0.4c-0.1,0.2-0.1,0.5-0.1,0.7c0,0.2,0,0.4,0,0.5
		c0,0.1,0.2,0.1,0.4-0.1c0.1-0.1,0.2-0.2,0.3-0.3s0.2-0.2,0.3-0.3c0.1-0.1,0.1-0.1,0.2-0.1c0,0,0.1,0.1,0.1,0.2s-0.1,0.3-0.1,0.5
		c-0.1,0.3,0,0.5,0,0.6c0.1,0.2,0.2,0.1,0.5-0.2c0.1-0.1,0.3-0.3,0.5-0.7s0.4-0.5,0.5-0.7c0,0,0.2,0.1,0.4,0.2
		c0.1,0.1,0.2,0.1,0.3,0.1l0.5-0.5c0.1,0.1,0.1,0.3-0.1,0.7c-0.1,0.4-0.2,0.7-0.2,0.9c0.1,0.1,0.2,0.1,0.4,0
		c0.2-0.1,0.2-0.1,0.3-0.1l0.1,0.1c0.1,0.1,0.1,0.1,0.1,0.2c0,0.1,0.1,0.2,0.1,0.2c0.1,0.1,0.3,0.1,0.6-0.2c0.1-0.1,0.1-0.1,0.2-0.2
		c0.1-0.1,0.2-0.2,0.2-0.2c0.1-0.1,0.2-0.2,0.2-0.1s0.1,0.1,0.1,0.2c0,0.1,0,0.2-0.1,0.3c0,0.1,0,0.1,0.1,0.2
		c0.1,0.1,0.4-0.1,0.9-0.4c0.2-0.2,0.4-0.2,0.4-0.2c0,0.1-0.1,0.2-0.2,0.4c-0.1,0.2-0.3,0.4-0.4,0.7c-0.2,0.3-0.3,0.4-0.5,0.6
		c-0.2,0.3-0.5,0.7-0.8,1.3c-0.3,0.5-0.5,1.1-0.8,1.7s-0.4,1.2-0.4,1.7c-0.1,0.5,0.1,1,0.4,1.3c0.2,0.2,0.4,0.3,0.7,0.4
		c0.3,0.1,0.7,0.1,1,0c0.3-0.1,0.7-0.1,1.1-0.2c0.4-0.1,0.7-0.2,0.9-0.3s1.2-0.7,2.9-1.7c0,0.4,0,0.6,0.1,0.7
		c0.1,0.1,0.2,0.2,0.4,0.3c0.2,0.2,0.4,0.2,0.5,0.4c0.1,0.1,0.1,0.2,0.1,0.4c0,0.2,0,0.4,0.1,0.4l0.1,0.1c0.1,0.1-0.1,0.2-0.2,0.4
		l-0.1,0.1c-0.1,0.1-0.1,0.1-0.2,0.2l-0.4,0.3c-0.3,0.3-0.4,0.4-0.4,0.5c0.1,0.1,0.2,0.1,0.3,0.1s0.3-0.1,0.5-0.1
		c0.2-0.1,0.4-0.1,0.6-0.2c0.2-0.1,0.4-0.1,0.5-0.2l-0.1-0.1c0.2,0.1,0.1,0.4-0.2,1l-0.4,0.8c-0.2,0.3-0.2,0.5-0.4,0.7l1.1,0.1v0.2
		c-0.3,0.3-0.6,0.5-0.9,0.7c-0.3,0.2-0.7,0.3-1.1,0.5c-0.3,0.2-0.7,0.2-1.2,0.4s-1,0.2-1.6,0.4c-0.5,0.2-1,0.3-1.5,0.4
		c-0.5,0.1-0.8,0.4-1.1,0.5c-0.4,0.1-0.7,0.1-1.1,0.1c-0.4,0-0.7,0.1-1.1,0c-0.4,0-0.8-0.1-1.3-0.1c-0.5,0-1-0.1-1.7-0.1
		c-0.3-0.2-0.6-0.4-0.8-0.6c-0.2-0.2-0.4-0.5-0.6-0.8c-0.2-0.4-0.5-0.7-0.7-1.1c-0.2-0.4-0.4-0.8-0.6-1.2c-0.2-0.4-0.3-0.8-0.4-1
		c-0.7-2.1-0.6-3.5,0.2-4.2c0.2-2.1,0.7-3.9,1.4-5.4c-0.2,0.4-0.2,0.7,0,1l0.2-0.1l0.5-1c0.1-0.2,0.2-0.4,0.3-0.7
		C-20.2,146.2-20.1,146-19.9,145.7L-19.9,145.7z M-9.1,100.3h32l0.2-0.2c0,0,0.1-0.1,0.3-0.2l2.9-0.8c0.4-0.1,0.8-0.2,1.4-0.2
		c0.5-0.1,1.2-0.1,1.9-0.2c1.6-0.2,2.9,0,3.8,0.7c-0.1,0.2,0.1,0.4,0.2,0.8H36c-0.5-0.4-1.1-1-1.7-1.5l-1.1-1
		c-0.1-0.2-0.4-0.6-0.7-1c-0.2-0.2-0.4-0.4-0.8-0.7c-0.3-0.3-0.6-0.5-0.8-0.7l-0.2-0.2c0,0-0.1-0.1-0.1-0.1C30.5,95,30.5,95,30.5,95
		v-0.2l0.1-0.1c0.1-0.1,0.4-0.2,0.7-0.4s0.6-0.2,0.7-0.3c0.1-0.1,0.2-0.3,0.1-0.5L31.7,93c0.1-0.1,0.2-0.1,0.4-0.1
		c0.1,0,0.4,0.1,0.5,0.2c0.2,0.1,0.4,0.1,0.5,0.2c0.2,0.1,0.3,0.1,0.4-0.1c0,0,0.1-0.1,0.4-0.4c0.2-0.2,0.4-0.5,0.8-1l0.7-0.8
		c0.1-0.1,0.2-0.2,0.3-0.3c0.1-0.1,0.2-0.2,0.2-0.2c0.1-0.1,0.1-0.1,0.2-0.2c0.1-0.1,0.1-0.1,0.2-0.2l0.2-0.2
		c0.1-0.1,0.2-0.2,0.2-0.4l0.8-1c0.2-0.2,0.5-0.4,0.9-0.4c0.2-0.2,0.4-0.5,0.5-0.8c0.2-0.3,0.4-0.6,0.6-1l0.1-0.1
		c0.1-0.1,0.2-0.1,0.3-0.1l0.1,0.1c0.1,0.1,0.1,0.2,0.1,0.6c0,0.2,0,0.5,0,0.5c0.1,0.1,0.2,0.1,0.4-0.1l0.1-0.1l0.1-0.1l0.1-0.1
		c0.1-0.1,0.1-0.1,0.1,0c0.1,0.1,0.1,0.2,0,0.4c0,0.1,0,0.2,0.1,0.4c0,0.1,0,0.2,0.1,0.3l0.1,0.1c0.1,0.1,0.2,0,0.5-0.1
		s0.5-0.1,0.5-0.1c0,0.1-0.1,0.3-0.2,0.5c-0.1,0.2-0.2,0.4,0,0.5c0.1,0.1,0.2,0,0.5-0.2c0.4-0.1,0.5-0.1,0.5,0
		c0,0.1-0.1,0.3-0.2,0.5c-0.1,0.2-0.3,0.4-0.4,0.7c-0.2,0.2-0.2,0.4-0.2,0.4c0.1,0.1,0.1,0,0.3-0.1c0.2-0.1,0.4-0.2,0.6-0.2
		c0.2-0.1,0.4-0.2,0.6-0.2c0.2-0.1,0.3-0.1,0.4,0l0.1,0.1c0.1,0.1,0.1,0.2-0.1,0.3c-0.1,0.1-0.3,0.3-0.5,0.5c-0.4,0.4-0.7,0.7-1.1,1
		c-0.4,0.4-0.8,0.7-1.1,1c-0.1,0.1-0.1,0.1-0.2,0.2c-0.1,0.1-0.1,0.1-0.2,0.2c-0.8,0.7-1,1.1-0.6,1.4l0.1,0.1l0.5-0.1l1.8-2.1
		c0.2-0.2,0.4-0.4,0.7-0.7c0.2-0.2,0.6-0.6,1-1c0.1,0.1,0.2,0.1,0.5,0.1s0.4,0.1,0.4,0.2c0,0-0.1,0.2-0.1,0.4
		c-0.1,0.2-0.1,0.4-0.2,0.7c-0.1,0.3-0.1,0.4,0,0.5s0.1,0.1,0.3,0.2c0.1,0.1,0.1,0.2,0.1,0.5c-0.1,0.3,0,0.5,0.1,0.5
		c0,0,0.2,0,0.4-0.1c0.3-0.1,0.4-0.1,0.5,0.1c0,0,0.1,0.1,0.1,0.2c0.1,0.1,0,0.1,0.1,0.2c0.1,0.1,0.1,0.1,0.2,0.1
		c0.1,0,0.2,0.1,0.2,0.1l0.1,0.1l-0.2,0.7l-2.7,2.9c-0.1,0.1,0,0.2,0.2,0.4c0.1,0.1,0.2,0.2,0.3,0.2c0.1,0.1,0.2,0.1,0.3,0.2h0.4
		c0.2-0.2,0.4-0.4,0.5-0.5c0.2-0.2,0.3-0.3,0.4-0.4c0.1-0.1,0.1-0.1,0.2-0.2c0.1-0.1,0.2-0.2,0.3-0.3l0.7-0.8
		c0.1-0.1,0.3-0.3,0.4-0.4c0.1-0.1,0.2-0.2,0.4-0.4c0.2-0.2,0.3-0.3,0.4-0.2c0.1,0.1,0.1,0.1,0.1,0.2c0.1,0.1,0.1,0.2,0.1,0.2
		c0.1,0.1,0.2,0.1,0.4-0.1c0.2-0.2,0.3-0.3,0.3-0.3c0.1-0.1,0.2-0.1,0.2,0c0.1,0.1,0.1,0.1,0.2,0.3c0.1,0.2,0.1,0.3,0.1,0.5
		c0.1,0.2,0.1,0.4,0.1,0.5c0.1,0.3,0.1,0.4,0.1,0.5c0.1,0.1,0.1,0.1,0.1,0.1h0.1c0.1,0,0.2,0.1,0.3,0.2l0.1,0.1L49.9,99
		c0,0,0.1,0.1,0.2,0s0.2,0,0.3,0.1c0.1,0.1,0.1,0.2,0.1,0.3c-0.1,0.2-0.1,0.3-0.2,0.5c-0.1,0.2-0.2,0.3-0.4,0.5
		c-0.2,0.2-0.2,0.2-0.4,0.4c-0.1,0.1-0.2,0.2-0.6,0.5c-0.4,0.2-0.7,0.6-1.1,1l-0.2,0.2c-0.1,0.1-0.2,0.2-0.4,0.4
		c-0.1,0.1-0.2,0.2-0.4,0.4c-0.1,0.1-0.2,0.2-0.5,0.5c-0.2,0.2-0.4,0.4-0.5,0.5c-0.4,0.4-0.7,0.8-0.8,1.3l-0.1,0.1
		c-0.1,0.1-0.2,0.2-0.4,0.3c-0.2,0.1-0.3,0.2-0.3,0.2c-0.1,0.1-0.2,0.3-0.1,0.5c-0.1,0.1-0.2,0.1-0.5,0.2c-0.3,0.1-0.6,0.1-0.9,0.2
		c-0.3,0.1-0.7,0.1-0.9,0.1s-0.4-0.1-0.5-0.2c0,0-0.2-0.2-0.3-0.4c-0.2-0.2-0.5-0.6-0.8-0.9c-0.3-0.3-0.7-0.8-1.1-1.2
		c-0.4-0.4-0.8-0.9-1.2-1.3c-0.4-0.4-0.7-0.7-1-1l0.5,4.2l2.7,0.7l0.5,0.4c-0.1,0.2-0.3,0.4-0.5,0.7c-0.4,0.4-0.8,0.7-1.3,0.8
		c-0.1,0.1,0,0.2,0.1,0.5c0.1,0.3,0.1,0.5,0,0.6c-0.7,0.4-1.1,0.7-1.2,0.7c-0.1,0.1-0.2,0.3-0.2,0.5c0,0.1-0.1,0.2-0.1,0.3V147
		l0.1,1h-1.1H2.6c-0.1,0.1-0.2,0.2-0.4,0.2c-0.4,0.2-0.7,0.6-1.1,1l-0.2,0.2c-0.1,0.1-0.2,0.2-0.4,0.4s-0.2,0.2-0.4,0.4
		c-0.1,0.1-0.2,0.2-0.5,0.5c-0.2,0.2-0.4,0.4-0.5,0.5c-0.4,0.4-0.7,0.8-0.8,1.3l-0.1,0.1c-0.1,0.1-0.2,0.2-0.4,0.3
		c-0.2,0.1-0.3,0.2-0.3,0.2c-0.1,0.1-0.2,0.3-0.1,0.5c-0.1,0.1-0.2,0.1-0.5,0.2c-0.3,0.1-0.6,0.1-0.9,0.2c-0.3,0.1-0.7,0.1-0.9,0.1
		c-0.2,0-0.4-0.1-0.5-0.2c0,0-0.2-0.2-0.3-0.4c-0.2-0.2-0.5-0.6-0.8-0.9c-0.4-0.4-0.7-0.8-1.1-1.2s-0.8-0.9-1.2-1.3
		c-0.7-0.7-1.5-1.4-2.1-1.9c-0.7-0.5-1.4-1.2-2.1-1.9l-1.1-1c-0.1-0.2-0.4-0.6-0.7-1c-0.2-0.2-0.4-0.4-0.8-0.7
		c-0.3-0.3-0.6-0.5-0.8-0.7l-0.2-0.2c0,0-0.1-0.1-0.1-0.1c-0.1-0.1-0.1-0.1-0.1-0.1V142l0.1-0.1c0.1-0.1,0.4-0.2,0.7-0.4
		c0.4-0.1,0.7-0.3,0.7-0.4c0.1-0.1,0.2-0.3,0.1-0.5l-0.3-0.4c0.1-0.1,0.2-0.1,0.4-0.1c0.1,0,0.4,0.1,0.5,0.2
		c0.2,0.1,0.4,0.1,0.5,0.2c0.2,0.1,0.3,0.1,0.4-0.1c0,0,0.1-0.1,0.4-0.4c0.2-0.2,0.4-0.5,0.8-1l0.7-0.8c0.1-0.1,0.2-0.2,0.3-0.3
		c0.1-0.1,0.2-0.2,0.2-0.2c0.1-0.1,0.1-0.1,0.2-0.2c0.1-0.1,0.1-0.1,0.2-0.2l0.2-0.2c0.1-0.1,0.2-0.2,0.2-0.4l0.5-0.6l0-35.1v-1.1
		L-9.1,100.3L-9.1,100.3z M35.4,102.4H-8v43.5h43.5V102.4z"/>
	<path class="st1" d="M-7.5,102.9l27.6,0C20,103,20,103,20,103c-0.4,0.4-0.4,0.7,0,1.1c0.4,0.2,0.6,0.5,0.9,0.8
		c0.2,0.4,0.4,0.8,0.8,1.2c0.1,0.1,0.2,0.2,0.3,0.3c0.2,0.2,0.4,0.2,0.6,0.5c0.2,0.2,0.4,0.3,0.7,0.5c0.2,0.2,0.4,0.4,0.6,0.6
		c0.1,0.1,0.1,0.1,0.2,0.2c0.1,0.1,0.2,0.2,0.2,0.4c0,0,0.1,0.1,0.2,0.1c0.1,0.1,0.2,0.1,0.2,0.1l0.5,0.5c0.2,0.2,0.5,0.5,0.8,0.9
		c0.4,0.4,0.6,0.7,0.8,0.9c0.3,0.3,0.5,0.5,0.7,0.6c0.1,0.1,0.4,0.3,0.7,0.6c0.1,0.1,0.4,0.5,1,1.1c0.2,0.2,0.4,0.4,0.5,0.5
		c0.2,0.2,0.3,0.3,0.4,0.4l0.6,0.6c0.2,0.2,0.4,0.4,0.5,0.5c0.2,0.2,0.3,0.3,0.4,0.3l0.2,0.1l0.4-1.1l0.1-0.2
		c0.1-0.1,0.2-0.1,0.4-0.1c0.1,0,0.4,0,0.5-0.1c0.2-0.1,0.4,0,0.5,0c0.1,0,0.2,0,0.3-0.1c0,0,0-0.1,0.1-0.3c0.1-0.2,0-0.4,0-0.6
		c0-0.2-0.1-0.4,0-0.6c0-0.2,0.1-0.3,0-0.4c0.1-0.1,0.1-0.1,0.2-0.1c0.1-0.1,0.1-0.1,0.2-0.2l0.1-0.1v33.4l-31.7-0.2l0.2-0.7
		l-0.1-0.1c-0.1-0.1-0.2-0.2-0.3-0.2c-0.1,0-0.1,0-0.1,0s-0.1-0.1-0.1-0.1c-0.1-0.1-0.1-0.3-0.1-0.5c-0.1-0.2-0.1-0.3-0.1-0.5
		c-0.1-0.2-0.1-0.4-0.1-0.5c-0.1-0.2-0.1-0.2-0.2-0.3c-0.1-0.1-0.2-0.1-0.2,0c0,0-0.1,0.1-0.2,0.4c-0.2,0.2-0.2,0.2-0.4,0.1
		c0,0-0.1-0.1-0.1-0.2c-0.1-0.1-0.1-0.2-0.1-0.2c-0.1-0.1-0.2,0.1-0.4,0.2c-0.1,0.1-0.2,0.2-0.4,0.4c-0.1,0.1-0.2,0.2-0.4,0.4
		l-0.8,0.9c-0.1,0.1-0.2,0.2-0.4,0.4c-0.1,0.1-0.2,0.2-0.2,0.2c-0.1,0.1-0.2,0.2-0.4,0.4l-0.1,0.1h-1.7c-0.1-0.1-0.2-0.3-0.1-0.4
		l2.7-3l0.2-0.7l-0.1-0.1c0,0-0.1-0.1-0.2-0.1c-0.1,0-0.2-0.1-0.2-0.1c0,0-0.1-0.1-0.1-0.2c-0.1-0.1,0-0.1-0.1-0.2
		c-0.1-0.1-0.2-0.1-0.5-0.1c-0.3,0.1-0.4,0.1-0.5,0.1c-0.1-0.1-0.1-0.2-0.1-0.5c0.1-0.3,0-0.5-0.1-0.5c-0.2-0.1-0.2-0.1-0.3-0.2
		c-0.1-0.1-0.1-0.2-0.1-0.5c0.1-0.3,0.1-0.5,0.2-0.7s0.1-0.3,0.1-0.4c0-0.1-0.2-0.2-0.4-0.2s-0.4-0.1-0.5-0.1c-0.4,0.4-0.7,0.7-1,1
		c-0.3,0.3-0.5,0.5-0.6,0.7l-1.9,2.2l-0.5,0.1l-0.1-0.1c-0.1-0.1-0.1-0.1-0.1-0.1v-0.5c0.1-0.2,0.3-0.5,0.7-0.8
		c0.1-0.1,0.2-0.2,0.2-0.2c0.1-0.1,0.1-0.1,0.2-0.2c0.3-0.3,0.6-0.6,1.1-1c0.4-0.4,0.8-0.7,1.2-1.1c0.2-0.2,0.4-0.4,0.5-0.6
		c0.1-0.1,0.1-0.2,0.1-0.3l-0.1-0.1c-0.1-0.1-0.2-0.1-0.4,0c-0.2,0.1-0.4,0.2-0.7,0.3c-0.2,0.1-0.4,0.2-0.7,0.3
		c-0.1,0.1-0.2,0.1-0.2,0.1c-0.1-0.1,0-0.2,0.2-0.4c0.2-0.2,0.3-0.4,0.4-0.7s0.2-0.4,0.2-0.5c0-0.1-0.1-0.1-0.5,0
		c-0.3,0.2-0.5,0.2-0.5,0.2c-0.1-0.1-0.1-0.2,0.1-0.5c0.1-0.2,0.2-0.4,0.2-0.5c-0.1-0.1-0.3-0.1-0.5,0.1c-0.2,0.1-0.4,0.2-0.5,0.1
		l-0.1-0.1c-0.1-0.1-0.1-0.2-0.1-0.3c0-0.1,0-0.2,0-0.5c0-0.1,0-0.2,0-0.4s-0.1-0.1-0.1,0c0,0,0,0-0.1,0.1l-0.1,0.1l-0.2,0.2
		c-0.2,0.1-0.4,0.1-0.4,0.1c0,0,0,0-0.1-0.1L-7.5,102.9L-7.5,102.9z"/>
	<path class="st1" d="M27.5,103h2.3c0,0.1,0.1,0.2,0.1,0.3c0.1,0.3,0,0.6,0.1,0.9c0,0.4,0,0.6,0,0.8s-0.1,0.4-0.2,0.3l-0.2-0.1
		c-0.5-0.4-1-0.9-1.4-1.3c-0.3-0.3-0.5-0.7-0.7-1C27.4,103,27.5,102.9,27.5,103L27.5,103z"/>
	<path class="st2" d="M-4.2,129.5l0.4-0.4c0.2-0.2,0.3-0.4,0.3-0.8c0-0.4,0.1-0.6,0.2-0.7c0.2-0.2,0.5-0.3,1-0.2s0.8,0.2,1.4,0.3
		l7.5-0.1c0.1-0.2,0.2-0.5,0.1-0.8c-0.1-0.4-0.2-0.7-0.5-1.1c-0.2-0.4-0.5-0.7-0.8-1.1c-0.4-0.4-0.6-0.7-0.9-1
		c-0.3-0.3-0.5-0.4-0.4-0.1c0.1,0.2,0.2,0.5,0.4,0.9c0.1,0.2,0.1,0.2,0.1,0.3c-0.1,0.1-0.1,0-0.2-0.1c-0.1-0.1-0.2-0.1-0.3-0.2
		c-0.1-0.1-0.2-0.2-0.2-0.2L3.7,124c-0.4-0.4-0.6-0.7-0.7-1c-0.1-0.1-0.1-0.2,0-0.2c0.1-0.1,0.1-0.1,0.2-0.1c0.1,0,0.1,0,0.2,0
		c0.1,0,0.1,0,0.1,0s0-0.1-0.1-0.4c-0.1-0.2-0.1-0.4,0.1-0.5c0.1-0.1,0.1-0.1,0.2-0.1c0.1,0,0.2-0.1,0.2-0.1c0.1-0.1,0.1-0.3,0-0.6
		c-0.1-0.3,0-0.6,0.1-0.7c-0.1,0.1,0.1-0.1,0.4-0.4c0.3-0.3,0.7-0.7,1.1-1.1c0.2-0.2,0.4-0.5,0.4-0.8c0-0.2,0.1-0.5,0.3-0.7
		s0.4-0.2,0.6,0c0.4,0.1,0.7,0.4,1,0.7c0.4,0.4,0.8,0.8,1.3,1.4c0.4,0.5,0.8,1,1.3,1.4l0.8,0.8c0.1,0.1,0.2,0.2,0.4,0.4
		c0.2,0.2,0.4,0.4,0.6,0.6l1.4,1.5c1.4,1.6,2,2.3,1.9,2.1c0.8,0.8,1.4,1.3,1.9,1.6c0.1,0,0.8,0.5,1.9,1.6c0.1,0.2,0.1,0.5-0.1,0.5
		c-0.4,0.1-0.5,0.2-0.6,0.4c0,0-0.1,0.2-0.1,0.6c-0.1,0.4-0.2,0.7-0.5,1c-0.1,0.1-0.3,0.2-0.5,0.3c-0.2,0.1-0.4,0.2-0.4,0.2
		c-0.1,0.1-0.1,0.2-0.1,0.4l-1.4,0.1c-0.2,0.2-0.2,0.4-0.1,0.5l0.1,0.1c0.2,0.2,0.2,0.4,0.1,0.5c-0.1,0.1-0.3,0.2-0.5,0.2
		c-0.2,0.1-0.5,0.1-0.8,0.2c-0.3,0.1-0.5,0.1-0.8,0.1c-0.3,0.1-0.5,0.1-0.8,0.1l-0.7,0.1l-2.2-0.1c-0.8,0-1.5,0.1-2.1,0.2l-0.1,0
		c-0.2,0.2-0.1,0.5,0.4,1l0.3,0.3c0.8,0.8,1.3,1.5,1.4,2L9.3,138c-0.1,0.1-0.1,0.1-0.3,0.2c-0.2,0.1-0.2,0.1-0.3,0.2
		c0,0,0,0.1,0.1,0.4c0.1,0.2,0,0.4,0.1,0.7C9,139.7,9,140,9,140.1l-0.1,0.7c0,0.2,0,0.5,0.1,0.7c0,0-0.2,0.1-0.3,0.1
		s-0.4,0.1-0.6,0.1c-0.3,0.1-0.5,0.1-0.7,0.2c-0.2,0.1-0.4,0.2-0.6,0.4c-0.1,0.1-0.2,0.2-0.4,0.4c-0.1,0.1-0.2,0.2-0.4,0.4
		c0,0-0.1,0.1-0.1,0.1c-0.1,0.1-0.1,0.1-0.2,0.1l-0.8-0.4c0,0-0.7-0.7-2-2.1l-1.3-1.4c-0.2-0.2-0.4-0.4-0.5-0.5
		c-0.1-0.1-0.3-0.3-0.4-0.4l-0.2-0.2c-0.3-0.3-0.6-0.6-0.9-0.9c-0.3-0.3-0.6-0.5-0.8-0.7c-0.4-0.2-0.8-0.6-1.4-1.1
		c-0.2-0.2-0.4-0.4-0.8-0.8c-0.4-0.4-0.6-0.6-0.8-0.8l-0.4-0.4c-0.1-0.1-0.1-0.1-0.2-0.2c-0.1-0.1-0.1-0.1-0.2-0.2
		c-0.1-0.1-0.4-0.4-0.7-0.6c-0.4-0.2-0.6-0.5-0.7-0.6c-0.4-0.4-0.5-0.6-0.4-0.7c0.1-0.1,0.2-0.1,0.4-0.1c0.2-0.1,0.2,0,0.3-0.1
		c0.1-0.1,0.1-0.2,0.2-0.4c0.1-0.1,0.2-0.4,0.3-0.5c0.2-0.4,0.2-0.8,0-1.1c0,0,0.1,0,0.2,0c0.1,0,0.2,0.1,0.4,0.2
		c0.2,0.1,0.3,0.1,0.4,0.2C-4.4,129.5-4.3,129.5-4.2,129.5L-4.2,129.5z"/>
	<path class="st2" d="M18.3,105.9c0.1,0.1,0.1,0.2,0.1,0.4c0.1,0.2,0.1,0.2,0.2,0.3c0.1,0.1,0.2,0.1,0.3,0.1l0.4-0.2l0.1,0.1
		c0.1,0.1,0.3,0.4,0.5,0.7c0.2,0.3,0.3,0.5,0.3,0.5c0.2,0.4,0.1,0.8-0.2,1.2c-0.4,0.5-0.6,1-1,1.4l0.1,0.1c0.1,0.1,0.2,0.1,0.4-0.1
		c0.3-0.3,0.8-0.7,1.3-1.1l1.4-1c0,0,0,0,0.1,0.1c0.4,0.2,0.2,0.7-0.7,1.5l-0.7,0.7c-0.2,0.2-0.4,0.4-0.4,0.5
		c-0.1,0.2-0.1,0.4-0.1,0.4c0.1,0.1,0.3,0.1,0.7-0.2c0.2-0.1,0.4-0.2,0.5-0.1c0.1,0.1,0.1,0.2,0,0.4c-0.1,0.2-0.1,0.4-0.2,0.6
		s-0.2,0.4-0.4,0.5l-0.3,0.3c-0.1,0.1-0.1,0.1-0.2,0.2s-0.1,0.1-0.2,0.1l-0.7,0.5c0,0.2,0.2,0.5,0.5,0.8c0.2,0.4,0.5,0.7,0.9,1
		c0.3,0.3,0.7,0.7,1,1c0.4,0.4,0.7,0.7,0.9,0.9c0.3,0.3,0.6,0.6,0.9,0.9s0.6,0.6,1,1c0.1,0.1,0.2,0.2,0.3,0.3
		c0.1,0.1,0.1,0.1,0.2,0.2c0.1,0.1,0.3,0.3,0.5,0.5c0.2,0.2,0.4,0.4,0.5,0.5c-0.1-0.1-0.1,0.1-0.1,0.3c0,0.2,0.1,0.5,0.2,0.9
		c0.1,0.4,0.1,0.7,0.1,1c0,0.4-0.1,0.5-0.2,0.7c-0.2,0.2-0.7,0.1-1.4-0.4c-1.1-0.1-1.9,0.1-2.3,0.5c-0.1,0.2-0.2,0.4-0.4,0.8
		c-0.1,0.1-0.2,0.1-0.4,0.1l-0.3-0.1c0.2,0.1,0.2,0.1,0.1,0c-0.1-0.1-0.1-0.1-0.1-0.1c-0.1-0.1-0.1-0.1-0.1-0.1l-3.1-3.3
		c-0.1-0.1-0.1-0.1-0.3-0.3c-0.1-0.1-0.3-0.3-0.6-0.5l-1.1-1c-0.1-0.1-0.2-0.2-0.4-0.4c-0.1-0.1-0.3-0.3-0.5-0.4
		c-0.1-0.1-0.2-0.2-0.4-0.3c-0.1-0.1-0.1-0.1-0.1-0.1h-0.2c0,0-0.2,0.1-0.2,0.2c-0.1,0.1-0.2,0.2-0.3,0.4c-0.1,0.1-0.2,0.4-0.4,0.5
		c-0.1,0.1-0.2,0.4-0.4,0.4c-0.7,0.7-1.2,1-1.5,0.7c-0.1-0.1-0.2-0.3-0.2-0.5c0-0.2-0.1-0.5-0.3-0.7c-0.1-0.1-0.1-0.2-0.1-0.4
		c0-0.1,0.1-0.3,0.1-0.4c0.1-0.2,0.1-0.2,0.1-0.4c0.1-0.1,0.1-0.2,0.1-0.2s-0.1,0-0.3,0.1c-0.2,0.1-0.4,0.1-0.5,0.2
		c-0.2,0.1-0.4,0.1-0.5,0.2c-0.2,0.1-0.3,0.1-0.4,0c-0.1-0.1-0.2-0.3-0.1-0.6c0-0.2,0-0.5,0-0.5c0.1,0.1-0.1,0-0.4-0.2
		c0,0-0.1,0-0.2-0.1c-0.1-0.1-0.2-0.3-0.3-0.5c-0.1-0.2-0.2-0.4-0.2-0.5l0.1-0.3l6.7-6.6c0.3-0.3,0.6-0.7,1-1.2
		c0.4-0.5,0.9-1,1.5-1.6C17.9,106,18.1,105.9,18.3,105.9L18.3,105.9z"/>
</g>
</svg>
